<?xml version="1.0" standalone="no"?>
<!DOCTYPE svg PUBLIC "-//W3C//DTD SVG 1.1//EN" "http://www.w3.org/Graphics/SVG/1.1/DTD/svg11.dtd" >
<svg xmlns="http://www.w3.org/2000/svg" xmlns:xlink="http://www.w3.org/1999/xlink" version="1.1">
<metadata>
Created by FontForge 20170731 at Mon Mar 13 11:03:53 2023
 By Aleksey,,,
</metadata>
<defs>
<font id="Gilroy-Bold" horiz-adv-x="626" >
  <font-face 
    font-family="Gilroy-Bold"
    font-weight="400"
    font-stretch="normal"
    units-per-em="1000"
    panose-1="0 0 8 0 0 0 0 0 0 0"
    ascent="773"
    descent="-227"
    x-height="500"
    cap-height="700"
    bbox="-415 -263 1094 975"
    underline-thickness="50"
    underline-position="-200"
    unicode-range="U+000D-FB04"
  />
<missing-glyph horiz-adv-x="500" 
d="M410 800v-1000h-317v1000h317zM333 733h-165v-33h65v-37h-66v-33h166v33h-66v37h66v33zM267 604h-100v-104h166v34h-66v70zM233 570v-36h-33v36h33zM333 473h-166v-33h66v-37h-66v-33h100v70h66v33zM333 413h-33v-66h-133v-34h166v100zM333 291h-100v-56h34v23h33v-47
h-100v80h-33v-113h166v113zM333 118h-166v-113h166v113zM300 85v-47h-100v47h100zM333 -18h-166v-33h70l-70 -47v-33h166v33h-102l70 47h32v33z" />
    <glyph glyph-name="fi" unicode="fi" horiz-adv-x="557" 
d="M498 500v-500h-129v376h-147v-376h-129v376h-72v124h72v5q0 209 235 209q53 0 117 -14v-118q-67 8 -117 8q-54 0 -80 -18.5t-26 -66.5v-5h276z" />
    <glyph glyph-name="fl" unicode="fl" horiz-adv-x="557" 
d="M328 714q65 0 170 -21v-693h-129v600q-14 1 -41 1q-106 0 -106 -96v-5h83v-124h-83v-376h-129v376h-72v124h72v5q0 209 235 209z" />
    <glyph glyph-name="f_f" unicode="ff" horiz-adv-x="605" 
d="M605 600q-106 8 -106 -85v-15h106v-124h-106v-376h-129v376h-148v-376h-129v376h-72v124h72v5q0 106 59 161t176 48v-124q-106 8 -106 -85v-5h148v15q0 106 59.5 161t175.5 48v-124z" />
    <glyph glyph-name="f_f_i" unicode="ffi" horiz-adv-x="834" 
d="M775 500v-500h-129v376h-147v-376h-129v376h-148v-376h-129v376h-72v124h72v5q0 106 59 161t176 48v-124q-106 8 -106 -85v-5h148v15q0 209 235 209q54 0 118 -14v-118q-69 8 -118 8q-53 0 -79.5 -18.5t-26.5 -66.5v-15h276z" />
    <glyph glyph-name="f_f_l" unicode="ffl" horiz-adv-x="834" 
d="M605 724q67 0 170 -21v-703h-129v610q-14 1 -41 1q-106 0 -106 -96v-15h84v-124h-84v-376h-129v376h-148v-376h-129v376h-72v124h72v5q0 106 59 161t176 48v-124q-106 8 -106 -85v-5h148v15q0 209 235 209z" />
    <glyph glyph-name=".notdef" horiz-adv-x="500" 
d="M410 800v-1000h-317v1000h317zM333 733h-165v-33h65v-37h-66v-33h166v33h-66v37h66v33zM267 604h-100v-104h166v34h-66v70zM233 570v-36h-33v36h33zM333 473h-166v-33h66v-37h-66v-33h100v70h66v33zM333 413h-33v-66h-133v-34h166v100zM333 291h-100v-56h34v23h33v-47
h-100v80h-33v-113h166v113zM333 118h-166v-113h166v113zM300 85v-47h-100v47h100zM333 -18h-166v-33h70l-70 -47v-33h166v33h-102l70 47h32v33z" />
    <glyph glyph-name=".null" horiz-adv-x="0" 
 />
    <glyph glyph-name=".null" horiz-adv-x="0" 
 />
    <glyph glyph-name="nonmarkingreturn" unicode="&#xd;" horiz-adv-x="333" 
 />
    <glyph glyph-name="glyph8" horiz-adv-x="500" 
d="M410 800v-1000h-317v1000h317zM333 733h-165v-33h65v-37h-66v-33h166v33h-66v37h66v33zM267 604h-100v-104h166v34h-66v70zM233 570v-36h-33v36h33zM333 473h-166v-33h66v-37h-66v-33h100v70h66v33zM333 413h-33v-66h-133v-34h166v100zM333 291h-100v-56h34v23h33v-47
h-100v80h-33v-113h166v113zM333 118h-166v-113h166v113zM300 85v-47h-100v47h100zM333 -18h-166v-33h70l-70 -47v-33h166v33h-102l70 47h32v33z" />
    <glyph glyph-name="space" unicode=" " horiz-adv-x="250" 
 />
    <glyph glyph-name="exclam" unicode="!" horiz-adv-x="268" 
d="M83 235l-27 265v200h155v-200l-26 -265h-102zM134 -13q-35 0 -60 25t-25 60t25 60t60 25t60 -25t25 -60t-25 -60t-60 -25z" />
    <glyph glyph-name="quotedbl" unicode="&#x22;" horiz-adv-x="378" 
d="M60 470l-17 230h122l-17 -230h-88zM230 470l-17 230h122l-17 -230h-88z" />
    <glyph glyph-name="numbersign" unicode="#" horiz-adv-x="616" 
d="M577 395h-108l-15 -90h109l-16 -97h-110l-26 -158h-102l26 158h-102l-26 -158h-101l26 158h-109l16 97h110l15 90h-111l16 98h111l26 157h101l-26 -157h102l26 157h102l-26 -157h108zM352 305l15 90h-102l-15 -90h102z" />
    <glyph glyph-name="dollar" unicode="$" horiz-adv-x="549" 
d="M524 196q0 -88 -56 -142.5t-146 -65.5v-88h-67v87q-84 6 -144 47t-86 111l119 69q32 -80 111 -91v173h-1l-2 1q-35 13 -57 23t-51.5 29t-46 39.5t-29 52.5t-12.5 70q0 88 57.5 141t141.5 61v87h67v-89q136 -16 192 -141l-116 -68q-24 60 -76 73v-167q93 -37 125 -59
q77 -55 77 -153zM193 510q0 -22 14 -38.5t48 -33.5v140q-30 -6 -46 -24t-16 -44zM322 125q64 14 64 70q0 25 -15.5 42t-48.5 32v-144z" />
    <glyph glyph-name="percent" unicode="%" horiz-adv-x="765" 
d="M214 384q-72 0 -120.5 48t-48.5 117t48.5 117t120.5 48t120 -47.5t48 -117.5t-48 -117.5t-120 -47.5zM116 106l456 507l61 -34l-457 -508zM213 485q27 0 45 18.5t18 45.5t-18 45t-45 18t-44.5 -18t-17.5 -45t17.5 -45.5t44.5 -18.5zM552 -12q-72 0 -120 48t-48 117
t48 117t120 48t120 -48t48 -117t-48 -117t-120 -48zM552 89q27 0 44.5 19t17.5 45q0 27 -17.5 45.5t-44.5 18.5t-44.5 -18.5t-17.5 -45.5t17.5 -45.5t44.5 -18.5z" />
    <glyph glyph-name="ampersand" unicode="&#x26;" horiz-adv-x="673" 
d="M652 40l-110 -63l-64 69q-81 -60 -188 -60q-108 0 -176.5 56.5t-68.5 151.5q0 62 30 115t87 86q-34 54 -34 117q0 89 62 145.5t157 56.5q75 0 134.5 -38.5t88.5 -111.5l-118 -68q-29 84 -103 84q-36 0 -59.5 -21t-23.5 -53q0 -28 13.5 -51t43.5 -55l150 -164
q22 47 34 116l116 -66q-19 -81 -61 -147zM299 113q52 0 93 25l-151 164q-2 2 -2 3q-55 -34 -55 -97q0 -43 29.5 -69t85.5 -26z" />
    <glyph glyph-name="quotesingle" unicode="'" horiz-adv-x="208" 
d="M60 470l-17 230h122l-17 -230h-88z" />
    <glyph glyph-name="parenleft" unicode="(" horiz-adv-x="307" 
d="M163 -100q-110 220 -110 450t110 450h129q-110 -220 -110 -450t110 -450h-129z" />
    <glyph glyph-name="parenright" unicode=")" horiz-adv-x="307" 
d="M144 -100h-129q110 220 110 450t-110 450h129q110 -220 110 -450t-110 -450z" />
    <glyph glyph-name="asterisk" unicode="*" horiz-adv-x="398" 
d="M346 609v-80l-91 7l55 -70l-68 -42l-43 84l-43 -84l-67 42l54 70l-90 -7v80l90 -8l-54 71l67 42l43 -84l43 84l68 -42l-55 -71z" />
    <glyph glyph-name="plus" unicode="+" horiz-adv-x="555" 
d="M503 411v-121h-165v-165h-121v165h-164v121h164v164h121v-164h165z" />
    <glyph glyph-name="comma" unicode="," horiz-adv-x="278" 
d="M229 138l-75 -278h-105l40 278h140z" />
    <glyph glyph-name="hyphen" unicode="-" horiz-adv-x="505" 
d="M65 240v124h375v-124h-375z" />
    <glyph glyph-name="period" unicode="." horiz-adv-x="268" 
d="M134 -13q-35 0 -60 25t-25 60t25 60t60 25t60 -25t25 -60t-25 -60t-60 -25z" />
    <glyph glyph-name="slash" unicode="/" horiz-adv-x="523" 
d="M90 -100h-57l400 900h57z" />
    <glyph glyph-name="zero" unicode="0" horiz-adv-x="630" 
d="M315 -14q-131 0 -205.5 99.5t-74.5 264.5t74.5 264.5t205.5 99.5q132 0 206 -99.5t74 -264.5t-74 -264.5t-206 -99.5zM315 121q70 0 106.5 59t36.5 170q0 112 -36.5 171t-106.5 59t-106 -59t-36 -171t36 -170.5t106 -58.5z" />
    <glyph glyph-name="one" unicode="1" horiz-adv-x="387" 
d="M195 700h120v-700h-138v554l-132 -37l-34 118z" />
    <glyph glyph-name="two" unicode="2" horiz-adv-x="531" 
d="M27 0v103l239 246q80 84 80 140q0 41 -25.5 66t-65.5 25q-79 0 -117 -82l-116 68q33 72 95 110t136 38q95 0 163 -59.5t68 -160.5q0 -109 -115 -224l-137 -137h263v-133h-468z" />
    <glyph glyph-name="three" unicode="3" horiz-adv-x="545" 
d="M353 416q71 -21 115.5 -73.5t44.5 -126.5q0 -108 -72.5 -169t-177.5 -61q-82 0 -146.5 37.5t-93.5 110.5l118 68q26 -81 122 -81q53 0 82.5 25.5t29.5 69.5q0 43 -29.5 69t-82.5 26h-30l-53 80l138 180h-274v129h440v-114z" />
    <glyph glyph-name="four" unicode="4" horiz-adv-x="580" 
d="M566 247v-128h-75v-119h-139v119h-331v128l233 453h148l-232 -453h182v166h139v-166h75z" />
    <glyph glyph-name="five" unicode="5" horiz-adv-x="548" 
d="M280 445q101 0 170 -60.5t69 -168.5t-72.5 -169t-177.5 -61q-85 0 -150 38t-94 112l118 69q26 -84 126 -84q53 0 82.5 25.5t29.5 69.5q0 43 -29 69t-79 26h-212l28 389h397v-129h-269l-9 -126h72z" />
    <glyph glyph-name="six" unicode="6" horiz-adv-x="553" 
d="M285 473q109 -3 177 -70.5t68 -172.5q0 -107 -71 -175.5t-183 -68.5t-182.5 68t-70.5 176q0 80 41 141l218 329h158zM276 116q50 0 83.5 31t33.5 83q0 51 -33.5 82t-83.5 31t-83 -30.5t-33 -82.5t33 -83t83 -31z" />
    <glyph glyph-name="seven" unicode="7" horiz-adv-x="490" 
d="M13 700h452v-117l-237 -583h-146l230 568h-299v132z" />
    <glyph glyph-name="eight" unicode="8" horiz-adv-x="568" 
d="M438 364q97 -58 97 -169q0 -97 -67.5 -153t-183.5 -56q-117 0 -184 56t-67 153q0 111 96 169q-73 53 -73 145q0 97 65.5 151t162.5 54t162 -54t65 -151q0 -93 -73 -145zM284 584q-40 0 -65 -22t-25 -60t25 -60.5t65 -22.5t65 22.5t25 60.5t-25 60t-65 22zM284 116
q51 0 82.5 25.5t31.5 71.5q0 45 -31.5 70.5t-82.5 25.5t-82.5 -25.5t-31.5 -70.5q0 -46 31.5 -71.5t82.5 -25.5z" />
    <glyph glyph-name="nine" unicode="9" horiz-adv-x="553" 
d="M530 471q0 -81 -42 -142h1l-218 -329h-158l156 228q-109 2 -177.5 69.5t-68.5 173.5q0 107 70.5 175t182.5 68q113 0 183.5 -67.5t70.5 -175.5zM160 471q0 -52 33.5 -83t82.5 -31q51 0 84 31t33 83t-33 82.5t-84 30.5q-49 0 -82.5 -31t-33.5 -82z" />
    <glyph glyph-name="colon" unicode=":" horiz-adv-x="268" 
d="M134 345q-35 0 -60 25t-25 60t25 60t60 25t60 -25t25 -60t-25 -60t-60 -25zM134 -13q-35 0 -60 25t-25 60t25 60t60 25t60 -25t25 -60t-25 -60t-60 -25z" />
    <glyph glyph-name="semicolon" unicode=";" horiz-adv-x="279" 
d="M145 345q-35 0 -60 25t-25 60t25 60t60 25t60 -25t25 -60t-25 -60t-60 -25zM229 138l-75 -278h-105l40 278h140z" />
    <glyph glyph-name="less" unicode="&#x3c;" horiz-adv-x="528" 
d="M483 598v-134l-291 -114l291 -113v-134l-438 190v115z" />
    <glyph glyph-name="equal" unicode="=" horiz-adv-x="525" 
d="M45 393v121h435v-121h-435zM45 186v121h435v-121h-435z" />
    <glyph glyph-name="greater" unicode="&#x3e;" horiz-adv-x="528" 
d="M45 598l438 -190v-115l-438 -190v134l291 113l-291 114v134z" />
    <glyph glyph-name="question" unicode="?" horiz-adv-x="553" 
d="M195 235q0 44 26.5 84t57.5 64.5t57.5 57.5t26.5 66q0 35 -24 54t-67 19q-84 0 -119 -89l-118 68q30 74 95.5 114.5t146.5 40.5q91 0 157.5 -52.5t66.5 -144.5q0 -42 -17.5 -78t-42 -61.5t-49 -48t-42 -46.5t-17.5 -48h-138zM264 -13q-35 0 -60 25t-25 60t25 60t60 25
t60 -25t25 -60t-25 -60t-60 -25z" />
    <glyph glyph-name="at" unicode="@" horiz-adv-x="779" 
d="M397 612q106 0 188 -51.5t122 -128.5t40 -162q0 -104 -45 -160.5t-114 -56.5q-101 0 -132 79q-38 -46 -99 -46q-64 0 -105.5 46.5t-41.5 117.5t41.5 117.5t105.5 46.5q54 0 91 -37v26h107v-231q0 -73 58 -73q43 0 69.5 43t26.5 128q0 130 -90 219t-222 89
q-138 0 -232.5 -94.5t-94.5 -233.5q0 -142 98 -235t247 -93q94 0 162 25v-36q-67 -23 -162 -23q-164 0 -273 102.5t-109 259.5q0 151 104.5 256.5t259.5 105.5zM384 182q28 0 45.5 19t17.5 49q0 31 -17.5 49.5t-45.5 18.5q-29 0 -47 -18.5t-18 -49.5q0 -30 18 -49t47 -19z
" />
    <glyph glyph-name="A" unicode="A" horiz-adv-x="668" 
d="M515 0l-42 126h-279l-42 -126h-149l245 700h171l246 -700h-150zM238 255h192l-96 286z" />
    <glyph glyph-name="B" unicode="B" horiz-adv-x="605" 
d="M488 363q92 -53 92 -160q0 -89 -63 -146t-155 -57h-297v700h276q90 0 151.5 -55.5t61.5 -141.5q0 -87 -66 -140zM341 571h-138v-154h138q32 0 53.5 22t21.5 55t-21 55t-54 22zM362 129q35 0 58 23.5t23 59.5q0 35 -23 58.5t-58 23.5h-159v-165h159z" />
    <glyph glyph-name="C" unicode="C" horiz-adv-x="726" 
d="M397 -14q-158 0 -261 105t-103 259q0 155 103 259.5t261 104.5q95 0 175.5 -44.5t125.5 -120.5l-119 -69q-26 47 -74 73.5t-108 26.5q-102 0 -164.5 -64t-62.5 -166q0 -101 62.5 -165t164.5 -64q60 0 108.5 26.5t73.5 72.5l119 -69q-45 -76 -125 -120.5t-176 -44.5z" />
    <glyph glyph-name="D" unicode="D" horiz-adv-x="713" 
d="M343 700q144 0 240.5 -101t96.5 -249t-96.5 -249t-240.5 -101h-278v700h278zM343 132q91 0 148 60.5t57 157.5t-57 157.5t-148 60.5h-140v-436h140z" />
    <glyph glyph-name="E" unicode="E" horiz-adv-x="530" 
d="M203 132h295v-132h-433v700h428v-132h-290v-149h265v-130h-265v-157z" />
    <glyph glyph-name="F" unicode="F" horiz-adv-x="519" 
d="M483 568h-280v-166h272v-132h-272v-270h-138v700h418v-132z" />
    <glyph glyph-name="G" unicode="G" horiz-adv-x="785" 
d="M752 376v-54q0 -150 -96 -243t-248 -93q-162 0 -268.5 105.5t-106.5 257.5q0 153 105.5 259t261.5 106q98 0 179 -44.5t126 -118.5l-118 -68q-25 43 -75.5 70t-112.5 27q-100 0 -164.5 -65.5t-64.5 -165.5q0 -99 65.5 -163.5t173.5 -64.5q80 0 132.5 35.5t71.5 97.5h-212
v122h351z" />
    <glyph glyph-name="H" unicode="H" horiz-adv-x="665" 
d="M463 700h137v-700h-137v290h-260v-290h-138v700h138v-278h260v278z" />
    <glyph glyph-name="I" unicode="I" horiz-adv-x="268" 
d="M65 700h138v-700h-138v700z" />
    <glyph glyph-name="J" unicode="J" horiz-adv-x="569" 
d="M264 -14q-165 0 -231 133l119 68q33 -66 112 -66q55 0 82 26t27 71v482h137v-482q0 -110 -69 -171t-177 -61z" />
    <glyph glyph-name="K" unicode="K" horiz-adv-x="615" 
d="M612 0h-159l-250 328v-328h-138v700h138v-309l240 309h159l-259 -340z" />
    <glyph glyph-name="L" unicode="L" horiz-adv-x="483" 
d="M203 132h267v-132h-405v700h138v-568z" />
    <glyph glyph-name="M" unicode="M" horiz-adv-x="815" 
d="M750 700v-700h-137v454l-197 -325h-16l-197 324v-453h-138v700h142l201 -331l200 331h142z" />
    <glyph glyph-name="N" unicode="N" horiz-adv-x="673" 
d="M470 700h138v-700h-105l-300 428v-428h-138v700h105l300 -427v427z" />
    <glyph glyph-name="O" unicode="O" horiz-adv-x="792" 
d="M396 -14q-152 0 -257.5 105.5t-105.5 258.5t105.5 258.5t257.5 105.5t258 -105.5t106 -258.5t-106 -258.5t-258 -105.5zM396 121q96 0 161 64.5t65 164.5t-65 165t-161 65t-161 -65t-65 -165t65 -164.5t161 -64.5z" />
    <glyph glyph-name="P" unicode="P" horiz-adv-x="590" 
d="M326 700q101 0 170 -68t69 -167t-69 -167t-170 -68h-123v-230h-138v700h261zM326 359q44 0 73 30.5t29 75.5q0 46 -29 76t-73 30h-123v-212h123z" />
    <glyph glyph-name="Q" unicode="Q" horiz-adv-x="797" 
d="M760 350q0 -136 -86 -236l72 -75l-98 -87l-76 79q-81 -45 -176 -45q-151 0 -257 105.5t-106 258.5t106 258.5t257 105.5t257.5 -105.5t106.5 -258.5zM396 121q39 0 78 13l-115 120l98 87l123 -128q42 60 42 137q0 100 -65 165t-161 65t-161 -65t-65 -165q0 -99 65 -164
t161 -65z" />
    <glyph glyph-name="R" unicode="R" horiz-adv-x="614" 
d="M449 0l-141 243h-105v-243h-138v700h280q97 0 165 -68t68 -164q0 -65 -37 -120.5t-98 -83.5l155 -264h-149zM203 571v-207h142q39 0 67 30.5t28 73.5t-28 73t-67 30h-142z" />
    <glyph glyph-name="S" unicode="S" horiz-adv-x="583" 
d="M304 -14q-104 0 -175 46.5t-100 126.5l118 69q41 -107 161 -107q58 0 85 21t27 53q0 37 -33 57.5t-118 44.5q-47 14 -79.5 28t-65 37.5t-49.5 59.5t-17 84q0 95 67.5 151.5t162.5 56.5q85 0 149.5 -41.5t100.5 -115.5l-116 -67q-42 90 -134 90q-43 0 -67.5 -19.5
t-24.5 -50.5q0 -33 27.5 -53.5t105.5 -44.5q32 -10 48.5 -15.5t45 -17t44 -21.5t35.5 -27t30.5 -35t18 -43.5t7.5 -55.5q0 -97 -70.5 -154t-183.5 -57z" />
    <glyph glyph-name="T" unicode="T" horiz-adv-x="540" 
d="M528 700v-132h-189v-568h-138v568h-188v132h515z" />
    <glyph glyph-name="U" unicode="U" horiz-adv-x="653" 
d="M326 -14q-117 0 -192 66t-75 177v471h137v-460q0 -55 31.5 -87t98.5 -32t98.5 32t31.5 87v460h138v-471q0 -111 -75 -177t-193 -66z" />
    <glyph glyph-name="V" unicode="V" horiz-adv-x="647" 
d="M238 0l-235 700h150l171 -538l170 538h151l-236 -700h-171z" />
    <glyph glyph-name="W" unicode="W" horiz-adv-x="999" 
d="M211 0l-196 700h145l134 -519l146 519h118l147 -519l134 519h145l-196 -700h-157l-132 462l-131 -462h-157z" />
    <glyph glyph-name="X" unicode="X" horiz-adv-x="610" 
d="M598 0h-157l-136 228l-136 -228h-156l214 359l-203 341h156l125 -210l125 210h156l-203 -340z" />
    <glyph glyph-name="Y" unicode="Y" horiz-adv-x="621" 
d="M619 700l-240 -427v-273h-137v273l-239 427h156l152 -292l152 292h156z" />
    <glyph glyph-name="Z" unicode="Z" horiz-adv-x="535" 
d="M212 132h297v-132h-473v110l291 458h-284v132h460v-109z" />
    <glyph glyph-name="bracketleft" unicode="[" horiz-adv-x="310" 
d="M290 676h-108v-652h108v-124h-237v900h237v-124z" />
    <glyph glyph-name="backslash" unicode="\" horiz-adv-x="523" 
d="M433 -100l-400 900h57l400 -900h-57z" />
    <glyph glyph-name="bracketright" unicode="]" horiz-adv-x="310" 
d="M257 800v-900h-237v124h108v652h-108v124h237z" />
    <glyph glyph-name="asciicircum" unicode="^" horiz-adv-x="560" 
d="M329 700l191 -330h-139l-101 182l-101 -182h-139l191 330h98z" />
    <glyph glyph-name="underscore" unicode="_" horiz-adv-x="520" 
d="M33 -171v124h455v-124h-455z" />
    <glyph glyph-name="grave" unicode="`" horiz-adv-x="275" 
d="M255 563l-80 137h-155l111 -137h124z" />
    <glyph glyph-name="a" unicode="a" 
d="M439 500h129v-500h-129v59q-58 -73 -163 -73q-100 0 -171.5 76.5t-71.5 187.5t71.5 187.5t171.5 76.5q105 0 163 -73v59zM300 109q60 0 99.5 39.5t39.5 101.5t-39.5 101.5t-99.5 39.5t-99 -39.5t-39 -101.5t39 -101.5t99 -39.5z" />
    <glyph glyph-name="b" unicode="b" 
d="M350 514q101 0 172.5 -76.5t71.5 -187.5t-71.5 -187.5t-172.5 -76.5q-105 0 -162 73v-59h-129v700h129v-259q57 73 162 73zM326 109q60 0 99.5 39.5t39.5 101.5t-39.5 101.5t-99.5 39.5t-99 -39.5t-39 -101.5t39 -101.5t99 -39.5z" />
    <glyph glyph-name="c" unicode="c" horiz-adv-x="536" 
d="M297 -14q-113 0 -188.5 76t-75.5 188t75.5 188t188.5 76q73 0 133 -35t91 -94l-111 -65q-15 31 -45.5 49t-68.5 18q-58 0 -96 -38.5t-38 -98.5q0 -59 38 -97.5t96 -38.5q39 0 69.5 17.5t45.5 48.5l112 -64q-33 -59 -93 -94.5t-133 -35.5z" />
    <glyph glyph-name="d" unicode="d" 
d="M438 700h129v-700h-129v59q-57 -73 -162 -73q-101 0 -172.5 76.5t-71.5 187.5t71.5 187.5t172.5 76.5q105 0 162 -73v259zM300 109q60 0 99 39.5t39 101.5t-39 101.5t-99 39.5t-99.5 -39.5t-39.5 -101.5t39.5 -101.5t99.5 -39.5z" />
    <glyph glyph-name="e" unicode="e" horiz-adv-x="581" 
d="M168 197q26 -94 141 -94q74 0 112 50l104 -60q-74 -107 -218 -107q-124 0 -199 75t-75 189q0 113 74 188.5t190 75.5q110 0 181.5 -76t71.5 -188q0 -25 -5 -53h-377zM166 297h255q-11 51 -45.5 76t-78.5 25q-52 0 -86 -26.5t-45 -74.5z" />
    <glyph glyph-name="f" unicode="f" horiz-adv-x="328" 
d="M328 590q-106 8 -106 -85v-5h106v-124h-106v-376h-129v376h-72v124h72v5q0 106 59 161t176 48v-124z" />
    <glyph glyph-name="g" unicode="g" 
d="M442 500h126v-476q0 -116 -76.5 -177t-184.5 -61q-81 0 -142.5 31t-94.5 91l110 63q38 -70 131 -70q61 0 96 32t35 91v54q-57 -76 -160 -76q-106 0 -177.5 74.5t-71.5 181.5q0 106 72 181t177 75q103 0 160 -76v62zM302 121q61 0 100.5 38.5t39.5 98.5q0 59 -39.5 97.5
t-100.5 38.5t-100.5 -38.5t-39.5 -97.5q0 -60 39.5 -98.5t100.5 -38.5z" />
    <glyph glyph-name="h" unicode="h" horiz-adv-x="577" 
d="M337 514q82 0 135.5 -55t53.5 -152v-307h-129v291q0 50 -27 76.5t-72 26.5q-50 0 -80 -31t-30 -93v-270h-129v700h129v-256q47 70 149 70z" />
    <glyph glyph-name="i" unicode="i" horiz-adv-x="247" 
d="M123 560q-32 0 -55.5 23.5t-23.5 55.5t23.5 56t55.5 24q33 0 56.5 -24t23.5 -56t-23.5 -55.5t-56.5 -23.5zM59 0v500h129v-500h-129z" />
    <glyph glyph-name="j" unicode="j" horiz-adv-x="264" 
d="M141 560q-33 0 -56.5 23.5t-23.5 55.5t23.5 56t56.5 24q32 0 55.5 -24t23.5 -56t-23.5 -55.5t-55.5 -23.5zM76 -10v510h129v-510q0 -110 -53.5 -160.5t-164.5 -43.5v124q46 -3 67.5 16t21.5 64z" />
    <glyph glyph-name="k" unicode="k" horiz-adv-x="525" 
d="M520 0h-150l-182 227v-227h-129v700h129v-420l172 220h154l-201 -247z" />
    <glyph glyph-name="l" unicode="l" horiz-adv-x="247" 
d="M59 0v730h129v-730h-129z" />
    <glyph glyph-name="m" unicode="m" horiz-adv-x="852" 
d="M612 514q86 0 137.5 -56t51.5 -150v-308h-129v299q0 45 -22 70t-62 25q-44 0 -68.5 -29t-24.5 -84v-281h-129v299q0 45 -22 70t-62 25q-43 0 -68.5 -29t-25.5 -84v-281h-129v500h129v-53q45 67 139 67q92 0 136 -72q50 72 149 72z" />
    <glyph glyph-name="n" unicode="n" horiz-adv-x="577" 
d="M337 514q82 0 135.5 -55t53.5 -152v-307h-129v291q0 50 -27 76.5t-72 26.5q-50 0 -80 -31t-30 -93v-270h-129v500h129v-56q47 70 149 70z" />
    <glyph glyph-name="o" unicode="o" horiz-adv-x="594" 
d="M297 -14q-111 0 -187.5 76.5t-76.5 187.5t76.5 187.5t187.5 76.5t188 -76.5t77 -187.5t-77 -187.5t-188 -76.5zM297 112q58 0 97 39t39 99t-39 99t-97 39t-96.5 -39t-38.5 -99t38.5 -99t96.5 -39z" />
    <glyph glyph-name="p" unicode="p" 
d="M350 514q101 0 172.5 -76.5t71.5 -187.5t-71.5 -187.5t-172.5 -76.5q-105 0 -162 73v-259h-129v700h129v-59q57 73 162 73zM326 109q60 0 99.5 39.5t39.5 101.5t-39.5 101.5t-99.5 39.5t-99 -39.5t-39 -101.5t39 -101.5t99 -39.5z" />
    <glyph glyph-name="q" unicode="q" 
d="M438 500h129v-700h-129v259q-57 -73 -162 -73q-101 0 -172.5 76.5t-71.5 187.5t71.5 187.5t172.5 76.5q105 0 162 -73v59zM300 109q60 0 99 39.5t39 101.5t-39 101.5t-99 39.5t-99.5 -39.5t-39.5 -101.5t39.5 -101.5t99.5 -39.5z" />
    <glyph glyph-name="r" unicode="r" horiz-adv-x="356" 
d="M188 414q18 48 59.5 72t92.5 24v-144q-59 7 -105.5 -24t-46.5 -103v-239h-129v500h129v-86z" />
    <glyph glyph-name="s" unicode="s" horiz-adv-x="465" 
d="M178 358q0 -20 26.5 -32.5t64.5 -22t76 -24t64.5 -48.5t26.5 -85q0 -77 -57.5 -118.5t-143.5 -41.5q-154 0 -210 119l112 63q22 -65 98 -65q69 0 69 43q0 20 -26.5 32.5t-64.5 22.5t-76 25t-64.5 47.5t-26.5 81.5q0 74 54.5 116.5t135.5 42.5q61 0 111 -27.5t79 -78.5
l-110 -60q-24 51 -80 51q-25 0 -41.5 -11t-16.5 -30z" />
    <glyph glyph-name="t" unicode="t" horiz-adv-x="385" 
d="M345 376h-113v-208q0 -26 13 -38t38 -13.5t62 0.5v-117q-133 -15 -187.5 25t-54.5 143v208h-87v124h87v101l129 39v-140h113v-124z" />
    <glyph glyph-name="u" unicode="u" horiz-adv-x="577" 
d="M389 500h129v-500h-129v56q-47 -70 -149 -70q-82 0 -135.5 55t-53.5 152v307h129v-291q0 -50 27 -76.5t72 -26.5q50 0 80 31t30 93v270z" />
    <glyph glyph-name="v" unicode="v" horiz-adv-x="533" 
d="M388 500h142l-190 -500h-147l-190 500h142l121 -350z" />
    <glyph glyph-name="w" unicode="w" horiz-adv-x="770" 
d="M622 500h137l-159 -500h-123l-92 303l-92 -303h-123l-159 500h137l85 -307l91 307h122l91 -308z" />
    <glyph glyph-name="x" unicode="x" horiz-adv-x="525" 
d="M520 0h-149l-108 152l-109 -152h-149l183 255l-175 245h149l101 -141l101 141h148l-175 -244z" />
    <glyph glyph-name="y" unicode="y" horiz-adv-x="525" 
d="M385 500h138l-182 -500q-39 -108 -103.5 -156.5t-160.5 -43.5v120q52 -1 82.5 22t48.5 74l-205 484h141l130 -336z" />
    <glyph glyph-name="z" unicode="z" horiz-adv-x="474" 
d="M216 121h222v-121h-395v86l211 293h-201v121h375v-86z" />
    <glyph glyph-name="braceleft" unicode="{" horiz-adv-x="359" 
d="M339 -107q-210 -15 -210 186v148q0 41 -19 53t-60 9v125q41 -3 60 9t19 53v148q0 201 210 186v-124q-42 5 -61.5 -8t-19.5 -54v-148q0 -91 -60 -124q60 -34 60 -125v-148q0 -41 19.5 -54t61.5 -8v-124z" />
    <glyph glyph-name="bar" unicode="|" horiz-adv-x="259" 
d="M65 -200v920h129v-920h-129z" />
    <glyph glyph-name="braceright" unicode="}" horiz-adv-x="359" 
d="M20 -107v124q42 -5 61.5 8t19.5 54v148q0 91 60 125q-60 33 -60 124v148q0 41 -19.5 54t-61.5 8v124q210 15 210 -186v-148q0 -41 19 -53t60 -9v-125q-41 3 -60 -9t-19 -53v-148q0 -201 -210 -186z" />
    <glyph glyph-name="asciitilde" unicode="~" horiz-adv-x="599" 
d="M449 443l105 -51q-26 -99 -95 -128t-155 15q-40 19 -63.5 26.5t-42 5.5t-28.5 -15.5t-20 -40.5l-105 50q26 98 95 127.5t155 -13.5q53 -25 80 -31t44 6.5t30 48.5z" />
    <glyph glyph-name="exclamdown" unicode="&#xa1;" horiz-adv-x="268" 
d="M134 513q35 0 60 -25t25 -60t-25 -60t-60 -25t-60 25t-25 60t25 60t60 25zM83 265h102l26 -265v-200h-155v200z" />
    <glyph glyph-name="cent" unicode="&#xa2;" horiz-adv-x="536" 
d="M411 280l112 -64q-33 -59 -93 -94.5t-133 -35.5q-34 0 -61 7l-30 -93h-58l35 110q-69 31 -109.5 95t-40.5 145q0 112 75.5 188t188.5 76q27 0 48 -4l29 90h58l-34 -106q83 -33 123 -109l-111 -65q-17 35 -52 52l-82 -257q6 -1 20 -1q39 0 69.5 17.5t45.5 48.5zM162 350
q0 -78 61 -116l82 253h-9q-58 0 -96 -38.5t-38 -98.5z" />
    <glyph glyph-name="sterling" unicode="&#xa3;" horiz-adv-x="581" 
d="M243 133h327v-133h-537v133h73v141h-61v121h61v100q0 106 65.5 162.5t154.5 56.5q76 0 132.5 -38.5t84.5 -107.5l-119 -68q-26 80 -95 80q-37 0 -61.5 -23t-24.5 -67v-95h203v-121h-203v-141z" />
    <glyph glyph-name="currency" unicode="&#xa4;" horiz-adv-x="543" 
d="M486 350q0 -75 -45 -131l70 -70l-38 -38l-71 71q-54 -42 -130 -42q-74 0 -131 41l-70 -70l-38 38l69 70q-45 56 -45 131q0 74 45 132l-69 69l38 38l70 -70q58 42 131 42q72 0 130 -42l71 70l38 -38l-70 -70q45 -58 45 -131zM272 262q38 0 62.5 25t24.5 63
q0 39 -24.5 63.5t-62.5 24.5q-39 0 -63 -24.5t-24 -63.5t24 -63.5t63 -24.5z" />
    <glyph glyph-name="yen" unicode="&#xa5;" horiz-adv-x="601" 
d="M619 700l-190 -338h102v-80h-147l-5 -9v-36h152v-81h-152v-156h-137v156h-171v81h171v36l-5 9h-166v80h121l-189 338h156l152 -292l152 292h156z" />
    <glyph glyph-name="brokenbar" unicode="&#xa6;" horiz-adv-x="259" 
d="M65 350v370h129v-370h-129zM65 -200v370h129v-370h-129z" />
    <glyph glyph-name="section" unicode="&#xa7;" horiz-adv-x="542" 
d="M505 284q0 -77 -59 -128q33 -41 33 -100q0 -80 -57 -124t-144 -44q-168 0 -221 126l115 66q27 -78 106 -78q72 0 72 54q0 9 -4 17t-12.5 15.5t-17.5 13.5t-24.5 12.5t-27 11.5t-31 12.5t-31.5 12.5q-70 30 -111.5 69t-41.5 105q0 78 62 125q-30 39 -30 99q0 77 55.5 121
t135.5 44q66 0 119.5 -32t80.5 -94l-106 -58q-32 70 -94 70q-28 0 -45 -13.5t-17 -37.5q0 -19 18.5 -36t37.5 -25.5t61 -25.5q13 -5 20 -8q34 -14 58 -27t49 -33t38 -48t13 -62zM178 332q0 -47 81 -78q5 -2 40 -14.5t54 -20.5q23 20 23 50q0 29 -22 46.5t-67 35.5
q-73 27 -85 32q-24 -18 -24 -51z" />
    <glyph glyph-name="dieresis" unicode="&#xa8;" horiz-adv-x="365" 
d="M88 549q-28 0 -48 19.5t-20 47.5t20 48t48 20t47.5 -20t19.5 -48t-19.5 -47.5t-47.5 -19.5zM278 549q-28 0 -48 19.5t-20 47.5t20 48t48 20t47.5 -20t19.5 -48t-19.5 -47.5t-47.5 -19.5z" />
    <glyph glyph-name="copyright" unicode="&#xa9;" horiz-adv-x="789" 
d="M395 -12q-150 0 -256 106t-106 256t106 256t256 106t256 -106t106 -256t-106 -256t-256 -106zM395 22q134 0 229 96t95 232t-95 232t-229 96q-135 0 -230 -96t-95 -232t95 -232t230 -96zM398 154q-82 0 -140 58t-58 138t58 138t140 58q52 0 97 -25.5t70 -70.5l-96 -56
q-21 41 -74 41q-38 0 -61 -25t-23 -60t23 -60t61 -25q52 0 74 42l97 -57q-25 -44 -70.5 -70t-97.5 -26z" />
    <glyph glyph-name="guillemotleft" unicode="&#xab;" horiz-adv-x="545" 
d="M292 497l-110 -188l110 -187h-119l-110 187l110 188h119zM482 497l-110 -188l110 -187h-119l-110 187l110 188h119z" />
    <glyph glyph-name="logicalnot" unicode="&#xac;" horiz-adv-x="550" 
d="M45 411h460v-240h-129v119h-331v121z" />
    <glyph glyph-name="registered" unicode="&#xae;" horiz-adv-x="789" 
d="M395 712q150 0 256 -106t106 -256t-106 -256t-256 -106t-256 106t-106 256t106 256t256 106zM395 22q134 0 229 96t95 232t-95 232t-229 96q-135 0 -230 -96t-95 -232t95 -232t230 -96zM550 412q0 -72 -55 -111l76 -136h-115l-53 110h-38v-110h-107v370h149
q61 0 102 -34.5t41 -88.5zM365 438v-73h33q21 0 33 10t12 26q0 37 -45 37h-33z" />
    <glyph glyph-name="macron" unicode="&#xaf;" horiz-adv-x="330" 
d="M20 564v105h290v-105h-290z" />
    <glyph glyph-name="degree" unicode="&#xb0;" horiz-adv-x="401" 
d="M201 480q-72 0 -120 48.5t-48 116.5q0 69 48 117t120 48t120 -48t48 -117t-47.5 -117t-120.5 -48zM201 585q26 0 42.5 17t16.5 43t-16.5 43t-42.5 17t-42.5 -17t-16.5 -43t16.5 -43t42.5 -17z" />
    <glyph glyph-name="plusminus" unicode="&#xb1;" horiz-adv-x="555" 
d="M338 502h165v-121h-165v-146h-121v146h-164v121h164v146h121v-146zM53 53v121h450v-121h-450z" />
    <glyph glyph-name="acute" unicode="&#xb4;" horiz-adv-x="275" 
d="M20 563h124l111 137h-155z" />
    <glyph glyph-name="uni00B5" unicode="&#xb5;" horiz-adv-x="617" 
d="M558 121h36v-121h-60q-75 0 -111 50q-47 -64 -145 -64q-52 0 -90 22v-208h-129v700h129v-290q0 -50 27 -77t72 -27q50 0 80 31t30 93v270h129v-347q0 -32 32 -32z" />
    <glyph glyph-name="paragraph" unicode="&#xb6;" horiz-adv-x="669" 
d="M623 700v-113h-62v-787h-121v787h-79v-787h-121v470q-89 0 -152 63t-63 152t63 152t152 63h383z" />
    <glyph glyph-name="periodcentered" unicode="&#xb7;" horiz-adv-x="268" 
d="M134 262q-35 0 -60 25t-25 60t25 60t60 25t60 -25t25 -60t-25 -60t-60 -25z" />
    <glyph glyph-name="cedilla" unicode="&#xb8;" horiz-adv-x="260" 
d="M170 -46q29 -7 49.5 -26.5t20.5 -51.5q0 -105 -220 -92v91q108 -7 108 20q0 20 -63 25v80h105v-46z" />
    <glyph glyph-name="guillemotright" unicode="&#xbb;" horiz-adv-x="545" 
d="M182 497l110 -188l-110 -187h-119l110 187l-110 188h119zM372 497l110 -188l-110 -187h-119l110 187l-110 188h119z" />
    <glyph glyph-name="onequarter" unicode="&#xbc;" horiz-adv-x="814" 
d="M217 300h-107v292l-82 -23l-25 88l120 43h94v-400zM517 700h90l-400 -700h-90zM798 162v-98h-41v-64h-102v64h-187v98l129 238h114l-123 -238h67v69h102v-69h41z" />
    <glyph glyph-name="onehalf" unicode="&#xbd;" horiz-adv-x="813" 
d="M217 300h-107v292l-82 -23l-25 88l120 43h94v-400zM517 700h90l-400 -700h-90zM641 97h139v-97h-299v70l150 149q35 33 35 61q0 16 -11 26t-30 10q-41 0 -62 -51l-87 50q42 99 150 99q64 0 106 -35.5t42 -90.5q0 -61 -68 -129z" />
    <glyph glyph-name="threequarters" unicode="&#xbe;" horiz-adv-x="895" 
d="M321 421q0 -65 -41 -100t-114 -35q-116 0 -156 89l90 52q17 -47 66 -47q48 0 48 41q0 18 -14 29t-37 11h-19l-40 58l69 84h-145v97h275v-79l-72 -86q43 -12 66.5 -41.5t23.5 -72.5zM598 700h90l-400 -700h-90zM879 162v-98h-41v-64h-102v64h-187v98l129 238h114
l-123 -238h67v69h102v-69h41z" />
    <glyph glyph-name="questiondown" unicode="&#xbf;" horiz-adv-x="553" 
d="M289 513q35 0 60 -25t25 -60t-25 -60t-60 -25t-60 25t-25 60t25 60t60 25zM358 265q0 -36 -17.5 -68.5t-42 -56.5t-49 -46t-42 -48t-17.5 -53q0 -35 24 -54t67 -19q84 0 119 89l118 -68q-30 -74 -95.5 -114.5t-146.5 -40.5q-91 0 -157.5 52.5t-66.5 144.5q0 42 17.5 78
t42 61.5t49 48t42 46.5t17.5 48h138z" />
    <glyph glyph-name="Agrave" unicode="&#xc0;" horiz-adv-x="668" 
d="M416 763h-124l-111 137h155zM515 0l-42 126h-279l-42 -126h-149l245 700h171l246 -700h-150zM238 255h192l-96 286z" />
    <glyph glyph-name="Aacute" unicode="&#xc1;" horiz-adv-x="668" 
d="M489 900l-111 -137h-124l80 137h155zM515 0l-42 126h-279l-42 -126h-149l245 700h171l246 -700h-150zM238 255h192l-96 286z" />
    <glyph glyph-name="Acircumflex" unicode="&#xc2;" horiz-adv-x="668" 
d="M331 820l-44 -65h-128l106 145h131l106 -145h-128zM515 0l-42 126h-279l-42 -126h-149l245 700h171l246 -700h-150zM238 255h192l-96 286z" />
    <glyph glyph-name="Atilde" unicode="&#xc3;" horiz-adv-x="668" 
d="M321 784q-29 20 -41 16t-12 -40h-104q0 46 10.5 78.5t28.5 48.5t41.5 20.5t49.5 -2.5t52 -24q29 -20 40.5 -16t11.5 40h105q0 -57 -16.5 -93.5t-43 -48t-58 -6t-64.5 26.5zM515 0l-42 126h-279l-42 -126h-149l245 700h171l246 -700h-150zM238 255h192l-96 286z" />
    <glyph glyph-name="Adieresis" unicode="&#xc4;" horiz-adv-x="668" 
d="M239 749q-28 0 -48 19.5t-20 47.5t20 48t48 20t47.5 -20t19.5 -48t-19.5 -47.5t-47.5 -19.5zM429 749q-28 0 -48 19.5t-20 47.5t20 48t48 20t47.5 -20t19.5 -48t-19.5 -47.5t-47.5 -19.5zM515 0l-42 126h-279l-42 -126h-149l245 700h171l246 -700h-150zM238 255h192
l-96 286z" />
    <glyph glyph-name="Aring" unicode="&#xc5;" horiz-adv-x="668" 
d="M515 0l-42 126h-279l-42 -126h-149l239 684q-34 34 -34 84q0 51 35.5 84.5t90.5 33.5q56 0 91 -33.5t35 -84.5q0 -52 -35 -85l240 -683h-150zM334 805q-18 0 -28.5 -10.5t-10.5 -26.5q0 -17 10.5 -27.5t28.5 -10.5q40 0 40 38q0 37 -40 37zM238 255h192l-96 286z" />
    <glyph glyph-name="AE" unicode="&#xc6;" horiz-adv-x="880" 
d="M584 132h264v-132h-398v126h-221l-74 -126h-155l414 700h429v-132h-259v-149h236v-130h-236v-157zM305 255h145v246z" />
    <glyph glyph-name="Ccedilla" unicode="&#xc7;" horiz-adv-x="726" 
d="M397 121q60 0 108.5 26.5t73.5 72.5l119 -69q-38 -64 -101.5 -106t-141.5 -55v-36q29 -7 49.5 -26.5t20.5 -51.5q0 -105 -220 -92v91q108 -7 108 20q0 20 -63 25v69q-140 16 -228.5 117.5t-88.5 243.5q0 155 103 259.5t261 104.5q95 0 175.5 -44.5t125.5 -120.5l-119 -69
q-26 47 -74 73.5t-108 26.5q-102 0 -164.5 -64t-62.5 -166q0 -101 62.5 -165t164.5 -64z" />
    <glyph glyph-name="Egrave" unicode="&#xc8;" horiz-adv-x="530" 
d="M361 763h-124l-111 137h155zM203 132h295v-132h-433v700h428v-132h-290v-149h265v-130h-265v-157z" />
    <glyph glyph-name="Eacute" unicode="&#xc9;" horiz-adv-x="530" 
d="M434 900l-111 -137h-124l80 137h155zM203 132h295v-132h-433v700h428v-132h-290v-149h265v-130h-265v-157z" />
    <glyph glyph-name="Ecircumflex" unicode="&#xca;" horiz-adv-x="530" 
d="M276 820l-44 -65h-128l106 145h131l106 -145h-128zM203 132h295v-132h-433v700h428v-132h-290v-149h265v-130h-265v-157z" />
    <glyph glyph-name="Edieresis" unicode="&#xcb;" horiz-adv-x="530" 
d="M184 749q-28 0 -48 19.5t-20 47.5t20 48t48 20t47.5 -20t19.5 -48t-19.5 -47.5t-47.5 -19.5zM374 749q-28 0 -48 19.5t-20 47.5t20 48t48 20t47.5 -20t19.5 -48t-19.5 -47.5t-47.5 -19.5zM203 132h295v-132h-433v700h428v-132h-290v-149h265v-130h-265v-157z" />
    <glyph glyph-name="Igrave" unicode="&#xcc;" horiz-adv-x="268" 
d="M216 763l-80 137h-155l111 -137h124zM65 700h138v-700h-138v700z" />
    <glyph glyph-name="Iacute" unicode="&#xcd;" horiz-adv-x="268" 
d="M54 763h124l111 137h-155zM65 700h138v-700h-138v700z" />
    <glyph glyph-name="Icircumflex" unicode="&#xce;" horiz-adv-x="268" 
d="M131 820l-44 -65h-128l106 145h131l106 -145h-128zM65 0v700h138v-700h-138z" />
    <glyph glyph-name="Idieresis" unicode="&#xcf;" horiz-adv-x="268" 
d="M39 749q-28 0 -48 19.5t-20 47.5t20 48t48 20t47.5 -20t19.5 -48t-19.5 -47.5t-47.5 -19.5zM229 749q-28 0 -48 19.5t-20 47.5t20 48t48 20t47.5 -20t19.5 -48t-19.5 -47.5t-47.5 -19.5zM65 700h138v-700h-138v700z" />
    <glyph glyph-name="Eth" unicode="&#xd0;" horiz-adv-x="748" 
d="M378 700q144 0 240.5 -101t96.5 -249t-96.5 -249t-240.5 -101h-278v281h-78v124h78v295h278zM378 132q91 0 148 60.5t57 157.5t-57 157.5t-148 60.5h-140v-163h159v-124h-159v-149h140z" />
    <glyph glyph-name="Ntilde" unicode="&#xd1;" horiz-adv-x="673" 
d="M159 760q0 46 10.5 78.5t28.5 48.5t41.5 20.5t49.5 -2.5t52 -24q29 -20 40.5 -16t11.5 40h105q0 -57 -16.5 -93.5t-43 -48t-58 -6t-64.5 26.5q-29 20 -41 16t-12 -40h-104zM470 700h138v-700h-105l-300 428v-428h-138v700h105l300 -427v427z" />
    <glyph glyph-name="Ograve" unicode="&#xd2;" horiz-adv-x="792" 
d="M478 771l-80 137h-155l111 -137h124zM396 -14q-152 0 -257.5 105.5t-105.5 258.5t105.5 258.5t257.5 105.5t258 -105.5t106 -258.5t-106 -258.5t-258 -105.5zM396 121q96 0 161 64.5t65 164.5t-65 165t-161 65t-161 -65t-65 -165t65 -164.5t161 -64.5z" />
    <glyph glyph-name="Oacute" unicode="&#xd3;" horiz-adv-x="792" 
d="M316 771h124l111 137h-155zM396 -14q-152 0 -257.5 105.5t-105.5 258.5t105.5 258.5t257.5 105.5t258 -105.5t106 -258.5t-106 -258.5t-258 -105.5zM396 121q96 0 161 64.5t65 164.5t-65 165t-161 65t-161 -65t-65 -165t65 -164.5t161 -64.5z" />
    <glyph glyph-name="Ocircumflex" unicode="&#xd4;" horiz-adv-x="792" 
d="M393 828l-44 -65h-128l106 145h131l106 -145h-128zM396 714q152 0 258 -105.5t106 -258.5t-106 -258.5t-258 -105.5t-257.5 105.5t-105.5 258.5t105.5 258.5t257.5 105.5zM396 121q96 0 161 64.5t65 164.5t-65 165t-161 65t-161 -65t-65 -165t65 -164.5t161 -64.5z" />
    <glyph glyph-name="Otilde" unicode="&#xd5;" horiz-adv-x="792" 
d="M226 768q0 46 10.5 78.5t28.5 48.5t41.5 20.5t49.5 -2.5t52 -24q29 -20 40.5 -16t11.5 40h105q0 -57 -16.5 -93.5t-43 -48t-58 -6t-64.5 26.5q-29 20 -41 16t-12 -40h-104zM396 -14q-152 0 -257.5 105.5t-105.5 258.5t105.5 258.5t257.5 105.5t258 -105.5t106 -258.5
t-106 -258.5t-258 -105.5zM396 121q96 0 161 64.5t65 164.5t-65 165t-161 65t-161 -65t-65 -165t65 -164.5t161 -64.5z" />
    <glyph glyph-name="Odieresis" unicode="&#xd6;" horiz-adv-x="792" 
d="M301 757q-28 0 -48 19.5t-20 47.5t20 48t48 20t47.5 -20t19.5 -48t-19.5 -47.5t-47.5 -19.5zM491 757q-28 0 -48 19.5t-20 47.5t20 48t48 20t47.5 -20t19.5 -48t-19.5 -47.5t-47.5 -19.5zM396 -14q-152 0 -257.5 105.5t-105.5 258.5t105.5 258.5t257.5 105.5t258 -105.5
t106 -258.5t-106 -258.5t-258 -105.5zM396 121q96 0 161 64.5t65 164.5t-65 165t-161 65t-161 -65t-65 -165t65 -164.5t161 -64.5z" />
    <glyph glyph-name="multiply" unicode="&#xd7;" horiz-adv-x="512" 
d="M462 471l-121 -121l121 -121l-86 -84l-120 120l-120 -120l-86 84l121 121l-121 121l86 84l120 -120l120 120z" />
    <glyph glyph-name="Oslash" unicode="&#xd8;" horiz-adv-x="798" 
d="M664 605q102 -105 102 -255q0 -153 -106 -258.5t-258 -105.5q-111 0 -201 60l-47 -57l-68 40l55 66q-102 107 -102 255q0 153 105.5 258.5t257.5 105.5q110 0 202 -60l47 57l68 -39zM176 350q0 -89 52 -150l290 350q-54 30 -116 30q-96 0 -161 -65t-65 -165zM402 121
q96 0 161 64.5t65 164.5q0 88 -51 150l-290 -350q52 -29 115 -29z" />
    <glyph glyph-name="Ugrave" unicode="&#xd9;" horiz-adv-x="653" 
d="M408 763l-80 137h-155l111 -137h124zM326 -14q-117 0 -192 66t-75 177v471h137v-460q0 -55 31.5 -87t98.5 -32t98.5 32t31.5 87v460h138v-471q0 -111 -75 -177t-193 -66z" />
    <glyph glyph-name="Uacute" unicode="&#xda;" horiz-adv-x="653" 
d="M246 763h124l111 137h-155zM326 -14q-117 0 -192 66t-75 177v471h137v-460q0 -55 31.5 -87t98.5 -32t98.5 32t31.5 87v460h138v-471q0 -111 -75 -177t-193 -66z" />
    <glyph glyph-name="Ucircumflex" unicode="&#xdb;" horiz-adv-x="653" 
d="M323 820l-44 -65h-128l106 145h131l106 -145h-128zM456 700h138v-471q0 -111 -75 -177t-193 -66q-117 0 -192 66t-75 177v471h137v-460q0 -55 31.5 -87t98.5 -32t98.5 32t31.5 87v460z" />
    <glyph glyph-name="Udieresis" unicode="&#xdc;" horiz-adv-x="653" 
d="M231 749q-28 0 -48 19.5t-20 47.5t20 48t48 20t47.5 -20t19.5 -48t-19.5 -47.5t-47.5 -19.5zM421 749q-28 0 -48 19.5t-20 47.5t20 48t48 20t47.5 -20t19.5 -48t-19.5 -47.5t-47.5 -19.5zM326 -14q-117 0 -192 66t-75 177v471h137v-460q0 -55 31.5 -87t98.5 -32t98.5 32
t31.5 87v460h138v-471q0 -111 -75 -177t-193 -66z" />
    <glyph glyph-name="Yacute" unicode="&#xdd;" horiz-adv-x="621" 
d="M465 900l-111 -137h-124l80 137h155zM619 700l-240 -427v-273h-137v273l-239 427h156l152 -292l152 292h156z" />
    <glyph glyph-name="Thorn" unicode="&#xde;" horiz-adv-x="590" 
d="M330 585q98 0 166.5 -68.5t68.5 -166.5t-68.5 -166.5t-166.5 -68.5h-127v-115h-138v700h138v-115h127zM330 244q41 0 69.5 30.5t28.5 75.5t-28.5 75.5t-69.5 30.5h-127v-212h127z" />
    <glyph glyph-name="germandbls" unicode="&#xdf;" horiz-adv-x="537" 
d="M279 -6v114q113 -11 113 59q0 28 -30 69.5t-59.5 83t-29.5 70.5q0 27 31.5 70t31.5 72q0 27 -18.5 45.5t-49.5 18.5q-35 0 -57.5 -22t-22.5 -65v-509h-129v508q0 94 58 150t156 56q88 0 140 -47.5t52 -114.5q0 -36 -15 -65.5t-30 -51t-15 -37.5q0 -19 18 -48t40 -56
t40 -68t18 -81q0 -77 -56.5 -120t-185.5 -31z" />
    <glyph glyph-name="agrave" unicode="&#xe0;" 
d="M391 563h-124l-111 137h155zM439 500h129v-500h-129v59q-58 -73 -163 -73q-100 0 -171.5 76.5t-71.5 187.5t71.5 187.5t171.5 76.5q105 0 163 -73v59zM300 109q60 0 99.5 39.5t39.5 101.5t-39.5 101.5t-99.5 39.5t-99 -39.5t-39 -101.5t39 -101.5t99 -39.5z" />
    <glyph glyph-name="aacute" unicode="&#xe1;" 
d="M464 700l-111 -137h-124l80 137h155zM439 500h129v-500h-129v59q-58 -73 -163 -73q-100 0 -171.5 76.5t-71.5 187.5t71.5 187.5t171.5 76.5q105 0 163 -73v59zM300 109q60 0 99.5 39.5t39.5 101.5t-39.5 101.5t-99.5 39.5t-99 -39.5t-39 -101.5t39 -101.5t99 -39.5z" />
    <glyph glyph-name="acircumflex" unicode="&#xe2;" 
d="M306 620l-44 -65h-128l106 145h131l106 -145h-128zM439 500h129v-500h-129v59q-58 -73 -163 -73q-100 0 -171.5 76.5t-71.5 187.5t71.5 187.5t171.5 76.5q105 0 163 -73v59zM300 109q60 0 99.5 39.5t39.5 101.5t-39.5 101.5t-99.5 39.5t-99 -39.5t-39 -101.5t39 -101.5
t99 -39.5z" />
    <glyph glyph-name="atilde" unicode="&#xe3;" 
d="M296 584q-29 20 -41 16t-12 -40h-104q0 46 10.5 78.5t28.5 48.5t41.5 20.5t49.5 -2.5t52 -24q29 -20 40.5 -16t11.5 40h105q0 -57 -16.5 -93.5t-43 -48t-58 -6t-64.5 26.5zM439 500h129v-500h-129v59q-58 -73 -163 -73q-100 0 -171.5 76.5t-71.5 187.5t71.5 187.5
t171.5 76.5q105 0 163 -73v59zM300 109q60 0 99.5 39.5t39.5 101.5t-39.5 101.5t-99.5 39.5t-99 -39.5t-39 -101.5t39 -101.5t99 -39.5z" />
    <glyph glyph-name="adieresis" unicode="&#xe4;" 
d="M214 549q-28 0 -48 19.5t-20 47.5t20 48t48 20t47.5 -20t19.5 -48t-19.5 -47.5t-47.5 -19.5zM404 549q-28 0 -48 19.5t-20 47.5t20 48t48 20t47.5 -20t19.5 -48t-19.5 -47.5t-47.5 -19.5zM439 500h129v-500h-129v59q-58 -73 -163 -73q-100 0 -171.5 76.5t-71.5 187.5
t71.5 187.5t171.5 76.5q105 0 163 -73v59zM300 109q60 0 99.5 39.5t39.5 101.5t-39.5 101.5t-99.5 39.5t-99 -39.5t-39 -101.5t39 -101.5t99 -39.5z" />
    <glyph glyph-name="aring" unicode="&#xe5;" 
d="M309 539q-55 0 -90.5 34t-35.5 85t35.5 84.5t90.5 33.5q56 0 91 -33.5t35 -84.5q0 -52 -35 -85.5t-91 -33.5zM309 695q-18 0 -28.5 -10.5t-10.5 -26.5q0 -17 10.5 -27.5t28.5 -10.5q40 0 40 38q0 37 -40 37zM439 500h129v-500h-129v59q-58 -73 -163 -73
q-100 0 -171.5 76.5t-71.5 187.5t71.5 187.5t171.5 76.5q105 0 163 -73v59zM300 109q60 0 99.5 39.5t39.5 101.5t-39.5 101.5t-99.5 39.5t-99 -39.5t-39 -101.5t39 -101.5t99 -39.5z" />
    <glyph glyph-name="ae" unicode="&#xe6;" horiz-adv-x="988" 
d="M575 197q14 -47 51 -70.5t89 -23.5q75 0 113 50l104 -60q-74 -107 -202 -107q-106 0 -170 77v-63h-121v59q-58 -73 -163 -73q-100 0 -171.5 76.5t-71.5 187.5t71.5 187.5t171.5 76.5q105 0 163 -73v59h121v-62q63 76 166 76q108 0 169.5 -75t61.5 -189q0 -25 -5 -53h-377
zM573 298h255q-11 51 -44.5 75.5t-78.5 24.5q-51 0 -85.5 -26t-46.5 -74zM300 109q60 0 99.5 39.5t39.5 101.5t-39.5 101.5t-99.5 39.5t-99 -39.5t-39 -101.5t39 -101.5t99 -39.5z" />
    <glyph glyph-name="ccedilla" unicode="&#xe7;" horiz-adv-x="536" 
d="M523 116q-26 -47 -70 -79.5t-98 -44.5v-38q29 -7 49.5 -26.5t20.5 -51.5q0 -105 -220 -92v91q108 -7 108 20q0 20 -63 25v70q-96 16 -156.5 88t-60.5 172q0 112 75.5 188t188.5 76q73 0 133 -35t91 -94l-111 -65q-15 31 -45.5 49t-68.5 18q-58 0 -96 -38.5t-38 -98.5
q0 -59 38 -97.5t96 -38.5q39 0 69.5 17.5t45.5 48.5z" />
    <glyph glyph-name="egrave" unicode="&#xe8;" horiz-adv-x="581" 
d="M373 567h-124l-111 137h155zM168 197q26 -94 141 -94q74 0 112 50l104 -60q-74 -107 -218 -107q-124 0 -199 75t-75 189q0 113 74 188.5t190 75.5q110 0 181.5 -76t71.5 -188q0 -25 -5 -53h-377zM166 297h255q-11 51 -45.5 76t-78.5 25q-52 0 -86 -26.5t-45 -74.5z" />
    <glyph glyph-name="eacute" unicode="&#xe9;" horiz-adv-x="581" 
d="M446 704l-111 -137h-124l80 137h155zM168 197q26 -94 141 -94q74 0 112 50l104 -60q-74 -107 -218 -107q-124 0 -199 75t-75 189q0 113 74 188.5t190 75.5q110 0 181.5 -76t71.5 -188q0 -25 -5 -53h-377zM166 297h255q-11 51 -45.5 76t-78.5 25q-52 0 -86 -26.5
t-45 -74.5z" />
    <glyph glyph-name="ecircumflex" unicode="&#xea;" horiz-adv-x="581" 
d="M288 624l-44 -65h-128l106 145h131l106 -145h-128zM168 197q26 -94 141 -94q74 0 112 50l104 -60q-74 -107 -218 -107q-124 0 -199 75t-75 189q0 113 74 188.5t190 75.5q110 0 181.5 -76t71.5 -188q0 -25 -5 -53h-377zM166 297h255q-11 51 -45.5 76t-78.5 25
q-52 0 -86 -26.5t-45 -74.5z" />
    <glyph glyph-name="edieresis" unicode="&#xeb;" horiz-adv-x="581" 
d="M196 553q-28 0 -48 19.5t-20 47.5t20 48t48 20t47.5 -20t19.5 -48t-19.5 -47.5t-47.5 -19.5zM386 553q-28 0 -48 19.5t-20 47.5t20 48t48 20t47.5 -20t19.5 -48t-19.5 -47.5t-47.5 -19.5zM168 197q26 -94 141 -94q74 0 112 50l104 -60q-74 -107 -218 -107q-124 0 -199 75
t-75 189q0 113 74 188.5t190 75.5q110 0 181.5 -76t71.5 -188q0 -25 -5 -53h-377zM166 297h255q-11 51 -45.5 76t-78.5 25q-52 0 -86 -26.5t-45 -74.5z" />
    <glyph glyph-name="igrave" unicode="&#xec;" horiz-adv-x="247" 
d="M184 555l-43 145h-148l67 -145h124zM188 0h-129v500h129v-500z" />
    <glyph glyph-name="iacute" unicode="&#xed;" horiz-adv-x="247" 
d="M60 555h124l66 145h-148zM59 0v500h129v-500h-129z" />
    <glyph glyph-name="icircumflex" unicode="&#xee;" horiz-adv-x="247" 
d="M124 609l-32 -54h-128l94 145h131l93 -145h-127zM59 0v500h129v-500h-129z" />
    <glyph glyph-name="idieresis" unicode="&#xef;" horiz-adv-x="247" 
d="M38 553q-28 0 -47.5 19.5t-19.5 47.5t19.5 48t47.5 20t48 -20t20 -48t-20 -47.5t-48 -19.5zM208 553q-28 0 -47.5 19.5t-19.5 47.5t19.5 48t47.5 20t48 -20t20 -48t-20 -47.5t-48 -19.5zM59 0v500h129v-500h-129z" />
    <glyph glyph-name="eth" unicode="&#xf0;" horiz-adv-x="571" 
d="M493 370q46 -63 46 -140q0 -110 -74 -176t-179 -66t-179 66t-74 176q0 99 71.5 165.5t171.5 59.5l-58 80l-127 -63v90l79 39l-72 99h149l33 -44l118 58v-90l-69 -34zM286 109q54 0 89 32.5t35 88.5q0 40 -21 70q-37 47 -103 47q-55 0 -89.5 -32t-34.5 -85
q0 -56 34.5 -88.5t89.5 -32.5z" />
    <glyph glyph-name="ntilde" unicode="&#xf1;" horiz-adv-x="577" 
d="M285 592q-29 20 -41 16t-12 -40h-104q0 46 10.5 78.5t28.5 48.5t41.5 20.5t49.5 -2.5t52 -24q29 -20 40.5 -16t11.5 40h105q0 -57 -16.5 -93.5t-43 -48t-58 -6t-64.5 26.5zM337 514q82 0 135.5 -55t53.5 -152v-307h-129v291q0 50 -27 76.5t-72 26.5q-50 0 -80 -31
t-30 -93v-270h-129v500h129v-56q47 70 149 70z" />
    <glyph glyph-name="ograve" unicode="&#xf2;" horiz-adv-x="594" 
d="M379 571l-80 137h-155l111 -137h124zM297 -14q-111 0 -187.5 76.5t-76.5 187.5t76.5 187.5t187.5 76.5t188 -76.5t77 -187.5t-77 -187.5t-188 -76.5zM297 112q58 0 97 39t39 99t-39 99t-97 39t-96.5 -39t-38.5 -99t38.5 -99t96.5 -39z" />
    <glyph glyph-name="oacute" unicode="&#xf3;" horiz-adv-x="594" 
d="M217 571h124l111 137h-155zM297 -14q-111 0 -187.5 76.5t-76.5 187.5t76.5 187.5t187.5 76.5t188 -76.5t77 -187.5t-77 -187.5t-188 -76.5zM297 112q58 0 97 39t39 99t-39 99t-97 39t-96.5 -39t-38.5 -99t38.5 -99t96.5 -39z" />
    <glyph glyph-name="ocircumflex" unicode="&#xf4;" horiz-adv-x="594" 
d="M294 628l-44 -65h-128l106 145h131l106 -145h-128zM297 514q111 0 188 -76.5t77 -187.5t-77 -187.5t-188 -76.5t-187.5 76.5t-76.5 187.5t76.5 187.5t187.5 76.5zM297 112q58 0 97 39t39 99t-39 99t-97 39t-96.5 -39t-38.5 -99t38.5 -99t96.5 -39z" />
    <glyph glyph-name="otilde" unicode="&#xf5;" horiz-adv-x="594" 
d="M127 568q0 46 10.5 78.5t28.5 48.5t41.5 20.5t49.5 -2.5t52 -24q29 -20 40.5 -16t11.5 40h105q0 -57 -16.5 -93.5t-43 -48t-58 -6t-64.5 26.5q-29 20 -41 16t-12 -40h-104zM297 -14q-111 0 -187.5 76.5t-76.5 187.5t76.5 187.5t187.5 76.5t188 -76.5t77 -187.5
t-77 -187.5t-188 -76.5zM297 112q58 0 97 39t39 99t-39 99t-97 39t-96.5 -39t-38.5 -99t38.5 -99t96.5 -39z" />
    <glyph glyph-name="odieresis" unicode="&#xf6;" horiz-adv-x="594" 
d="M202 557q-28 0 -48 19.5t-20 47.5t20 48t48 20t47.5 -20t19.5 -48t-19.5 -47.5t-47.5 -19.5zM392 557q-28 0 -48 19.5t-20 47.5t20 48t48 20t47.5 -20t19.5 -48t-19.5 -47.5t-47.5 -19.5zM297 -14q-111 0 -187.5 76.5t-76.5 187.5t76.5 187.5t187.5 76.5t188 -76.5
t77 -187.5t-77 -187.5t-188 -76.5zM297 112q58 0 97 39t39 99t-39 99t-97 39t-96.5 -39t-38.5 -99t38.5 -99t96.5 -39z" />
    <glyph glyph-name="divide" unicode="&#xf7;" horiz-adv-x="565" 
d="M283 463q-35 0 -58.5 23.5t-23.5 58.5q0 34 23.5 57.5t58.5 23.5t58 -23t23 -58t-23.5 -58.5t-57.5 -23.5zM45 290v121h475v-121h-475zM283 74q-35 0 -58.5 24t-23.5 58t23.5 57.5t58.5 23.5t58 -23.5t23 -57.5q0 -35 -23.5 -58.5t-57.5 -23.5z" />
    <glyph glyph-name="oslash" unicode="&#xf8;" horiz-adv-x="594" 
d="M491 431q71 -76 71 -181q0 -111 -77 -187.5t-188 -76.5q-81 0 -145 42l-32 -37l-55 32l39 46q-71 74 -71 181q0 111 76.5 187.5t187.5 76.5q79 0 146 -43l32 38l55 -32zM162 250q0 -47 25 -83l174 206q-29 15 -64 15q-58 0 -96.5 -39t-38.5 -99zM297 112q58 0 97 39
t39 99q0 48 -25 82l-174 -205q28 -15 63 -15z" />
    <glyph glyph-name="ugrave" unicode="&#xf9;" horiz-adv-x="577" 
d="M366 563h-124l-111 137h155zM389 500h129v-500h-129v56q-47 -70 -149 -70q-82 0 -135.5 55t-53.5 152v307h129v-291q0 -50 27 -76.5t72 -26.5q50 0 80 31t30 93v270z" />
    <glyph glyph-name="uacute" unicode="&#xfa;" horiz-adv-x="577" 
d="M439 700l-111 -137h-124l80 137h155zM389 500h129v-500h-129v56q-47 -70 -149 -70q-82 0 -135.5 55t-53.5 152v307h129v-291q0 -50 27 -76.5t72 -26.5q50 0 80 31t30 93v270z" />
    <glyph glyph-name="ucircumflex" unicode="&#xfb;" horiz-adv-x="577" 
d="M281 620l-44 -65h-128l106 145h131l106 -145h-128zM389 500h129v-500h-129v56q-47 -70 -149 -70q-82 0 -135.5 55t-53.5 152v307h129v-291q0 -50 27 -76.5t72 -26.5q50 0 80 31t30 93v270z" />
    <glyph glyph-name="udieresis" unicode="&#xfc;" horiz-adv-x="577" 
d="M189 549q-28 0 -48 19.5t-20 47.5t20 48t48 20t47.5 -20t19.5 -48t-19.5 -47.5t-47.5 -19.5zM379 549q-28 0 -48 19.5t-20 47.5t20 48t48 20t47.5 -20t19.5 -48t-19.5 -47.5t-47.5 -19.5zM389 500h129v-500h-129v56q-47 -70 -149 -70q-82 0 -135.5 55t-53.5 152v307h129
v-291q0 -50 27 -76.5t72 -26.5q50 0 80 31t30 93v270z" />
    <glyph glyph-name="yacute" unicode="&#xfd;" horiz-adv-x="525" 
d="M418 700l-111 -137h-124l80 137h155zM385 500h138l-182 -500q-39 -108 -103.5 -156.5t-160.5 -43.5v120q52 -1 82.5 22t48.5 74l-205 484h141l130 -336z" />
    <glyph glyph-name="thorn" unicode="&#xfe;" 
d="M350 514q101 0 172.5 -76.5t71.5 -187.5t-71.5 -187.5t-172.5 -76.5q-105 0 -162 73v-259h-129v900h129v-259q57 73 162 73zM326 109q60 0 99.5 39.5t39.5 101.5t-39.5 101.5t-99.5 39.5t-99 -39.5t-39 -101.5t39 -101.5t99 -39.5z" />
    <glyph glyph-name="ydieresis" unicode="&#xff;" horiz-adv-x="525" 
d="M168 549q-28 0 -48 19.5t-20 47.5t20 48t48 20t47.5 -20t19.5 -48t-19.5 -47.5t-47.5 -19.5zM358 549q-28 0 -48 19.5t-20 47.5t20 48t48 20t47.5 -20t19.5 -48t-19.5 -47.5t-47.5 -19.5zM385 500h138l-182 -500q-39 -108 -103.5 -156.5t-160.5 -43.5v120q52 -1 82.5 22
t48.5 74l-205 484h141l130 -336z" />
    <glyph glyph-name="Amacron" unicode="&#x100;" horiz-adv-x="668" 
d="M479 869v-105h-290v105h290zM515 0l-42 126h-279l-42 -126h-149l245 700h171l246 -700h-150zM238 255h192l-96 286z" />
    <glyph glyph-name="amacron" unicode="&#x101;" 
d="M454 669v-105h-290v105h290zM439 500h129v-500h-129v59q-58 -73 -163 -73q-100 0 -171.5 76.5t-71.5 187.5t71.5 187.5t171.5 76.5q105 0 163 -73v59zM300 109q60 0 99.5 39.5t39.5 101.5t-39.5 101.5t-99.5 39.5t-99 -39.5t-39 -101.5t39 -101.5t99 -39.5z" />
    <glyph glyph-name="Abreve" unicode="&#x102;" horiz-adv-x="668" 
d="M334 747q-79 0 -122.5 38t-43.5 107h115q0 -52 51 -52q52 0 52 52h115q0 -69 -43.5 -107t-123.5 -38zM515 0l-42 126h-279l-42 -126h-149l245 700h171l246 -700h-150zM238 255h192l-96 286z" />
    <glyph glyph-name="abreve" unicode="&#x103;" 
d="M309 547q-79 0 -122.5 38t-43.5 107h115q0 -52 51 -52q52 0 52 52h115q0 -69 -43.5 -107t-123.5 -38zM439 500h129v-500h-129v59q-58 -73 -163 -73q-100 0 -171.5 76.5t-71.5 187.5t71.5 187.5t171.5 76.5q105 0 163 -73v59zM300 109q60 0 99.5 39.5t39.5 101.5
t-39.5 101.5t-99.5 39.5t-99 -39.5t-39 -101.5t39 -101.5t99 -39.5z" />
    <glyph glyph-name="Aogonek" unicode="&#x104;" horiz-adv-x="668" 
d="M637 -122q12 -1 28 5v-81q-38 -16 -81 -16q-42 0 -68.5 22.5t-26.5 65.5q0 57 66 126h-40l-42 126h-279l-42 -126h-149l245 700h171l246 -700q-53 -56 -53 -95q0 -27 25 -27zM238 255h192l-96 286z" />
    <glyph glyph-name="aogonek" unicode="&#x105;" 
d="M568 0q-53 -55 -53 -95q-2 -27 25 -27q11 -1 28 5v-81q-40 -16 -81 -16q-43 0 -69.5 22.5t-26.5 65.5q0 56 64 126h-16v59q-58 -73 -163 -73q-100 0 -171.5 76.5t-71.5 187.5t71.5 187.5t171.5 76.5q105 0 163 -73v59h129v-500zM300 109q60 0 99.5 39.5t39.5 101.5
t-39.5 101.5t-99.5 39.5t-99 -39.5t-39 -101.5t39 -101.5t99 -39.5z" />
    <glyph glyph-name="Cacute" unicode="&#x106;" horiz-adv-x="726" 
d="M317 771h124l111 137h-155zM397 -14q-158 0 -261 105t-103 259q0 155 103 259.5t261 104.5q95 0 175.5 -44.5t125.5 -120.5l-119 -69q-26 47 -74 73.5t-108 26.5q-102 0 -164.5 -64t-62.5 -166q0 -101 62.5 -165t164.5 -64q60 0 108.5 26.5t73.5 72.5l119 -69
q-45 -76 -125 -120.5t-176 -44.5z" />
    <glyph glyph-name="cacute" unicode="&#x107;" horiz-adv-x="536" 
d="M216 563h124l111 137h-155zM297 -14q-113 0 -188.5 76t-75.5 188t75.5 188t188.5 76q73 0 133 -35t91 -94l-111 -65q-15 31 -45.5 49t-68.5 18q-58 0 -96 -38.5t-38 -98.5q0 -59 38 -97.5t96 -38.5q39 0 69.5 17.5t45.5 48.5l112 -64q-33 -59 -93 -94.5t-133 -35.5z" />
    <glyph glyph-name="Cdotaccent" unicode="&#x10a;" horiz-adv-x="726" 
d="M397 759q-32 0 -55 23t-23 55t23 54.5t55 22.5q31 0 54 -23t23 -54q0 -32 -23 -55t-54 -23zM397 -14q-158 0 -261 105t-103 259q0 155 103 259.5t261 104.5q95 0 175.5 -44.5t125.5 -120.5l-119 -69q-26 47 -74 73.5t-108 26.5q-102 0 -164.5 -64t-62.5 -166
q0 -101 62.5 -165t164.5 -64q60 0 108.5 26.5t73.5 72.5l119 -69q-45 -76 -125 -120.5t-176 -44.5z" />
    <glyph glyph-name="cdotaccent" unicode="&#x10b;" horiz-adv-x="536" 
d="M296 551q-32 0 -55 23t-23 55t23 54.5t55 22.5t54.5 -23t22.5 -54q0 -32 -23 -55t-54 -23zM297 -14q-113 0 -188.5 76t-75.5 188t75.5 188t188.5 76q73 0 133 -35t91 -94l-111 -65q-15 31 -45.5 49t-68.5 18q-58 0 -96 -38.5t-38 -98.5q0 -59 38 -97.5t96 -38.5
q39 0 69.5 17.5t45.5 48.5l112 -64q-33 -59 -93 -94.5t-133 -35.5z" />
    <glyph glyph-name="Ccaron" unicode="&#x10c;" horiz-adv-x="726" 
d="M328 763l-106 145h128l44 -65l43 65h128l-106 -145h-131zM397 121q60 0 108.5 26.5t73.5 72.5l119 -69q-45 -76 -125 -120.5t-176 -44.5q-158 0 -261 105t-103 259q0 155 103 259.5t261 104.5q95 0 175.5 -44.5t125.5 -120.5l-119 -69q-26 47 -74 73.5t-108 26.5
q-102 0 -164.5 -64t-62.5 -166q0 -101 62.5 -165t164.5 -64z" />
    <glyph glyph-name="ccaron" unicode="&#x10d;" horiz-adv-x="536" 
d="M227 555l-106 145h128l44 -65l43 65h128l-106 -145h-131zM411 180l112 -64q-33 -59 -93 -94.5t-133 -35.5q-113 0 -188.5 76t-75.5 188t75.5 188t188.5 76q73 0 133 -35t91 -94l-111 -65q-15 31 -45.5 49t-68.5 18q-58 0 -96 -38.5t-38 -98.5q0 -59 38 -97.5t96 -38.5
q39 0 69.5 17.5t45.5 48.5z" />
    <glyph glyph-name="Dcaron" unicode="&#x10e;" horiz-adv-x="713" 
d="M266 755l-106 145h128l44 -65l43 65h128l-106 -145h-131zM343 700q144 0 240.5 -101t96.5 -249t-96.5 -249t-240.5 -101h-278v700h278zM343 132q91 0 148 60.5t57 157.5t-57 157.5t-148 60.5h-140v-436h140z" />
    <glyph glyph-name="dcaron" unicode="&#x10f;" horiz-adv-x="735" 
d="M438 441v259h129v-700h-129v59q-57 -73 -162 -73q-101 0 -172.5 76.5t-71.5 187.5t71.5 187.5t172.5 76.5q105 0 162 -73zM624 700h121l-30 -200h-101zM300 109q60 0 99 39.5t39 101.5t-39 101.5t-99 39.5t-99.5 -39.5t-39.5 -101.5t39.5 -101.5t99.5 -39.5z" />
    <glyph glyph-name="Dcroat" unicode="&#x110;" horiz-adv-x="748" 
d="M378 700q144 0 240.5 -101t96.5 -249t-96.5 -249t-240.5 -101h-278v281h-78v124h78v295h278zM378 132q91 0 148 60.5t57 157.5t-57 157.5t-148 60.5h-140v-163h159v-124h-159v-149h140z" />
    <glyph glyph-name="dcroat" unicode="&#x111;" horiz-adv-x="633" 
d="M630 638v-84h-62v-554h-129v59q-58 -73 -163 -73q-100 0 -171.5 76.5t-71.5 187.5t71.5 187.5t171.5 76.5q105 0 163 -73v113h-151v84h151v62h129v-62h62zM300 109q60 0 99.5 39.5t39.5 101.5t-39.5 101.5t-99.5 39.5t-99 -39.5t-39 -101.5t39 -101.5t99 -39.5z" />
    <glyph glyph-name="Emacron" unicode="&#x112;" horiz-adv-x="530" 
d="M424 869v-105h-290v105h290zM203 132h295v-132h-433v700h428v-132h-290v-149h265v-130h-265v-157z" />
    <glyph glyph-name="emacron" unicode="&#x113;" horiz-adv-x="581" 
d="M436 673v-105h-290v105h290zM168 197q26 -94 141 -94q74 0 112 50l104 -60q-74 -107 -218 -107q-124 0 -199 75t-75 189q0 113 74 188.5t190 75.5q110 0 181.5 -76t71.5 -188q0 -25 -5 -53h-377zM166 297h255q-11 51 -45.5 76t-78.5 25q-52 0 -86 -26.5t-45 -74.5z" />
    <glyph glyph-name="Edotaccent" unicode="&#x116;" horiz-adv-x="530" 
d="M279 751q-32 0 -55 23t-23 55t23 54.5t55 22.5q31 0 54 -23t23 -54q0 -32 -23 -55t-54 -23zM203 132h295v-132h-433v700h428v-132h-290v-149h265v-130h-265v-157z" />
    <glyph glyph-name="edotaccent" unicode="&#x117;" horiz-adv-x="581" 
d="M291 555q-32 0 -55 23t-23 55t23 54.5t55 22.5q31 0 54 -23t23 -54q0 -32 -23 -55t-54 -23zM168 197q26 -94 141 -94q74 0 112 50l104 -60q-74 -107 -218 -107q-124 0 -199 75t-75 189q0 113 74 188.5t190 75.5q110 0 181.5 -76t71.5 -188q0 -25 -5 -53h-377zM166 297
h255q-11 51 -45.5 76t-78.5 25q-52 0 -86 -26.5t-45 -74.5z" />
    <glyph glyph-name="Eogonek" unicode="&#x118;" horiz-adv-x="530" 
d="M203 132h295v-132h-1q-52 -55 -52 -95q-2 -27 25 -27q11 -1 27 5v-81q-38 -16 -80 -16q-43 0 -69.5 22.5t-26.5 65.5q0 57 66 126h-322v700h428v-132h-290v-149h265v-130h-265v-157z" />
    <glyph glyph-name="eogonek" unicode="&#x119;" horiz-adv-x="581" 
d="M168 197q26 -94 141 -94q74 0 112 50l104 -60q-13 -19 -37 -43q-84 -90 -84 -145q0 -27 25 -27q12 -1 28 5v-81q-40 -16 -81 -16q-43 0 -69 22.5t-26 65.5q0 59 65 114q-26 -2 -39 -2q-124 0 -199 75t-75 189q0 113 74 188.5t190 75.5q110 0 181.5 -76t71.5 -188
q0 -25 -5 -53h-377zM166 297h255q-11 51 -45.5 76t-78.5 25q-52 0 -86 -26.5t-45 -74.5z" />
    <glyph glyph-name="Ecaron" unicode="&#x11a;" horiz-adv-x="530" 
d="M210 755l-106 145h128l44 -65l43 65h128l-106 -145h-131zM203 132h295v-132h-433v700h428v-132h-290v-149h265v-130h-265v-157z" />
    <glyph glyph-name="ecaron" unicode="&#x11b;" horiz-adv-x="581" 
d="M222 559l-106 145h128l44 -65l43 65h128l-106 -145h-131zM168 197q26 -94 141 -94q74 0 112 50l104 -60q-74 -107 -218 -107q-124 0 -199 75t-75 189q0 113 74 188.5t190 75.5q110 0 181.5 -76t71.5 -188q0 -25 -5 -53h-377zM166 297h255q-11 51 -45.5 76t-78.5 25
q-52 0 -86 -26.5t-45 -74.5z" />
    <glyph glyph-name="Gbreve" unicode="&#x11e;" horiz-adv-x="785" 
d="M397 755q-79 0 -122.5 38t-43.5 107h115q0 -52 51 -52q52 0 52 52h115q0 -69 -43.5 -107t-123.5 -38zM752 376v-54q0 -150 -96 -243t-248 -93q-162 0 -268.5 105.5t-106.5 257.5q0 153 105.5 259t261.5 106q98 0 179 -44.5t126 -118.5l-118 -68q-25 43 -75.5 70
t-112.5 27q-100 0 -164.5 -65.5t-64.5 -165.5q0 -99 65.5 -163.5t173.5 -64.5q80 0 132.5 35.5t71.5 97.5h-212v122h351z" />
    <glyph glyph-name="gbreve" unicode="&#x11f;" 
d="M297 555q-79 0 -122.5 38t-43.5 107h115q0 -52 51 -52q52 0 52 52h115q0 -69 -43.5 -107t-123.5 -38zM442 500h126v-476q0 -116 -76.5 -177t-184.5 -61q-81 0 -142.5 31t-94.5 91l110 63q38 -70 131 -70q61 0 96 32t35 91v54q-57 -76 -160 -76q-106 0 -177.5 74.5
t-71.5 181.5q0 106 72 181t177 75q103 0 160 -76v62zM302 121q61 0 100.5 38.5t39.5 98.5q0 59 -39.5 97.5t-100.5 38.5t-100.5 -38.5t-39.5 -97.5q0 -60 39.5 -98.5t100.5 -38.5z" />
    <glyph glyph-name="Gdotaccent" unicode="&#x120;" horiz-adv-x="785" 
d="M397 759q-32 0 -55 23t-23 55t23 54.5t55 22.5q31 0 54 -23t23 -54q0 -32 -23 -55t-54 -23zM752 376v-54q0 -150 -96 -243t-248 -93q-162 0 -268.5 105.5t-106.5 257.5q0 153 105.5 259t261.5 106q98 0 179 -44.5t126 -118.5l-118 -68q-25 43 -75.5 70t-112.5 27
q-100 0 -164.5 -65.5t-64.5 -165.5q0 -99 65.5 -163.5t173.5 -64.5q80 0 132.5 35.5t71.5 97.5h-212v122h351z" />
    <glyph glyph-name="gdotaccent" unicode="&#x121;" 
d="M297 559q-32 0 -55 23t-23 55t23 54.5t55 22.5q31 0 54 -23t23 -54q0 -32 -23 -55t-54 -23zM442 500h126v-476q0 -116 -76.5 -177t-184.5 -61q-81 0 -142.5 31t-94.5 91l110 63q38 -70 131 -70q61 0 96 32t35 91v54q-57 -76 -160 -76q-106 0 -177.5 74.5t-71.5 181.5
q0 106 72 181t177 75q103 0 160 -76v62zM302 121q61 0 100.5 38.5t39.5 98.5q0 59 -39.5 97.5t-100.5 38.5t-100.5 -38.5t-39.5 -97.5q0 -60 39.5 -98.5t100.5 -38.5z" />
    <glyph glyph-name="Gcommaaccent" unicode="&#x122;" horiz-adv-x="785" 
d="M752 376v-54q0 -150 -96 -243t-248 -93q-162 0 -268.5 105.5t-106.5 257.5q0 153 105.5 259t261.5 106q98 0 179 -44.5t126 -118.5l-118 -68q-25 43 -75.5 70t-112.5 27q-100 0 -164.5 -65.5t-64.5 -165.5q0 -99 65.5 -163.5t173.5 -64.5q80 0 132.5 35.5t71.5 97.5h-212
v122h351zM341 -263l10 200h122l-30 -200h-102z" />
    <glyph glyph-name="gcommaaccent" unicode="&#x123;" 
d="M361 783l-10 -200h-122l30 200h102zM442 500h126v-476q0 -116 -76.5 -177t-184.5 -61q-81 0 -142.5 31t-94.5 91l110 63q38 -70 131 -70q61 0 96 32t35 91v54q-57 -76 -160 -76q-106 0 -177.5 74.5t-71.5 181.5q0 106 72 181t177 75q103 0 160 -76v62zM302 121
q61 0 100.5 38.5t39.5 98.5q0 59 -39.5 97.5t-100.5 38.5t-100.5 -38.5t-39.5 -97.5q0 -60 39.5 -98.5t100.5 -38.5z" />
    <glyph glyph-name="Hbar" unicode="&#x126;" horiz-adv-x="708" 
d="M683 602v-101h-62v-501h-137v272h-260v-272h-138v501h-61v101h61v98h138v-98h260v98h137v-98h62zM484 404v97h-260v-97h260z" />
    <glyph glyph-name="hbar" unicode="&#x127;" horiz-adv-x="583" 
d="M343 514q83 0 136.5 -55t53.5 -152v-307h-129v291q0 50 -27.5 76.5t-72.5 26.5q-50 0 -80 -31t-30 -93v-270h-129v554h-62v84h62v62h129v-62h141v-84h-141v-111q46 71 149 71z" />
    <glyph glyph-name="Imacron" unicode="&#x12a;" horiz-adv-x="268" 
d="M-11 764v105h290v-105h-290zM65 700h138v-700h-138v700z" />
    <glyph glyph-name="imacron" unicode="&#x12b;" horiz-adv-x="247" 
d="M8 564v112h230v-112h-230zM59 0v500h129v-500h-129z" />
    <glyph glyph-name="Iogonek" unicode="&#x12e;" horiz-adv-x="268" 
d="M194 -122q11 -1 28 5v-81q-40 -16 -81 -16q-43 0 -69.5 22.5t-26.5 65.5q0 56 46 126h-26v700h138v-700q-34 -56 -34 -95q-2 -27 25 -27z" />
    <glyph glyph-name="iogonek" unicode="&#x12f;" horiz-adv-x="247" 
d="M123 560q-32 0 -55.5 23.5t-23.5 55.5t23.5 56t55.5 24q33 0 56.5 -24t23.5 -56t-23.5 -55.5t-56.5 -23.5zM179 -122q11 -1 27 5v-81q-38 -16 -80 -16q-43 0 -69.5 24t-26.5 66q0 53 43 124h-14v500h129v-500q-34 -55 -34 -92q-2 -30 25 -30z" />
    <glyph glyph-name="Idotaccent" unicode="&#x130;" horiz-adv-x="268" 
d="M134 751q-32 0 -55 23t-23 55t23 54.5t55 22.5t54.5 -23t22.5 -54q0 -32 -23 -55t-54 -23zM65 700h138v-700h-138v700z" />
    <glyph glyph-name="dotlessi" unicode="&#x131;" horiz-adv-x="247" 
d="M59 0v500h129v-500h-129z" />
    <glyph glyph-name="Kcommaaccent" unicode="&#x136;" horiz-adv-x="615" 
d="M343 360l269 -360h-159l-250 328v-328h-138v700h138v-309l240 309h159zM242 -263l10 200h122l-30 -200h-102z" />
    <glyph glyph-name="kcommaaccent" unicode="&#x137;" horiz-adv-x="525" 
d="M313 253l207 -253h-150l-182 227v-227h-129v700h129v-420l172 220h154zM215 -263l10 200h122l-30 -200h-102z" />
    <glyph glyph-name="Lacute" unicode="&#x139;" horiz-adv-x="483" 
d="M302 900l-111 -137h-124l80 137h155zM203 132h267v-132h-405v700h138v-568z" />
    <glyph glyph-name="lacute" unicode="&#x13a;" horiz-adv-x="247" 
d="M57 763h124l111 137h-155zM59 0v730h129v-730h-129z" />
    <glyph glyph-name="Lcommaaccent" unicode="&#x13b;" horiz-adv-x="483" 
d="M203 132h267v-132h-405v700h138v-568zM209 -263l10 200h122l-30 -200h-102z" />
    <glyph glyph-name="lcommaaccent" unicode="&#x13c;" horiz-adv-x="247" 
d="M59 0v730h129v-730h-129zM157 -263l30 200h-122l-10 -200h102z" />
    <glyph glyph-name="Lcaron" unicode="&#x13d;" horiz-adv-x="483" 
d="M203 132h267v-132h-405v700h138v-568zM406 700l-30 -185h-109l10 185h129z" />
    <glyph glyph-name="lcaron" unicode="&#x13e;" horiz-adv-x="354" 
d="M59 0v730h129v-730h-129zM334 530l30 200h-122l-10 -200h102z" />
    <glyph glyph-name="Lslash" unicode="&#x141;" horiz-adv-x="503" 
d="M223 132h267v-132h-405v211l-60 -36v138l60 36v351h138v-269l132 78v-138l-132 -78v-161z" />
    <glyph glyph-name="lslash" unicode="&#x142;" horiz-adv-x="263" 
d="M250 490v-123l-54 -37v-330h-129v242l-54 -37v123l54 37v365h129v-277z" />
    <glyph glyph-name="Nacute" unicode="&#x143;" horiz-adv-x="673" 
d="M249 763h124l111 137h-155zM470 700h138v-700h-105l-300 428v-428h-138v700h105l300 -427v427z" />
    <glyph glyph-name="nacute" unicode="&#x144;" horiz-adv-x="577" 
d="M453 708l-111 -137h-124l80 137h155zM337 514q82 0 135.5 -55t53.5 -152v-307h-129v291q0 50 -27 76.5t-72 26.5q-50 0 -80 -31t-30 -93v-270h-129v500h129v-56q47 70 149 70z" />
    <glyph glyph-name="Ncommaaccent" unicode="&#x145;" horiz-adv-x="673" 
d="M470 700h138v-700h-105l-300 428v-428h-138v700h105l300 -427v427zM373 -263l30 200h-122l-10 -200h102z" />
    <glyph glyph-name="ncommaaccent" unicode="&#x146;" horiz-adv-x="577" 
d="M337 514q82 0 135.5 -55t53.5 -152v-307h-129v291q0 50 -27 76.5t-72 26.5q-50 0 -80 -31t-30 -93v-270h-129v500h129v-56q47 70 149 70zM228 -263l10 200h122l-30 -200h-102z" />
    <glyph glyph-name="Ncaron" unicode="&#x147;" horiz-adv-x="673" 
d="M260 755l-106 145h128l44 -65l43 65h128l-106 -145h-131zM470 700h138v-700h-105l-300 428v-428h-138v700h105l300 -427v427z" />
    <glyph glyph-name="ncaron" unicode="&#x148;" horiz-adv-x="577" 
d="M229 563l-106 145h128l44 -65l43 65h128l-106 -145h-131zM337 514q82 0 135.5 -55t53.5 -152v-307h-129v291q0 50 -27 76.5t-72 26.5q-50 0 -80 -31t-30 -93v-270h-129v500h129v-56q47 70 149 70z" />
    <glyph glyph-name="Eng" unicode="&#x14a;" horiz-adv-x="673" 
d="M470 700h138v-700q0 -102 -61 -154t-172 -46v126q48 0 71.5 17.5t23.5 64.5v39l-267 381v-428h-138v700h105l300 -427v427z" />
    <glyph glyph-name="eng" unicode="&#x14b;" horiz-adv-x="577" 
d="M337 514q82 0 135.5 -55t53.5 -152v-317q0 -104 -52.5 -157.5t-157.5 -46.5v124q41 -4 61 14.5t20 65.5v301q0 50 -27 76.5t-72 26.5q-50 0 -80 -31t-30 -93v-270h-129v500h129v-56q47 70 149 70z" />
    <glyph glyph-name="Omacron" unicode="&#x14c;" horiz-adv-x="792" 
d="M251 772v105h290v-105h-290zM396 -14q-152 0 -257.5 105.5t-105.5 258.5t105.5 258.5t257.5 105.5t258 -105.5t106 -258.5t-106 -258.5t-258 -105.5zM396 121q96 0 161 64.5t65 164.5t-65 165t-161 65t-161 -65t-65 -165t65 -164.5t161 -64.5z" />
    <glyph glyph-name="omacron" unicode="&#x14d;" horiz-adv-x="594" 
d="M152 572v105h290v-105h-290zM297 -14q-111 0 -187.5 76.5t-76.5 187.5t76.5 187.5t187.5 76.5t188 -76.5t77 -187.5t-77 -187.5t-188 -76.5zM297 112q58 0 97 39t39 99t-39 99t-97 39t-96.5 -39t-38.5 -99t38.5 -99t96.5 -39z" />
    <glyph glyph-name="Ohungarumlaut" unicode="&#x150;" horiz-adv-x="792" 
d="M221 763h128l84 138h-134zM394 763h128l94 138h-134zM396 -14q-152 0 -257.5 105.5t-105.5 258.5t105.5 258.5t257.5 105.5t258 -105.5t106 -258.5t-106 -258.5t-258 -105.5zM396 121q96 0 161 64.5t65 164.5t-65 165t-161 65t-161 -65t-65 -165t65 -164.5t161 -64.5z
" />
    <glyph glyph-name="ohungarumlaut" unicode="&#x151;" horiz-adv-x="594" 
d="M122 563h128l84 138h-134zM295 563h128l94 138h-134zM297 -14q-111 0 -187.5 76.5t-76.5 187.5t76.5 187.5t187.5 76.5t188 -76.5t77 -187.5t-77 -187.5t-188 -76.5zM297 112q58 0 97 39t39 99t-39 99t-97 39t-96.5 -39t-38.5 -99t38.5 -99t96.5 -39z" />
    <glyph glyph-name="OE" unicode="&#x152;" horiz-adv-x="916" 
d="M623 132h260v-132h-397q-48 -14 -100 -14q-151 0 -252 105t-101 259t101 259t252 105q52 0 100 -14h392v-132h-255v-149h233v-130h-233v-157zM486 136v429q-45 15 -100 15q-95 0 -155.5 -64.5t-60.5 -165.5t60.5 -165t155.5 -64q59 0 100 15z" />
    <glyph glyph-name="oe" unicode="&#x153;" horiz-adv-x="981" 
d="M568 197q14 -48 51.5 -71t85.5 -23q78 0 116 50l104 -60q-74 -107 -218 -107t-210 112q-69 -112 -204 -112q-111 0 -185.5 76t-74.5 188t74.5 188t185.5 76q66 0 119 -29.5t84 -81.5q65 111 207 111q109 0 178 -76t69 -188q0 -25 -5 -53h-377zM566 298h255
q-11 51 -45 75.5t-78 24.5q-51 0 -85.5 -26.5t-46.5 -73.5zM297 112q58 0 97 39t39 99t-39 99t-97 39q-59 0 -97 -38.5t-38 -99.5t38 -99.5t97 -38.5z" />
    <glyph glyph-name="Racute" unicode="&#x154;" horiz-adv-x="614" 
d="M450 900l-111 -137h-124l80 137h155zM449 0l-141 243h-105v-243h-138v700h280q97 0 165 -68t68 -164q0 -65 -37 -120.5t-98 -83.5l155 -264h-149zM203 571v-207h142q39 0 67 30.5t28 73.5t-28 73t-67 30h-142z" />
    <glyph glyph-name="racute" unicode="&#x155;" horiz-adv-x="356" 
d="M348 700l-111 -137h-124l80 137h155zM188 414q18 48 59.5 72t92.5 24v-144q-59 7 -105.5 -24t-46.5 -103v-239h-129v500h129v-86z" />
    <glyph glyph-name="Rcommaaccent" unicode="&#x156;" horiz-adv-x="614" 
d="M443 264l155 -264h-149l-141 243h-105v-243h-138v700h280q97 0 165 -68t68 -164q0 -65 -37 -120.5t-98 -83.5zM203 571v-207h142q39 0 67 30.5t28 73.5t-28 73t-67 30h-142zM258 -263l10 200h122l-30 -200h-102z" />
    <glyph glyph-name="rcommaaccent" unicode="&#x157;" horiz-adv-x="356" 
d="M188 414q18 48 59.5 72t92.5 24v-144q-59 7 -105.5 -24t-46.5 -103v-239h-129v500h129v-86zM55 -263l10 200h122l-30 -200h-102z" />
    <glyph glyph-name="Rcaron" unicode="&#x158;" horiz-adv-x="614" 
d="M226 755l-106 145h128l44 -65l43 65h128l-106 -145h-131zM449 0l-141 243h-105v-243h-138v700h280q97 0 165 -68t68 -164q0 -65 -37 -120.5t-98 -83.5l155 -264h-149zM203 571v-207h142q39 0 67 30.5t28 73.5t-28 73t-67 30h-142z" />
    <glyph glyph-name="rcaron" unicode="&#x159;" horiz-adv-x="356" 
d="M124 555l-106 145h128l44 -65l43 65h128l-106 -145h-131zM188 414q18 48 59.5 72t92.5 24v-144q-59 7 -105.5 -24t-46.5 -103v-239h-129v500h129v-86z" />
    <glyph glyph-name="Sacute" unicode="&#x15a;" horiz-adv-x="583" 
d="M213 771h124l111 137h-155zM304 -14q-104 0 -175 46.5t-100 126.5l118 69q41 -107 161 -107q58 0 85 21t27 53q0 37 -33 57.5t-118 44.5q-47 14 -79.5 28t-65 37.5t-49.5 59.5t-17 84q0 95 67.5 151.5t162.5 56.5q85 0 149.5 -41.5t100.5 -115.5l-116 -67q-42 90 -134 90
q-43 0 -67.5 -19.5t-24.5 -50.5q0 -33 27.5 -53.5t105.5 -44.5q32 -10 48.5 -15.5t45 -17t44 -21.5t35.5 -27t30.5 -35t18 -43.5t7.5 -55.5q0 -97 -70.5 -154t-183.5 -57z" />
    <glyph glyph-name="sacute" unicode="&#x15b;" horiz-adv-x="465" 
d="M386 708l-111 -137h-124l80 137h155zM178 358q0 -20 26.5 -32.5t64.5 -22t76 -24t64.5 -48.5t26.5 -85q0 -77 -57.5 -118.5t-143.5 -41.5q-154 0 -210 119l112 63q22 -65 98 -65q69 0 69 43q0 20 -26.5 32.5t-64.5 22.5t-76 25t-64.5 47.5t-26.5 81.5q0 74 54.5 116.5
t135.5 42.5q61 0 111 -27.5t79 -78.5l-110 -60q-24 51 -80 51q-25 0 -41.5 -11t-16.5 -30z" />
    <glyph glyph-name="Scedilla" unicode="&#x15e;" horiz-adv-x="583" 
d="M558 197q0 -85 -54 -139.5t-146 -67.5v-36q29 -7 49.5 -26.5t20.5 -51.5q0 -105 -220 -92v91q108 -7 108 20q0 20 -63 25v69q-84 11 -141.5 55.5t-82.5 114.5l118 69q41 -107 161 -107q58 0 85 21t27 53q0 37 -33 57.5t-118 44.5q-47 14 -79.5 28t-65 37.5t-49.5 59.5
t-17 84q0 95 67.5 151.5t162.5 56.5q85 0 149.5 -41.5t100.5 -115.5l-116 -67q-42 90 -134 90q-43 0 -67.5 -19.5t-24.5 -50.5q0 -33 27.5 -53.5t105.5 -44.5q32 -10 48.5 -15.5t45 -17t44 -21.5t35.5 -27t30.5 -35t18 -43.5t7.5 -55.5z" />
    <glyph glyph-name="scedilla" unicode="&#x15f;" horiz-adv-x="465" 
d="M436 146q0 -62 -38 -101.5t-101 -52.5v-38q29 -7 49.5 -26.5t20.5 -51.5q0 -105 -220 -92v91q108 -7 108 20q0 20 -63 25v69q-120 15 -167 116l112 63q22 -65 98 -65q69 0 69 43q0 20 -26.5 32.5t-64.5 22.5t-76 25t-64.5 47.5t-26.5 81.5q0 74 54.5 116.5t135.5 42.5
q61 0 111 -27.5t79 -78.5l-110 -60q-24 51 -80 51q-25 0 -41.5 -11t-16.5 -30q0 -20 26.5 -32.5t64.5 -22t76 -24t64.5 -48.5t26.5 -85z" />
    <glyph glyph-name="Scaron" unicode="&#x160;" horiz-adv-x="583" 
d="M224 763l-106 145h128l44 -65l43 65h128l-106 -145h-131zM329 412q32 -10 48.5 -15.5t45 -17t44 -21.5t35.5 -27t30.5 -35t18 -43.5t7.5 -55.5q0 -97 -70.5 -154t-183.5 -57q-104 0 -175 46.5t-100 126.5l118 69q41 -107 161 -107q58 0 85 21t27 53q0 37 -33 57.5
t-118 44.5q-47 14 -79.5 28t-65 37.5t-49.5 59.5t-17 84q0 95 67.5 151.5t162.5 56.5q85 0 149.5 -41.5t100.5 -115.5l-116 -67q-42 90 -134 90q-43 0 -67.5 -19.5t-24.5 -50.5q0 -33 27.5 -53.5t105.5 -44.5z" />
    <glyph glyph-name="scaron" unicode="&#x161;" horiz-adv-x="465" 
d="M162 563l-106 145h128l44 -65l43 65h128l-106 -145h-131zM178 358q0 -20 26.5 -32.5t64.5 -22t76 -24t64.5 -48.5t26.5 -85q0 -77 -57.5 -118.5t-143.5 -41.5q-154 0 -210 119l112 63q22 -65 98 -65q69 0 69 43q0 20 -26.5 32.5t-64.5 22.5t-76 25t-64.5 47.5t-26.5 81.5
q0 74 54.5 116.5t135.5 42.5q61 0 111 -27.5t79 -78.5l-110 -60q-24 51 -80 51q-25 0 -41.5 -11t-16.5 -30z" />
    <glyph glyph-name="uni0162" unicode="&#x162;" horiz-adv-x="540" 
d="M528 700v-132h-189v-568h-138v568h-188v132h515zM205 -263l10 200h122l-30 -200h-102z" />
    <glyph glyph-name="uni0163" unicode="&#x163;" horiz-adv-x="385" 
d="M345 376h-113v-208q0 -26 13 -38t38 -13.5t62 0.5v-117q-133 -15 -187.5 25t-54.5 143v208h-87v124h87v101l129 39v-140h113v-124zM162 -263l10 200h122l-30 -200h-102z" />
    <glyph glyph-name="Tcaron" unicode="&#x164;" horiz-adv-x="540" 
d="M201 755l-106 145h128l44 -65l43 65h128l-106 -145h-131zM528 700v-132h-189v-568h-138v568h-188v132h515z" />
    <glyph glyph-name="tcaron" unicode="&#x165;" horiz-adv-x="406" 
d="M286 726h122l-30 -182h-102zM232 640v-140h113v-124h-113v-208q0 -26 13 -38t38 -13.5t62 0.5v-117q-133 -15 -187.5 25t-54.5 143v208h-87v124h87v101z" />
    <glyph glyph-name="Tbar" unicode="&#x166;" horiz-adv-x="540" 
d="M528 568h-189v-163h119v-124h-119v-281h-138v281h-118v124h118v163h-188v132h515v-132z" />
    <glyph glyph-name="tbar" unicode="&#x167;" horiz-adv-x="385" 
d="M345 376h-113v-73h80v-104h-80v-31q0 -26 13 -38t38 -13.5t62 0.5v-117q-133 -15 -187.5 25t-54.5 143v31h-58v104h58v73h-87v124h87v101l129 39v-140h113v-124z" />
    <glyph glyph-name="Umacron" unicode="&#x16a;" horiz-adv-x="653" 
d="M181 764v105h290v-105h-290zM326 -14q-117 0 -192 66t-75 177v471h137v-460q0 -55 31.5 -87t98.5 -32t98.5 32t31.5 87v460h138v-471q0 -111 -75 -177t-193 -66z" />
    <glyph glyph-name="umacron" unicode="&#x16b;" horiz-adv-x="577" 
d="M429 669v-105h-290v105h290zM389 500h129v-500h-129v56q-47 -70 -149 -70q-82 0 -135.5 55t-53.5 152v307h129v-291q0 -50 27 -76.5t72 -26.5q50 0 80 31t30 93v270z" />
    <glyph glyph-name="Uring" unicode="&#x16e;" horiz-adv-x="653" 
d="M326 709q-55 0 -90.5 34t-35.5 85t35.5 84.5t90.5 33.5q56 0 91 -33.5t35 -84.5q0 -52 -35 -85.5t-91 -33.5zM326 790q40 0 40 38q0 37 -40 37q-18 0 -28.5 -10.5t-10.5 -26.5q0 -17 10.5 -27.5t28.5 -10.5zM326 -14q-117 0 -192 66t-75 177v471h137v-460q0 -55 31.5 -87
t98.5 -32t98.5 32t31.5 87v460h138v-471q0 -111 -75 -177t-193 -66z" />
    <glyph glyph-name="uring" unicode="&#x16f;" horiz-adv-x="577" 
d="M284 539q-55 0 -90.5 34t-35.5 85t35.5 84.5t90.5 33.5q56 0 91 -33.5t35 -84.5q0 -52 -35 -85.5t-91 -33.5zM284 695q-18 0 -28.5 -10.5t-10.5 -26.5q0 -17 10.5 -27.5t28.5 -10.5q40 0 40 38q0 37 -40 37zM389 500h129v-500h-129v56q-47 -70 -149 -70q-82 0 -135.5 55
t-53.5 152v307h129v-291q0 -50 27 -76.5t72 -26.5q50 0 80 31t30 93v270z" />
    <glyph glyph-name="Uhungarumlaut" unicode="&#x170;" horiz-adv-x="653" 
d="M151 755h128l84 138h-134zM324 755h128l94 138h-134zM326 -14q-117 0 -192 66t-75 177v471h137v-460q0 -55 31.5 -87t98.5 -32t98.5 32t31.5 87v460h138v-471q0 -111 -75 -177t-193 -66z" />
    <glyph glyph-name="uhungarumlaut" unicode="&#x171;" horiz-adv-x="577" 
d="M321 693l-84 -138h-128l78 138h134zM410 555h-128l88 138h134zM389 500h129v-500h-129v56q-47 -70 -149 -70q-82 0 -135.5 55t-53.5 152v307h129v-291q0 -50 27 -76.5t72 -26.5q50 0 80 31t30 93v270z" />
    <glyph glyph-name="Uogonek" unicode="&#x172;" horiz-adv-x="653" 
d="M456 700h138v-471q0 -122 -90 -189q-51 -48 -71 -77t-21 -58q-1 -25 25 -27q11 -1 27 5v-81q-38 -16 -80 -16q-43 0 -69.5 22.5t-26.5 65.5q0 50 54 112h-16q-117 0 -192 66t-75 177v471h137v-460q0 -55 31.5 -87t98.5 -32t98.5 32t31.5 87v460z" />
    <glyph glyph-name="uogonek" unicode="&#x173;" horiz-adv-x="577" 
d="M518 500v-500q-53 -56 -53 -95q0 -27 25 -27q12 -1 28 5v-81q-38 -16 -81 -16q-42 0 -68.5 22.5t-26.5 65.5q0 52 64 126h-17v56q-47 -70 -149 -70q-82 0 -135.5 55t-53.5 152v307h129v-291q0 -50 27 -76.5t72 -26.5q50 0 80 31t30 93v270h129z" />
    <glyph glyph-name="Wcircumflex" unicode="&#x174;" horiz-adv-x="999" 
d="M526 820l-44 -65h-128l106 145h131l106 -145h-128zM839 700h145l-196 -700h-157l-132 462l-131 -462h-157l-196 700h145l134 -519l146 519h118l147 -519z" />
    <glyph glyph-name="wcircumflex" unicode="&#x175;" horiz-adv-x="770" 
d="M382 620l-44 -65h-128l106 145h131l106 -145h-128zM622 500h137l-159 -500h-123l-92 303l-92 -303h-123l-159 500h137l85 -307l91 307h122l91 -308z" />
    <glyph glyph-name="Ycircumflex" unicode="&#x176;" horiz-adv-x="621" 
d="M307 820l-44 -65h-128l106 145h131l106 -145h-128zM619 700l-240 -427v-273h-137v273l-239 427h156l152 -292l152 292h156z" />
    <glyph glyph-name="ycircumflex" unicode="&#x177;" horiz-adv-x="525" 
d="M260 620l-44 -65h-128l106 145h131l106 -145h-128zM385 500h138l-182 -500q-39 -108 -103.5 -156.5t-160.5 -43.5v120q52 -1 82.5 22t48.5 74l-205 484h141l130 -336z" />
    <glyph glyph-name="Ydieresis" unicode="&#x178;" horiz-adv-x="621" 
d="M215 749q-28 0 -48 19.5t-20 47.5t20 48t48 20t47.5 -20t19.5 -48t-19.5 -47.5t-47.5 -19.5zM405 749q-28 0 -48 19.5t-20 47.5t20 48t48 20t47.5 -20t19.5 -48t-19.5 -47.5t-47.5 -19.5zM619 700l-240 -427v-273h-137v273l-239 427h156l152 -292l152 292h156z" />
    <glyph glyph-name="Zacute" unicode="&#x179;" horiz-adv-x="535" 
d="M428 900l-111 -137h-124l80 137h155zM212 132h297v-132h-473v110l291 458h-284v132h460v-109z" />
    <glyph glyph-name="zacute" unicode="&#x17a;" horiz-adv-x="474" 
d="M396 700l-111 -137h-124l80 137h155zM216 121h222v-121h-395v86l211 293h-201v121h375v-86z" />
    <glyph glyph-name="Zdotaccent" unicode="&#x17b;" horiz-adv-x="535" 
d="M273 751q-32 0 -55 23t-23 55t23 54.5t55 22.5q31 0 54 -23t23 -54q0 -32 -23 -55t-54 -23zM212 132h297v-132h-473v110l291 458h-284v132h460v-109z" />
    <glyph glyph-name="zdotaccent" unicode="&#x17c;" horiz-adv-x="474" 
d="M241 551q-32 0 -55 23t-23 55t23 54.5t55 22.5q31 0 54 -23t23 -54q0 -32 -23 -55t-54 -23zM216 121h222v-121h-395v86l211 293h-201v121h375v-86z" />
    <glyph glyph-name="Zcaron" unicode="&#x17d;" horiz-adv-x="535" 
d="M204 755l-106 145h128l44 -65l43 65h128l-106 -145h-131zM212 132h297v-132h-473v110l291 458h-284v132h460v-109z" />
    <glyph glyph-name="zcaron" unicode="&#x17e;" horiz-adv-x="474" 
d="M172 555l-106 145h128l44 -65l43 65h128l-106 -145h-131zM216 121h222v-121h-395v86l211 293h-201v121h375v-86z" />
    <glyph glyph-name="florin" unicode="&#x192;" horiz-adv-x="441" 
d="M441 576q-32 18 -66 3t-42 -59l-18 -106h91v-124h-112l-56 -331q-18 -106 -82.5 -145t-155.5 -15v128q33 -18 67 -3t41 59l52 307h-84v124h106l22 131q18 106 82.5 145t154.5 15v-129z" />
    <glyph glyph-name="Scommaaccent" unicode="&#x218;" horiz-adv-x="583" 
d="M304 -14q-104 0 -175 46.5t-100 126.5l118 69q41 -107 161 -107q58 0 85 21t27 53q0 37 -33 57.5t-118 44.5q-47 14 -79.5 28t-65 37.5t-49.5 59.5t-17 84q0 95 67.5 151.5t162.5 56.5q85 0 149.5 -41.5t100.5 -115.5l-116 -67q-42 90 -134 90q-43 0 -67.5 -19.5
t-24.5 -50.5q0 -33 27.5 -53.5t105.5 -44.5q32 -10 48.5 -15.5t45 -17t44 -21.5t35.5 -27t30.5 -35t18 -43.5t7.5 -55.5q0 -97 -70.5 -154t-183.5 -57zM341 -263l30 200h-122l-10 -200h102z" />
    <glyph glyph-name="scommaaccent" unicode="&#x219;" horiz-adv-x="465" 
d="M178 358q0 -20 26.5 -32.5t64.5 -22t76 -24t64.5 -48.5t26.5 -85q0 -77 -57.5 -118.5t-143.5 -41.5q-154 0 -210 119l112 63q22 -65 98 -65q69 0 69 43q0 20 -26.5 32.5t-64.5 22.5t-76 25t-64.5 47.5t-26.5 81.5q0 74 54.5 116.5t135.5 42.5q61 0 111 -27.5t79 -78.5
l-110 -60q-24 51 -80 51q-25 0 -41.5 -11t-16.5 -30zM178 -263l10 200h122l-30 -200h-102z" />
    <glyph glyph-name="uni021A" unicode="&#x21a;" horiz-adv-x="540" 
d="M528 700v-132h-189v-568h-138v568h-188v132h515zM205 -263l10 200h122l-30 -200h-102z" />
    <glyph glyph-name="uni021B" unicode="&#x21b;" horiz-adv-x="385" 
d="M345 376h-113v-208q0 -26 13 -38t38 -13.5t62 0.5v-117q-133 -15 -187.5 25t-54.5 143v208h-87v124h87v101l129 39v-140h113v-124zM162 -263l10 200h122l-30 -200h-102z" />
    <glyph glyph-name="circumflex" unicode="&#x2c6;" horiz-adv-x="383" 
d="M363 555h-128l-43 65l-44 -65h-128l106 145h131z" />
    <glyph glyph-name="caron" unicode="&#x2c7;" horiz-adv-x="383" 
d="M235 700h128l-106 -145h-131l-106 145h128l44 -65z" />
    <glyph glyph-name="breve" unicode="&#x2d8;" horiz-adv-x="373" 
d="M186 547q-79 0 -122.5 38t-43.5 107h115q0 -52 51 -52q52 0 52 52h115q0 -69 -43.5 -107t-123.5 -38z" />
    <glyph glyph-name="dotaccent" unicode="&#x2d9;" horiz-adv-x="203" 
d="M98 551q-32 0 -55 23t-23 55t23 54.5t55 22.5t54.5 -23t22.5 -54q0 -32 -23 -55t-54 -23z" />
    <glyph glyph-name="ring" unicode="&#x2da;" horiz-adv-x="293" 
d="M146 539q-55 0 -90.5 34t-35.5 85t35.5 84.5t90.5 33.5q56 0 91 -33.5t35 -84.5q0 -52 -35 -85.5t-91 -33.5zM146 620q40 0 40 38q0 37 -40 37q-18 0 -28.5 -10.5t-10.5 -26.5q0 -17 10.5 -27.5t28.5 -10.5z" />
    <glyph glyph-name="ogonek" unicode="&#x2db;" horiz-adv-x="216" 
d="M116 -214q-43 0 -69.5 22.5t-26.5 65.5q0 57 66 126h110q-52 -55 -52 -95q-2 -27 25 -27q11 -1 27 5v-81q-38 -16 -80 -16z" />
    <glyph glyph-name="tilde" unicode="&#x2dc;" horiz-adv-x="379" 
d="M21 560q0 46 10.5 78.5t28.5 48.5t41.5 20.5t49.5 -2.5t52 -24q29 -20 40.5 -16t11.5 40h105q0 -57 -16.5 -93.5t-43 -48t-58 -6t-64.5 26.5q-29 20 -41 16t-12 -40h-104z" />
    <glyph glyph-name="hungarumlaut" unicode="&#x2dd;" horiz-adv-x="435" 
d="M20 555h128l84 138h-134zM193 555h128l94 138h-134z" />
    <glyph glyph-name="gravecomb" unicode="&#x300;" horiz-adv-x="0" 
d="M-20 563l-80 137h-155l111 -137h124z" />
    <glyph glyph-name="acutecomb" unicode="&#x301;" horiz-adv-x="0" 
d="M-255 563h124l111 137h-155z" />
    <glyph glyph-name="uni0302" unicode="&#x302;" horiz-adv-x="0" 
d="M-20 555h-128l-43 65l-44 -65h-128l106 145h131z" />
    <glyph glyph-name="tildecomb" unicode="&#x303;" horiz-adv-x="0" 
d="M-351 560q0 46 10.5 78.5t28.5 48.5t41.5 20.5t49.5 -2.5t52 -24q29 -20 40.5 -16t11.5 40h105q0 -57 -16.5 -93.5t-43 -48t-58 -6t-64.5 26.5q-29 20 -41 16t-12 -40h-104z" />
    <glyph glyph-name="uni0304" unicode="&#x304;" horiz-adv-x="0" 
d="M-310 564v105h290v-105h-290z" />
    <glyph glyph-name="uni0306" unicode="&#x306;" horiz-adv-x="0" 
d="M-187 547q-79 0 -122.5 38t-43.5 107h115q0 -52 51 -52q52 0 52 52h115q0 -69 -43.5 -107t-123.5 -38z" />
    <glyph glyph-name="uni0307" unicode="&#x307;" horiz-adv-x="0" 
d="M-97 551q-32 0 -55 23t-23 55t23 54.5t55 22.5q31 0 54 -23t23 -54q0 -32 -23 -55t-54 -23z" />
    <glyph glyph-name="uni0308" unicode="&#x308;" horiz-adv-x="0" 
d="M-277 549q-28 0 -48 19.5t-20 47.5t20 48t48 20t47.5 -20t19.5 -48t-19.5 -47.5t-47.5 -19.5zM-87 549q-28 0 -48 19.5t-20 47.5t20 48t48 20t47.5 -20t19.5 -48t-19.5 -47.5t-47.5 -19.5z" />
    <glyph glyph-name="uni030A" unicode="&#x30a;" horiz-adv-x="0" 
d="M-150 539q-55 0 -90.5 34t-35.5 85t35.5 84.5t90.5 33.5q56 0 91 -33.5t35 -84.5q0 -52 -35 -85.5t-91 -33.5zM-150 620q40 0 40 38q0 37 -40 37q-18 0 -28.5 -10.5t-10.5 -26.5q0 -17 10.5 -27.5t28.5 -10.5z" />
    <glyph glyph-name="uni030B" unicode="&#x30b;" horiz-adv-x="0" 
d="M-415 555h128l84 138h-134zM-242 555h128l94 138h-134z" />
    <glyph glyph-name="uni030C" unicode="&#x30c;" horiz-adv-x="0" 
d="M-148 700h128l-106 -145h-131l-106 145h128l44 -65z" />
    <glyph glyph-name="uni0312" unicode="&#x312;" horiz-adv-x="0" 
d="M-122 975l-30 -200h122l10 200h-102z" />
    <glyph glyph-name="uni0326" unicode="&#x326;" horiz-adv-x="0" 
d="M-50 -263l30 200h-122l-10 -200h102z" />
    <glyph glyph-name="uni0327" unicode="&#x327;" horiz-adv-x="0" 
d="M-90 -46q29 -7 49.5 -26.5t20.5 -51.5q0 -105 -220 -92v91q108 -7 108 20q0 20 -63 25v80h105v-46z" />
    <glyph glyph-name="uni0328" unicode="&#x328;" horiz-adv-x="0" 
d="M-108 -214q-43 0 -69.5 22.5t-26.5 65.5q0 57 66 126h110q-52 -55 -52 -95q-2 -27 25 -27q11 -1 27 5v-81q-38 -16 -80 -16z" />
    <glyph glyph-name="uni0394" unicode="&#x394;" horiz-adv-x="653" 
d="M412 700l238 -700h-647l238 700h171zM193 129h266l-133 418z" />
    <glyph glyph-name="uni03A9" unicode="&#x3a9;" horiz-adv-x="777" 
d="M752 365q0 -141 -107 -233h94v-132h-277v132q69 22 111 80.5t42 137.5q0 100 -65 165t-161 65t-161 -65t-65 -165q0 -79 41.5 -137.5t110.5 -80.5v-132h-276v132h93q-107 92 -107 233q0 147 106 248t258 101q151 0 257 -101t106 -248z" />
    <glyph glyph-name="pi" unicode="&#x3c0;" horiz-adv-x="665" 
d="M643 500v-121h-80v-379h-129v379h-199v-379h-129v379h-83v121h620z" />
    <glyph glyph-name="uni0401" unicode="&#x401;" horiz-adv-x="530" 
d="M184 749q-28 0 -48 19.5t-20 47.5t20 48t48 20t47.5 -20t19.5 -48t-19.5 -47.5t-47.5 -19.5zM374 749q-28 0 -48 19.5t-20 47.5t20 48t48 20t47.5 -20t19.5 -48t-19.5 -47.5t-47.5 -19.5zM203 132h295v-132h-433v700h428v-132h-290v-149h265v-130h-265v-157z" />
    <glyph glyph-name="uni0402" unicode="&#x402;" horiz-adv-x="703" 
d="M465 466q86 0 137 -50.5t51 -144.5v-77q0 -110 -53.5 -160.5t-163.5 -43.5v128q44 -3 62 14.5t18 61.5v63q0 85 -81 85q-47 0 -109 -20v-322h-137v568h-176v132h512v-132h-199v-124q72 22 139 22z" />
    <glyph glyph-name="uni0403" unicode="&#x403;" horiz-adv-x="475" 
d="M424 899l-111 -137h-124l80 137h155zM463 700v-132h-260v-568h-138v700h398z" />
    <glyph glyph-name="uni0404" unicode="&#x404;" horiz-adv-x="724" 
d="M396 121q59 0 107.5 26.5t73.5 72.5l119 -69q-45 -76 -125 -120.5t-175 -44.5q-158 0 -261 105t-103 259q0 155 103 259.5t261 104.5q94 0 174.5 -44.5t125.5 -120.5l-119 -69q-26 47 -74 73.5t-107 26.5q-85 0 -143 -44.5t-76 -120.5h312v-129h-312q18 -76 76 -120.5
t143 -44.5z" />
    <glyph glyph-name="uni0405" unicode="&#x405;" horiz-adv-x="583" 
d="M304 -14q-104 0 -175 46.5t-100 126.5l118 69q41 -107 161 -107q58 0 85 21t27 53q0 37 -33 57.5t-118 44.5q-47 14 -79.5 28t-65 37.5t-49.5 59.5t-17 84q0 95 67.5 151.5t162.5 56.5q85 0 149.5 -41.5t100.5 -115.5l-116 -67q-42 90 -134 90q-43 0 -67.5 -19.5
t-24.5 -50.5q0 -33 27.5 -53.5t105.5 -44.5q32 -10 48.5 -15.5t45 -17t44 -21.5t35.5 -27t30.5 -35t18 -43.5t7.5 -55.5q0 -97 -70.5 -154t-183.5 -57z" />
    <glyph glyph-name="uni0406" unicode="&#x406;" horiz-adv-x="268" 
d="M65 700h138v-700h-138v700z" />
    <glyph glyph-name="uni0407" unicode="&#x407;" horiz-adv-x="268" 
d="M39 749q-28 0 -48 19.5t-20 47.5t20 48t48 20t47.5 -20t19.5 -48t-19.5 -47.5t-47.5 -19.5zM229 749q-28 0 -48 19.5t-20 47.5t20 48t48 20t47.5 -20t19.5 -48t-19.5 -47.5t-47.5 -19.5zM65 700h138v-700h-138v700z" />
    <glyph glyph-name="uni0408" unicode="&#x408;" horiz-adv-x="569" 
d="M264 -14q-165 0 -231 133l119 68q33 -66 112 -66q55 0 82 26t27 71v482h137v-482q0 -110 -69 -171t-177 -61z" />
    <glyph glyph-name="uni0409" unicode="&#x409;" horiz-adv-x="961" 
d="M700 438q101 0 168.5 -62t67.5 -157q0 -96 -67.5 -157.5t-168.5 -61.5h-241v568h-187v-278q0 -91 -22 -153.5t-60.5 -92.5t-82 -40.5t-96.5 -5.5v128q62 -7 93 27t31 133v414h461v-262h104zM700 129q43 0 71 24t28 66t-28 66t-71 24h-104v-180h104z" />
    <glyph glyph-name="uni040A" unicode="&#x40a;" horiz-adv-x="958" 
d="M696 438q101 0 169 -62t68 -157q0 -96 -68 -157.5t-169 -61.5h-241v309h-252v-309h-138v700h138v-262h252v262h138v-262h103zM696 129q43 0 71 24t28 66t-28 66t-71 24h-103v-180h103z" />
    <glyph glyph-name="uni040B" unicode="&#x40b;" horiz-adv-x="708" 
d="M465 466q86 0 137 -50.5t51 -144.5v-271h-137v257q0 85 -81 85q-47 0 -109 -20v-322h-137v568h-176v132h512v-132h-199v-124q72 22 139 22z" />
    <glyph glyph-name="uni040C" unicode="&#x40c;" horiz-adv-x="615" 
d="M464 899l-111 -137h-124l80 137h155zM612 0h-159l-250 328v-328h-138v700h138v-309l240 309h159l-259 -340z" />
    <glyph glyph-name="uni040E" unicode="&#x40e;" horiz-adv-x="600" 
d="M447 875v-112h-290v112h290zM452 700h138l-210 -507q-84 -204 -276 -193v129q56 -5 90.5 15.5t57.5 66.5l-229 489h138l153 -338z" />
    <glyph glyph-name="uni040F" unicode="&#x40f;" horiz-adv-x="653" 
d="M450 700h138v-700h-193v-134h-137v134h-193v700h138v-568h247v568z" />
    <glyph glyph-name="uni0410" unicode="&#x410;" horiz-adv-x="668" 
d="M515 0l-42 126h-279l-42 -126h-149l245 700h171l246 -700h-150zM238 255h192l-96 286z" />
    <glyph glyph-name="uni0411" unicode="&#x411;" horiz-adv-x="585" 
d="M333 435q102 0 167 -60.5t65 -156.5q0 -97 -65 -157.5t-167 -60.5h-268v700h440v-132h-302v-133h130zM333 129q41 0 68 23.5t27 65.5t-27 65t-68 23h-130v-177h130z" />
    <glyph glyph-name="uni0412" unicode="&#x412;" horiz-adv-x="605" 
d="M488 363q92 -53 92 -160q0 -89 -63 -146t-155 -57h-297v700h276q90 0 151.5 -55.5t61.5 -141.5q0 -87 -66 -140zM341 571h-138v-154h138q32 0 53.5 22t21.5 55t-21 55t-54 22zM362 129q35 0 58 23.5t23 59.5q0 35 -23 58.5t-58 23.5h-159v-165h159z" />
    <glyph glyph-name="uni0413" unicode="&#x413;" horiz-adv-x="475" 
d="M463 700v-132h-260v-568h-138v700h398z" />
    <glyph glyph-name="uni0414" unicode="&#x414;" horiz-adv-x="705" 
d="M603 132h75v-266h-138v134h-387v-134h-138v266h68q58 81 58 237v331h462v-568zM231 132h234v439h-186v-204q0 -152 -48 -235z" />
    <glyph glyph-name="uni0415" unicode="&#x415;" horiz-adv-x="530" 
d="M203 132h295v-132h-433v700h428v-132h-290v-149h265v-130h-265v-157z" />
    <glyph glyph-name="uni0416" unicode="&#x416;" horiz-adv-x="904" 
d="M892 0h-154l-217 319v-319h-138v319l-217 -319h-153l243 357l-233 343h153l207 -312v312h138v-312l207 312h154l-234 -343z" />
    <glyph glyph-name="uni0417" unicode="&#x417;" horiz-adv-x="561" 
d="M436 362q100 -53 100 -166q0 -94 -71 -152t-183 -58q-195 0 -261 165l119 67q32 -102 142 -102q57 0 87 24t30 65t-29.5 65t-84.5 24h-87v123h66q52 0 81 22.5t29 61.5t-25 61.5t-74 22.5q-90 0 -126 -88l-117 68q71 149 243 149q104 0 170 -56t66 -148q0 -94 -75 -148z
" />
    <glyph glyph-name="uni0418" unicode="&#x418;" horiz-adv-x="673" 
d="M470 0v427l-300 -427h-105v700h138v-428l300 428h105v-700h-138z" />
    <glyph glyph-name="uni0419" unicode="&#x419;" horiz-adv-x="673" 
d="M191 764v112h290v-112h-290zM470 0v427l-300 -427h-105v700h138v-428l300 428h105v-700h-138z" />
    <glyph glyph-name="uni041A" unicode="&#x41a;" horiz-adv-x="615" 
d="M612 0h-159l-250 328v-328h-138v700h138v-309l240 309h159l-259 -340z" />
    <glyph glyph-name="uni041B" unicode="&#x41b;" horiz-adv-x="676" 
d="M11 0v128q62 -9 93 25t31 133v414h476v-700h-137v568h-202v-278q0 -91 -22 -153t-60.5 -92t-82 -40t-96.5 -5z" />
    <glyph glyph-name="uni041C" unicode="&#x41c;" horiz-adv-x="815" 
d="M750 700v-700h-137v454l-197 -325h-16l-197 324v-453h-138v700h142l201 -331l200 331h142z" />
    <glyph glyph-name="uni041D" unicode="&#x41d;" horiz-adv-x="665" 
d="M463 700h137v-700h-137v290h-260v-290h-138v700h138v-278h260v278z" />
    <glyph glyph-name="uni041E" unicode="&#x41e;" horiz-adv-x="792" 
d="M396 -14q-152 0 -257.5 105.5t-105.5 258.5t105.5 258.5t257.5 105.5t258 -105.5t106 -258.5t-106 -258.5t-258 -105.5zM396 121q96 0 161 64.5t65 164.5t-65 165t-161 65t-161 -65t-65 -165t65 -164.5t161 -64.5z" />
    <glyph glyph-name="uni041F" unicode="&#x41f;" horiz-adv-x="653" 
d="M588 700v-700h-138v568h-247v-568h-138v700h523z" />
    <glyph glyph-name="uni0420" unicode="&#x420;" horiz-adv-x="590" 
d="M326 700q101 0 170 -68t69 -167t-69 -167t-170 -68h-123v-230h-138v700h261zM326 359q44 0 73 30.5t29 75.5q0 46 -29 76t-73 30h-123v-212h123z" />
    <glyph glyph-name="uni0421" unicode="&#x421;" horiz-adv-x="726" 
d="M397 -14q-158 0 -261 105t-103 259q0 155 103 259.5t261 104.5q95 0 175.5 -44.5t125.5 -120.5l-119 -69q-26 47 -74 73.5t-108 26.5q-102 0 -164.5 -64t-62.5 -166q0 -101 62.5 -165t164.5 -64q60 0 108.5 26.5t73.5 72.5l119 -69q-45 -76 -125 -120.5t-176 -44.5z" />
    <glyph glyph-name="uni0422" unicode="&#x422;" horiz-adv-x="540" 
d="M528 700v-132h-189v-568h-138v568h-188v132h515z" />
    <glyph glyph-name="uni0423" unicode="&#x423;" horiz-adv-x="600" 
d="M452 700h138l-210 -507q-84 -204 -276 -193v129q56 -5 90.5 15.5t57.5 66.5l-229 489h138l153 -338z" />
    <glyph glyph-name="uni0424" unicode="&#x424;" horiz-adv-x="819" 
d="M797 350q0 -120 -87 -195t-233 -89v-81h-135v81q-147 15 -233 89.5t-86 194.5t86 194.5t233 89.5v81h135v-81q146 -14 233 -89t87 -195zM477 192q182 21 182 158q0 138 -182 159v-317zM160 350q0 -137 182 -157v315q-182 -20 -182 -158z" />
    <glyph glyph-name="uni0425" unicode="&#x425;" horiz-adv-x="610" 
d="M598 0h-157l-136 228l-136 -228h-156l214 359l-203 341h156l125 -210l125 210h156l-203 -340z" />
    <glyph glyph-name="uni0426" unicode="&#x426;" horiz-adv-x="690" 
d="M588 132h75v-266h-138v134h-460v700h138v-568h247v568h138v-568z" />
    <glyph glyph-name="uni0427" unicode="&#x427;" horiz-adv-x="633" 
d="M430 700h138v-700h-138v256q-64 -27 -137 -27q-106 0 -174.5 59.5t-68.5 161.5v250h138v-232q0 -50 29.5 -78.5t78.5 -28.5q73 0 134 29v310z" />
    <glyph glyph-name="uni0428" unicode="&#x428;" horiz-adv-x="943" 
d="M740 700h138v-700h-813v700h138v-568h200v568h137v-568h200v568z" />
    <glyph glyph-name="uni0429" unicode="&#x429;" horiz-adv-x="980" 
d="M878 132h75v-266h-138v134h-750v700h138v-568h200v568h137v-568h200v568h138v-568z" />
    <glyph glyph-name="uni042A" unicode="&#x42a;" horiz-adv-x="693" 
d="M168 0v568h-168v132h305v-230h124q101 0 170 -68t69 -167t-69 -167t-170 -68h-261zM305 129h124q44 0 72.5 30t28.5 76t-28.5 76t-72.5 30h-124v-212z" />
    <glyph glyph-name="uni042B" unicode="&#x42b;" horiz-adv-x="831" 
d="M65 0v700h138v-230h123q101 0 170 -68t69 -167t-69 -167t-170 -68h-261zM629 0v700h137v-700h-137zM203 129h123q44 0 73 30t29 76t-29 76t-73 30h-123v-212z" />
    <glyph glyph-name="uni042C" unicode="&#x42c;" horiz-adv-x="590" 
d="M326 470q101 0 170 -68t69 -167t-69 -167t-170 -68h-261v700h138v-230h123zM326 129q44 0 73 30t29 76q0 45 -29 75.5t-73 30.5h-123v-212h123z" />
    <glyph glyph-name="uni042D" unicode="&#x42d;" horiz-adv-x="724" 
d="M328 714q158 0 261 -104.5t103 -259.5q0 -154 -103 -259t-261 -105q-95 0 -175 44.5t-125 120.5l119 69q25 -46 73.5 -72.5t107.5 -26.5q85 0 143 44.5t76 120.5h-312v129h312q-18 76 -76 120.5t-143 44.5q-59 0 -107 -26.5t-74 -73.5l-119 69q45 76 125.5 120.5
t174.5 44.5z" />
    <glyph glyph-name="uni042E" unicode="&#x42e;" horiz-adv-x="1055" 
d="M659 714q152 0 258 -105.5t106 -258.5q0 -152 -106 -258t-258 -106q-136 0 -235.5 87t-119.5 221h-101v-294h-138v700h138v-274h104q26 126 123.5 207t228.5 81zM659 121q96 0 161 64.5t65 164.5t-65 165t-161 65q-97 0 -161.5 -64t-64.5 -166q0 -100 65 -164.5
t161 -64.5z" />
    <glyph glyph-name="uni042F" unicode="&#x42f;" horiz-adv-x="624" 
d="M559 700v-700h-138v243h-79l-161 -243h-155l171 258q-67 24 -109 82t-42 128q0 96 68 164t165 68h280zM279 364h142v207h-142q-39 0 -67 -30t-28 -73t28 -73.5t67 -30.5z" />
    <glyph glyph-name="uni0430" unicode="&#x430;" 
d="M439 500h129v-500h-129v59q-58 -73 -163 -73q-100 0 -171.5 76.5t-71.5 187.5t71.5 187.5t171.5 76.5q105 0 163 -73v59zM300 109q60 0 99.5 39.5t39.5 101.5t-39.5 101.5t-99.5 39.5t-99 -39.5t-39 -101.5t39 -101.5t99 -39.5z" />
    <glyph glyph-name="uni0431" unicode="&#x431;" horiz-adv-x="567" 
d="M296 -14q-118 0 -190.5 76t-72.5 193q0 128 38 197.5t153 126.5q17 8 48 22.5t42.5 20.5t31.5 18t28.5 21.5t18.5 24.5t16 33l106 -61q-13 -61 -58.5 -94.5t-136.5 -68.5q-64 -25 -93 -50t-42 -60q56 57 150 57q83 0 148 -60.5t65 -160.5q0 -103 -69.5 -169t-182.5 -66z
M295 104q54 0 89 33t35 84t-35 84.5t-90 33.5q-49 0 -87.5 -31t-38.5 -83q0 -53 36.5 -87t90.5 -34z" />
    <glyph glyph-name="uni0432" unicode="&#x432;" horiz-adv-x="511" 
d="M419 256q70 -34 70 -114q0 -63 -43.5 -102.5t-123.5 -39.5h-263v500h243q79 0 122.5 -39t43.5 -102q0 -66 -49 -103zM290 394h-110v-90h110q55 0 55 45t-55 45zM307 109q56 0 56 48q0 21 -15 33t-41 12h-127v-93h127z" />
    <glyph glyph-name="uni0433" unicode="&#x433;" horiz-adv-x="411" 
d="M401 500v-124h-213v-376h-129v500h342z" />
    <glyph glyph-name="uni0434" unicode="&#x434;" horiz-adv-x="598" 
d="M509 121h66v-255h-126v134h-310v-134h-126v255h61q43 64 43 177v202h392v-379zM212 121h171v263h-140v-86q0 -106 -31 -177z" />
    <glyph glyph-name="uni0435" unicode="&#x435;" horiz-adv-x="581" 
d="M168 197q26 -94 141 -94q74 0 112 50l104 -60q-74 -107 -218 -107q-124 0 -199 75t-75 189q0 113 74 188.5t190 75.5q110 0 181.5 -76t71.5 -188q0 -25 -5 -53h-377zM166 297h255q-11 51 -45.5 76t-78.5 25q-52 0 -86 -26.5t-45 -74.5z" />
    <glyph glyph-name="uni0436" unicode="&#x436;" horiz-adv-x="746" 
d="M734 0h-145l-153 224v-224h-126v224l-153 -224h-144l180 253l-170 247h144l143 -217v217h126v-217l143 217h145l-171 -247z" />
    <glyph glyph-name="uni0437" unicode="&#x437;" horiz-adv-x="450" 
d="M352 255q76 -37 76 -119q0 -64 -53 -107t-149 -43q-152 0 -207 120l105 62q24 -68 103 -68q36 0 55.5 14t19.5 38q0 46 -59 46h-71v110h54q58 0 58 46q0 22 -17 35t-45 13q-65 0 -93 -63l-104 60q57 115 195 115q86 0 136.5 -43.5t50.5 -105.5q0 -73 -55 -110z" />
    <glyph glyph-name="uni0438" unicode="&#x438;" horiz-adv-x="575" 
d="M420 500h96v-500h-126v284l-235 -284h-96v500h126v-284z" />
    <glyph glyph-name="uni0439" unicode="&#x439;" horiz-adv-x="575" 
d="M143 564v112h290v-112h-290zM420 500h96v-500h-126v284l-235 -284h-96v500h126v-284z" />
    <glyph glyph-name="uni043A" unicode="&#x43a;" horiz-adv-x="525" 
d="M520 0h-150l-182 227v-227h-129v500h129v-220l172 220h154l-201 -247z" />
    <glyph glyph-name="uni043B" unicode="&#x43b;" horiz-adv-x="546" 
d="M488 500v-500h-129v376h-138v-167q0 -232 -211 -209v121q40 -10 61 13.5t21 81.5v284h396z" />
    <glyph glyph-name="uni043C" unicode="&#x43c;" horiz-adv-x="638" 
d="M579 500v-500h-125v292l-127 -200h-16l-128 202v-294h-124v500h127l133 -210l133 210h127z" />
    <glyph glyph-name="uni043D" unicode="&#x43d;" horiz-adv-x="575" 
d="M387 500h129v-500h-129v190h-199v-190h-129v500h129v-189h199v189z" />
    <glyph glyph-name="uni043E" unicode="&#x43e;" horiz-adv-x="594" 
d="M297 -14q-111 0 -187.5 76.5t-76.5 187.5t76.5 187.5t187.5 76.5t188 -76.5t77 -187.5t-77 -187.5t-188 -76.5zM297 112q58 0 97 39t39 99t-39 99t-97 39t-96.5 -39t-38.5 -99t38.5 -99t96.5 -39z" />
    <glyph glyph-name="uni043F" unicode="&#x43f;" horiz-adv-x="575" 
d="M516 500v-500h-129v379h-199v-379h-129v500h457z" />
    <glyph glyph-name="uni0440" unicode="&#x440;" 
d="M350 514q101 0 172.5 -76.5t71.5 -187.5t-71.5 -187.5t-172.5 -76.5q-105 0 -162 73v-259h-129v700h129v-59q57 73 162 73zM326 109q60 0 99.5 39.5t39.5 101.5t-39.5 101.5t-99.5 39.5t-99 -39.5t-39 -101.5t39 -101.5t99 -39.5z" />
    <glyph glyph-name="uni0441" unicode="&#x441;" horiz-adv-x="536" 
d="M297 -14q-113 0 -188.5 76t-75.5 188t75.5 188t188.5 76q73 0 133 -35t91 -94l-111 -65q-15 31 -45.5 49t-68.5 18q-58 0 -96 -38.5t-38 -98.5q0 -59 38 -97.5t96 -38.5q39 0 69.5 17.5t45.5 48.5l112 -64q-33 -59 -93 -94.5t-133 -35.5z" />
    <glyph glyph-name="uni0442" unicode="&#x442;" horiz-adv-x="463" 
d="M453 500v-124h-156v-376h-129v376h-158v124h443z" />
    <glyph glyph-name="uni0443" unicode="&#x443;" horiz-adv-x="525" 
d="M385 500h138l-182 -500q-76 -211 -264 -200v120q51 -1 80.5 19t47.5 67l-202 494h137l134 -336z" />
    <glyph glyph-name="uni0444" unicode="&#x444;" horiz-adv-x="685" 
d="M653 250q0 -100 -66 -171t-181 -87v-192h-126v192q-115 16 -181 87t-66 171t66 171t181 87v192h126v-192q115 -16 181 -87t66 -171zM160 250q0 -50 31 -86t89 -49v270q-58 -13 -89 -48.5t-31 -86.5zM406 116q58 13 88.5 48.5t30.5 85.5q0 51 -30.5 86.5t-88.5 48.5v-269z
" />
    <glyph glyph-name="uni0445" unicode="&#x445;" horiz-adv-x="525" 
d="M520 0h-149l-108 152l-109 -152h-149l183 255l-175 245h149l101 -141l101 141h148l-175 -244z" />
    <glyph glyph-name="uni0446" unicode="&#x446;" horiz-adv-x="605" 
d="M499 121h84v-255h-126v134h-398v500h129v-379h182v379h129v-379z" />
    <glyph glyph-name="uni0447" unicode="&#x447;" horiz-adv-x="541" 
d="M354 500h129v-500h-129v159q-56 -18 -119 -18q-91 0 -145.5 46t-54.5 134v179h129v-164q0 -75 93 -75q54 0 97 19v220z" />
    <glyph glyph-name="uni0448" unicode="&#x448;" horiz-adv-x="833" 
d="M645 500h129v-500h-715v500h129v-379h164v379h129v-379h164v379z" />
    <glyph glyph-name="uni0449" unicode="&#x449;" horiz-adv-x="848" 
d="M759 121h66v-255h-126v134h-640v500h129v-379h156v379h129v-379h157v379h129v-379z" />
    <glyph glyph-name="uni044A" unicode="&#x44a;" horiz-adv-x="574" 
d="M363 340q85 0 136.5 -46.5t51.5 -123.5t-51.5 -123.5t-136.5 -46.5h-227v376h-136v124h265v-160h98zM363 114q27 0 44.5 15.5t17.5 40.5t-17.5 41t-44.5 16h-98v-113h98z" />
    <glyph glyph-name="uni044B" unicode="&#x44b;" horiz-adv-x="717" 
d="M285 340q85 0 137 -46.5t52 -123.5t-52 -123.5t-137 -46.5h-226v500h129v-160h97zM529 500h129v-500h-129v500zM286 114q27 0 44.5 15.5t17.5 40.5t-17.5 41t-44.5 16h-98v-113h98z" />
    <glyph glyph-name="uni044C" unicode="&#x44c;" horiz-adv-x="496" 
d="M285 340q85 0 137 -46.5t52 -123.5t-52 -123.5t-137 -46.5h-226v500h129v-160h97zM286 114q27 0 44.5 15.5t17.5 40.5t-17.5 41t-44.5 16h-98v-113h98z" />
    <glyph glyph-name="uni044D" unicode="&#x44d;" horiz-adv-x="537" 
d="M243 514q114 0 187.5 -73.5t73.5 -190.5t-73.5 -190.5t-188.5 -73.5q-77 0 -138 35.5t-91 94.5l109 63q13 -31 45 -50t77 -19q42 0 74.5 22.5t47.5 59.5h-170v116h170q-15 37 -47.5 59.5t-74.5 22.5q-88 0 -121 -68l-109 63q32 59 92.5 94t136.5 35z" />
    <glyph glyph-name="uni044E" unicode="&#x44e;" horiz-adv-x="811" 
d="M514 514q111 0 188 -76.5t77 -187.5t-77 -187.5t-188 -76.5q-94 0 -164 57t-90 147h-72v-190h-129v500h129v-189h73q20 89 90 146t163 57zM514 112q58 0 97 39t39 99t-39 99t-97 39t-96.5 -39t-38.5 -99t38.5 -99t96.5 -39z" />
    <glyph glyph-name="uni044F" unicode="&#x44f;" horiz-adv-x="519" 
d="M460 500v-500h-126v156h-45l-115 -156h-149l125 171q-48 20 -76.5 63.5t-28.5 93.5q0 70 50 121t131 51h234zM236 385q-28 0 -46.5 -16.5t-18.5 -44.5q0 -27 18.5 -43t46.5 -16h98v120h-98z" />
    <glyph glyph-name="uni0451" unicode="&#x451;" horiz-adv-x="581" 
d="M196 553q-28 0 -48 19.5t-20 47.5t20 48t48 20t47.5 -20t19.5 -48t-19.5 -47.5t-47.5 -19.5zM386 553q-28 0 -48 19.5t-20 47.5t20 48t48 20t47.5 -20t19.5 -48t-19.5 -47.5t-47.5 -19.5zM168 197q26 -94 141 -94q74 0 112 50l104 -60q-74 -107 -218 -107q-124 0 -199 75
t-75 189q0 113 74 188.5t190 75.5q110 0 181.5 -76t71.5 -188q0 -25 -5 -53h-377zM166 297h255q-11 51 -45.5 76t-78.5 25q-52 0 -86 -26.5t-45 -74.5z" />
    <glyph glyph-name="uni0452" unicode="&#x452;" horiz-adv-x="583" 
d="M343 514q83 0 136.5 -55t53.5 -152v-317q0 -110 -54 -160.5t-164 -43.5v124q46 -3 67.5 16t21.5 64v301q0 50 -27.5 76.5t-72.5 26.5q-50 0 -80 -31t-30 -93v-270h-129v554h-62v84h62v62h129v-62h141v-84h-141v-111q46 71 149 71z" />
    <glyph glyph-name="uni0453" unicode="&#x453;" horiz-adv-x="411" 
d="M369 700l-111 -137h-124l80 137h155zM401 500v-124h-213v-376h-129v500h342z" />
    <glyph glyph-name="uni0454" unicode="&#x454;" horiz-adv-x="537" 
d="M415 179l109 -63q-30 -59 -91 -94.5t-138 -35.5q-115 0 -188.5 73.5t-73.5 190.5t73.5 190.5t187.5 73.5q76 0 136.5 -35t92.5 -94l-109 -63q-33 68 -121 68q-42 0 -74.5 -22.5t-47.5 -59.5h170v-116h-170q15 -37 47.5 -59.5t74.5 -22.5q45 0 77 19t45 50z" />
    <glyph glyph-name="uni0455" unicode="&#x455;" horiz-adv-x="465" 
d="M178 358q0 -20 26.5 -32.5t64.5 -22t76 -24t64.5 -48.5t26.5 -85q0 -77 -57.5 -118.5t-143.5 -41.5q-154 0 -210 119l112 63q22 -65 98 -65q69 0 69 43q0 20 -26.5 32.5t-64.5 22.5t-76 25t-64.5 47.5t-26.5 81.5q0 74 54.5 116.5t135.5 42.5q61 0 111 -27.5t79 -78.5
l-110 -60q-24 51 -80 51q-25 0 -41.5 -11t-16.5 -30z" />
    <glyph glyph-name="uni0456" unicode="&#x456;" horiz-adv-x="247" 
d="M123 560q-32 0 -55.5 23.5t-23.5 55.5t23.5 56t55.5 24q33 0 56.5 -24t23.5 -56t-23.5 -55.5t-56.5 -23.5zM59 0v500h129v-500h-129z" />
    <glyph glyph-name="uni0457" unicode="&#x457;" horiz-adv-x="247" 
d="M28 549q-28 0 -48 19.5t-20 47.5t20 48t48 20t47.5 -20t19.5 -48t-19.5 -47.5t-47.5 -19.5zM218 549q-28 0 -48 19.5t-20 47.5t20 48t48 20t47.5 -20t19.5 -48t-19.5 -47.5t-47.5 -19.5zM59 0v500h129v-500h-129z" />
    <glyph glyph-name="uni0458" unicode="&#x458;" horiz-adv-x="264" 
d="M141 560q-33 0 -56.5 23.5t-23.5 55.5t23.5 56t56.5 24q32 0 55.5 -24t23.5 -56t-23.5 -55.5t-55.5 -23.5zM76 -10v510h129v-510q0 -110 -53.5 -160.5t-164.5 -43.5v124q46 -3 67.5 16t21.5 64z" />
    <glyph glyph-name="uni0459" unicode="&#x459;" horiz-adv-x="764" 
d="M570 328q79 0 125 -44t46 -120t-47 -120t-124 -44h-221v376h-128v-167q0 -229 -211 -215v121q82 -11 82 101v284h386v-172h92zM571 114q22 0 37 13t15 37t-15 37t-37 13h-93v-100h93z" />
    <glyph glyph-name="uni045A" unicode="&#x45a;" horiz-adv-x="790" 
d="M589 328q79 0 128.5 -44.5t49.5 -119.5t-50 -119.5t-128 -44.5h-222v207h-187v-207h-129v500h129v-172h187v172h129v-172h93zM589 114q22 0 37 13t15 37t-15 37t-37 13h-93v-100h93z" />
    <glyph glyph-name="uni045B" unicode="&#x45b;" horiz-adv-x="583" 
d="M343 514q83 0 136.5 -55t53.5 -152v-307h-129v291q0 50 -27.5 76.5t-72.5 26.5q-50 0 -80 -31t-30 -93v-270h-129v554h-62v84h62v62h129v-62h141v-84h-141v-111q46 71 149 71z" />
    <glyph glyph-name="uni045C" unicode="&#x45c;" horiz-adv-x="525" 
d="M424 700l-111 -137h-124l80 137h155zM520 0h-150l-182 227v-227h-129v500h129v-220l172 220h154l-201 -247z" />
    <glyph glyph-name="uni045E" unicode="&#x45e;" horiz-adv-x="525" 
d="M408 676v-112h-290v112h290zM385 500h138l-182 -500q-76 -211 -264 -200v120q51 -1 80.5 19t47.5 67l-202 494h137l134 -336z" />
    <glyph glyph-name="uni045F" unicode="&#x45f;" horiz-adv-x="575" 
d="M387 500h129v-500h-165v-134h-126v134h-166v500h129v-379h199v379z" />
    <glyph glyph-name="uni0490" unicode="&#x490;" horiz-adv-x="475" 
d="M325 820h138v-252h-260v-568h-138v700h260v120z" />
    <glyph glyph-name="uni0491" unicode="&#x491;" horiz-adv-x="411" 
d="M275 601h126v-225h-213v-376h-129v500h216v101z" />
    <glyph glyph-name="Wgrave" unicode="&#x1e80;" horiz-adv-x="999" 
d="M611 763l-80 137h-155l111 -137h124zM211 0l-196 700h145l134 -519l146 519h118l147 -519l134 519h145l-196 -700h-157l-132 462l-131 -462h-157z" />
    <glyph glyph-name="wgrave" unicode="&#x1e81;" horiz-adv-x="770" 
d="M467 563h-124l-111 137h155zM622 500h137l-159 -500h-123l-92 303l-92 -303h-123l-159 500h137l85 -307l91 307h122l91 -308z" />
    <glyph glyph-name="Wacute" unicode="&#x1e82;" horiz-adv-x="999" 
d="M449 763h124l111 137h-155zM211 0l-196 700h145l134 -519l146 519h118l147 -519l134 519h145l-196 -700h-157l-132 462l-131 -462h-157z" />
    <glyph glyph-name="wacute" unicode="&#x1e83;" horiz-adv-x="770" 
d="M540 700l-111 -137h-124l80 137h155zM622 500h137l-159 -500h-123l-92 303l-92 -303h-123l-159 500h137l85 -307l91 307h122l91 -308z" />
    <glyph glyph-name="Wdieresis" unicode="&#x1e84;" horiz-adv-x="999" 
d="M434 749q-28 0 -48 19.5t-20 47.5t20 48t48 20t47.5 -20t19.5 -48t-19.5 -47.5t-47.5 -19.5zM624 749q-28 0 -48 19.5t-20 47.5t20 48t48 20t47.5 -20t19.5 -48t-19.5 -47.5t-47.5 -19.5zM211 0l-196 700h145l134 -519l146 519h118l147 -519l134 519h145l-196 -700h-157
l-132 462l-131 -462h-157z" />
    <glyph glyph-name="wdieresis" unicode="&#x1e85;" horiz-adv-x="770" 
d="M290 549q-28 0 -48 19.5t-20 47.5t20 48t48 20t47.5 -20t19.5 -48t-19.5 -47.5t-47.5 -19.5zM480 549q-28 0 -48 19.5t-20 47.5t20 48t48 20t47.5 -20t19.5 -48t-19.5 -47.5t-47.5 -19.5zM622 500h137l-159 -500h-123l-92 303l-92 -303h-123l-159 500h137l85 -307l91 307
h122l91 -308z" />
    <glyph glyph-name="Ygrave" unicode="&#x1ef2;" horiz-adv-x="621" 
d="M392 763h-124l-111 137h155zM619 700l-240 -427v-273h-137v273l-239 427h156l152 -292l152 292h156z" />
    <glyph glyph-name="ygrave" unicode="&#x1ef3;" horiz-adv-x="525" 
d="M345 563h-124l-111 137h155zM385 500h138l-182 -500q-39 -108 -103.5 -156.5t-160.5 -43.5v120q52 -1 82.5 22t48.5 74l-205 484h141l130 -336z" />
    <glyph glyph-name="endash" unicode="&#x2013;" horiz-adv-x="645" 
d="M65 240v124h515v-124h-515z" />
    <glyph glyph-name="emdash" unicode="&#x2014;" horiz-adv-x="745" 
d="M65 240v124h615v-124h-615z" />
    <glyph glyph-name="quoteleft" unicode="&#x2018;" horiz-adv-x="278" 
d="M49 422l75 278h105l-40 -278h-140z" />
    <glyph glyph-name="quoteright" unicode="&#x2019;" horiz-adv-x="278" 
d="M229 701l-75 -278h-105l40 278h140z" />
    <glyph glyph-name="quotesinglbase" unicode="&#x201a;" horiz-adv-x="278" 
d="M229 138l-75 -278h-105l40 278h140z" />
    <glyph glyph-name="quotedblleft" unicode="&#x201c;" horiz-adv-x="463" 
d="M49 422l75 278h105l-40 -278h-140zM234 422l75 278h105l-40 -278h-140z" />
    <glyph glyph-name="quotedblright" unicode="&#x201d;" horiz-adv-x="463" 
d="M229 701l-75 -278h-105l40 278h140zM414 701l-75 -278h-105l40 278h140z" />
    <glyph glyph-name="quotedblbase" unicode="&#x201e;" horiz-adv-x="463" 
d="M229 138l-75 -278h-105l40 278h140zM414 138l-75 -278h-105l40 278h140z" />
    <glyph glyph-name="dagger" unicode="&#x2020;" horiz-adv-x="480" 
d="M435 565v-124h-130v-441h-129v441h-131v124h131v135h129v-135h130z" />
    <glyph glyph-name="daggerdbl" unicode="&#x2021;" horiz-adv-x="480" 
d="M435 441h-130v-182h130v-124h-130v-135h-129v135h-131v124h131v182h-131v124h131v135h129v-135h130v-124z" />
    <glyph glyph-name="bullet" unicode="&#x2022;" horiz-adv-x="360" 
d="M182 213q-58 0 -98.5 40.5t-40.5 98.5q0 56 40.5 96t98.5 40q56 0 96 -40t40 -96q0 -58 -40 -98.5t-96 -40.5z" />
    <glyph glyph-name="ellipsis" unicode="&#x2026;" horiz-adv-x="723" 
d="M134 -13q-35 0 -60 25t-25 60t25 60t60 25t60 -25t25 -60t-25 -60t-60 -25zM362 -13q-35 0 -60 25t-25 60t25 60t60 25t60 -25t25 -60t-25 -60t-60 -25zM589 -13q-35 0 -60 25t-25 60t25 60t60 25t60 -25t25 -60t-25 -60t-60 -25z" />
    <glyph glyph-name="perthousand" unicode="&#x2030;" horiz-adv-x="1139" 
d="M214 384q-72 0 -120.5 48t-48.5 117t48.5 117t120.5 48t120 -47.5t48 -117.5t-48 -117.5t-120 -47.5zM116 106l456 507l61 -34l-457 -508zM213 485q27 0 45 18.5t18 45.5t-18 45t-45 18t-44.5 -18t-17.5 -45t17.5 -45.5t44.5 -18.5zM552 -12q-72 0 -120 48t-48 117
t48 117t120 48t120 -48t48 -117t-48 -117t-120 -48zM926 -12q-72 0 -120.5 48t-48.5 117t48.5 117t120.5 48q71 0 119.5 -48t48.5 -117t-48.5 -117t-119.5 -48zM552 89q27 0 44.5 19t17.5 45q0 27 -17.5 45.5t-44.5 18.5t-44.5 -18.5t-17.5 -45.5t17.5 -45.5t44.5 -18.5z
M925 89q28 0 45.5 19t17.5 45q0 27 -17.5 45.5t-45.5 18.5q-27 0 -44.5 -18.5t-17.5 -45.5t17.5 -45.5t44.5 -18.5z" />
    <glyph glyph-name="guilsinglleft" unicode="&#x2039;" horiz-adv-x="355" 
d="M292 497l-110 -188l110 -187h-119l-110 187l110 188h119z" />
    <glyph glyph-name="guilsinglright" unicode="&#x203a;" horiz-adv-x="355" 
d="M182 497l110 -188l-110 -187h-119l110 187l-110 188h119z" />
    <glyph glyph-name="fraction" unicode="&#x2044;" horiz-adv-x="190" 
d="M-60 0h-90l400 700h90z" />
    <glyph glyph-name="Euro" unicode="&#x20ac;" horiz-adv-x="611" 
d="M475 204l114 -65q-68 -153 -229 -153q-111 0 -182.5 73t-91.5 198h-70v78h63v15v24h-63v77h71q21 122 92 192.5t181 70.5q155 0 226 -146l-115 -66q-37 78 -111 78q-105 0 -134 -129h205v-77h-215v-24v-15h215v-78h-207q28 -136 136 -136q76 0 115 83z" />
    <glyph glyph-name="uni20BD" unicode="&#x20bd;" horiz-adv-x="601" 
d="M349 243h-124v-55h223v-88h-223v-100h-137v100h-75v88h75v55h-75v121h75v336h261q99 0 167.5 -68t68.5 -164t-68 -160.5t-168 -64.5zM225 571v-207h124q42 0 70.5 30t28.5 74t-28.5 73.5t-70.5 29.5h-124z" />
    <glyph glyph-name="uni2116" unicode="&#x2116;" horiz-adv-x="1039" 
d="M839 383q-72 0 -120 48.5t-48 116.5q0 69 48 117t120 48t120 -48t48 -117t-47.5 -117t-120.5 -48zM470 700h138v-700h-105l-300 428v-428h-138v700h105l300 -427v427zM839 488q26 0 42.5 17t16.5 43t-16.5 43t-42.5 17t-42.5 -17t-16.5 -43t16.5 -43t42.5 -17zM684 208
v121h312v-121h-312z" />
    <glyph glyph-name="trademark" unicode="&#x2122;" horiz-adv-x="473" 
d="M204 700v-56h-55v-144h-61v144h-55v56h171zM383 700h58v-200h-58v109l-48 -73h-5l-48 73v-109h-58v200h58l51 -77z" />
    <glyph glyph-name="estimated" unicode="&#x212e;" horiz-adv-x="790" 
d="M395 710q163 0 266.5 -104t103.5 -256q0 -15 -15 -15h-560q-15 0 -15 -15v-192q0 -11 7 -19q84 -89 233 -89q145 0 231 97q8 9 18 9h37q10 0 13 -6t-4 -13q-109 -117 -295 -117q-176 0 -283 103.5t-107 256.5q0 152 103.5 256t266.5 104zM615 572q0 11 -7 19
q-84 89 -213 89t-213 -89q-7 -8 -7 -19v-192q0 -15 15 -15h410q15 0 15 15v192z" />
    <glyph glyph-name="oneeighth" unicode="&#x215b;" horiz-adv-x="806" 
d="M217 300h-107v292l-82 -23l-25 88l120 43h94v-400zM517 700h90l-400 -700h-90zM727 210q58 -34 58 -101q0 -56 -40.5 -89.5t-112.5 -33.5t-113 33.5t-41 89.5q0 67 59 101q-45 31 -45 84q0 55 39.5 87.5t100.5 32.5t100.5 -32.5t39.5 -87.5q0 -53 -45 -84zM632 323
q-48 0 -48 -38q0 -39 48 -39q21 0 34.5 10.5t13.5 28.5t-13.5 28t-34.5 10zM632 78q25 0 38.5 12.5t13.5 33.5q0 20 -14 32.5t-38 12.5q-25 0 -39 -12t-14 -33t14 -33.5t39 -12.5z" />
    <glyph glyph-name="threeeighths" unicode="&#x215c;" horiz-adv-x="887" 
d="M321 421q0 -65 -41 -100t-114 -35q-116 0 -156 89l90 52q17 -47 66 -47q48 0 48 41q0 18 -14 29t-37 11h-19l-40 58l69 84h-145v97h275v-79l-72 -86q43 -12 66.5 -41.5t23.5 -72.5zM598 700h90l-400 -700h-90zM808 210q58 -34 58 -101q0 -56 -40.5 -89.5t-112.5 -33.5
t-113 33.5t-41 89.5q0 67 59 101q-45 31 -45 84q0 55 39.5 87.5t100.5 32.5t100.5 -32.5t39.5 -87.5q0 -53 -45 -84zM713 323q-48 0 -48 -38q0 -39 48 -39q21 0 34.5 10.5t13.5 28.5t-13.5 28t-34.5 10zM713 78q25 0 38.5 12.5t13.5 33.5q0 20 -14 32.5t-38 12.5
q-25 0 -39 -12t-14 -33t14 -33.5t39 -12.5z" />
    <glyph glyph-name="fiveeighths" unicode="&#x215d;" horiz-adv-x="873" 
d="M315 417q0 -63 -40.5 -97t-105.5 -34q-116 0 -156 89l88 50q18 -47 65 -47q51 0 51 41q0 19 -13 31t-38 12h-128l16 238h242v-97h-152l-4 -54h33q65 0 103.5 -33t38.5 -99zM584 700h90l-400 -700h-90zM794 210q58 -34 58 -101q0 -56 -40.5 -89.5t-112.5 -33.5t-113 33.5
t-41 89.5q0 67 59 101q-45 31 -45 84q0 55 39.5 87.5t100.5 32.5t100.5 -32.5t39.5 -87.5q0 -53 -45 -84zM699 323q-48 0 -48 -38q0 -39 48 -39q21 0 34.5 10.5t13.5 28.5t-13.5 28t-34.5 10zM699 78q25 0 38.5 12.5t13.5 33.5q0 20 -14 32.5t-38 12.5q-25 0 -39 -12
t-14 -33t14 -33.5t39 -12.5z" />
    <glyph glyph-name="seveneighths" unicode="&#x215e;" horiz-adv-x="834" 
d="M153 300h-111l121 303h-160v97h276v-82zM545 700h90l-400 -700h-90zM755 210q58 -34 58 -101q0 -56 -40.5 -89.5t-112.5 -33.5t-113 33.5t-41 89.5q0 67 59 101q-45 31 -45 84q0 55 39.5 87.5t100.5 32.5t100.5 -32.5t39.5 -87.5q0 -53 -45 -84zM660 323q-48 0 -48 -38
q0 -39 48 -39q21 0 34.5 10.5t13.5 28.5t-13.5 28t-34.5 10zM660 78q25 0 38.5 12.5t13.5 33.5q0 20 -14 32.5t-38 12.5q-25 0 -39 -12t-14 -33t14 -33.5t39 -12.5z" />
    <glyph glyph-name="arrowleft" unicode="&#x2190;" horiz-adv-x="798" 
d="M753 412v-124h-475l238 -238h-171l-300 300l300 300h171l-238 -238h475z" />
    <glyph glyph-name="arrowup" unicode="&#x2191;" horiz-adv-x="690" 
d="M645 400v-171l-235 235v-464h-129v465l-236 -236v171l300 300z" />
    <glyph glyph-name="arrowright" unicode="&#x2192;" horiz-adv-x="798" 
d="M453 650l300 -300l-300 -300h-171l238 238h-475v124h475l-238 238h171z" />
    <glyph glyph-name="arrowdown" unicode="&#x2193;" horiz-adv-x="690" 
d="M410 236l235 235v-171l-300 -300l-300 300v171l236 -236v465h129v-464z" />
    <glyph glyph-name="arrowboth" unicode="&#x2194;" horiz-adv-x="1085" 
d="M768 623l272 -273l-272 -272h-168l208 210h-533l210 -210h-168l-272 272l272 273h168l-210 -211h535l-210 211h168z" />
    <glyph glyph-name="arrowupdn" unicode="&#x2195;" horiz-adv-x="635" 
d="M590 407l-208 209v-531l208 208v-168l-272 -273l-273 273v168l208 -207v529l-208 -208v168l273 273l272 -273v-168z" />
    <glyph glyph-name="uni2196" unicode="&#x2196;" horiz-adv-x="643" 
d="M598 148l-87 -88l-345 344v-335l-121 120v424h424l121 -120h-337z" />
    <glyph glyph-name="uni2197" unicode="&#x2197;" horiz-adv-x="643" 
d="M174 613h424v-424l-120 -120v336l-345 -345l-88 88l345 345h-336z" />
    <glyph glyph-name="uni2198" unicode="&#x2198;" horiz-adv-x="643" 
d="M478 617l120 -120v-424h-424l-120 120h336l-345 345l88 88l345 -345v336z" />
    <glyph glyph-name="uni2199" unicode="&#x2199;" horiz-adv-x="643" 
d="M598 538l-345 -345h337l-121 -120h-424v424l121 120v-335l345 344z" />
    <glyph glyph-name="partialdiff" unicode="&#x2202;" horiz-adv-x="584" 
d="M240 714q122 0 210.5 -101.5t88.5 -262.5q0 -174 -79 -269t-200 -95q-101 0 -159 61t-58 153q0 103 61 168.5t165 65.5q76 0 138 -40q-10 92 -57 144.5t-126 53.5q-57 1 -115 -32v118q56 36 131 36zM265 108q59 0 95.5 47t46.5 129q-51 36 -120 36q-50 0 -82.5 -30.5
t-32.5 -85.5q0 -44 25.5 -70t67.5 -26z" />
    <glyph glyph-name="emptyset" unicode="&#x2205;" horiz-adv-x="804" 
d="M660 604q104 -106 104 -254q0 -150 -106 -256t-256 -106q-104 0 -192 55l-50 -63h-107l92 115q-105 107 -105 255q0 150 106 256t256 106q104 0 192 -55l50 63h108zM130 350q0 -106 71 -185l337 423q-61 36 -136 36q-113 0 -192.5 -79.5t-79.5 -194.5zM402 76
q114 0 193 80t79 194q0 107 -70 185l-338 -423q63 -36 136 -36z" />
    <glyph glyph-name="product" unicode="&#x220f;" horiz-adv-x="640" 
d="M65 -200v900h510v-900h-129v776h-252v-776h-129z" />
    <glyph glyph-name="summation" unicode="&#x2211;" horiz-adv-x="563" 
d="M35 -200v110l213 350l-198 329v111h460v-124h-308l191 -316l-205 -336h337v-124h-490z" />
    <glyph glyph-name="minus" unicode="&#x2212;" horiz-adv-x="555" 
d="M53 290v121h450v-121h-450z" />
    <glyph glyph-name="radical" unicode="&#x221a;" horiz-adv-x="676" 
d="M269 0l-122 199h-102v124h176l100 -173l218 650h132l-277 -800h-125z" />
    <glyph glyph-name="infinity" unicode="&#x221e;" horiz-adv-x="808" 
d="M575 525q78 0 129.5 -48.5t51.5 -126.5t-51.5 -126.5t-129.5 -48.5q-86 0 -171 87q-85 -87 -171 -87q-79 0 -130.5 48.5t-51.5 126.5t51.5 126.5t130.5 48.5q86 0 171 -87q85 87 171 87zM239 291q43 0 89 59q-46 59 -89 59q-26 0 -42.5 -17t-16.5 -42t16.5 -42t42.5 -17z
M569 291q26 0 42.5 17t16.5 42t-16.5 42t-42.5 17q-43 0 -89 -59q46 -59 89 -59z" />
    <glyph glyph-name="integral" unicode="&#x222b;" horiz-adv-x="441" 
d="M0 -204v129q33 -18 66 -3t41 59l95 561q18 106 82 145t157 15v-128q-34 17 -68 2.5t-41 -58.5l-96 -562q-18 -106 -81.5 -145t-154.5 -15z" />
    <glyph glyph-name="approxequal" unicode="&#x2248;" horiz-adv-x="569" 
d="M289 379q-49 23 -80 27.5t-47 -3t-34 -26.5l-83 28q53 198 235 114q64 -31 95.5 -27t43.5 51l105 -51q-22 -94 -85.5 -124.5t-149.5 11.5zM150 157l-105 51q22 95 85.5 125t149.5 -12q48 -23 79.5 -27t47 3t34.5 26l83 -28q-53 -197 -235 -114q-64 31 -95.5 27t-43.5 -51
z" />
    <glyph glyph-name="notequal" unicode="&#x2260;" horiz-adv-x="525" 
d="M480 393h-158l-39 -86h197v-121h-251l-59 -131h-80l59 131h-104v121h158l39 86h-197v121h251l59 131h80l-59 -131h104v-121z" />
    <glyph glyph-name="lessequal" unicode="&#x2264;" horiz-adv-x="528" 
d="M483 653v-134l-289 -90l289 -89v-134l-438 166v114zM45 55v121h438v-121h-438z" />
    <glyph glyph-name="greaterequal" unicode="&#x2265;" horiz-adv-x="528" 
d="M45 653l438 -167v-114l-438 -166v134l289 89l-289 90v134zM45 55v121h438v-121h-438z" />
    <glyph glyph-name="lozenge" unicode="&#x25ca;" horiz-adv-x="555" 
d="M229 0l-186 350l186 350h98l186 -350l-186 -350h-98zM278 170l95 180l-95 180l-96 -180z" />
    <glyph glyph-name="i.loclTRK" horiz-adv-x="247" 
d="M123 551q-32 0 -55 23t-23 55t23 54.5t55 22.5q31 0 54 -23t23 -54q0 -32 -23 -55t-54 -23zM59 0v500h129v-500h-129z" />
    <glyph glyph-name="f_f_j" horiz-adv-x="834" 
d="M775 500v-510q0 -110 -53.5 -160.5t-163.5 -43.5v124q45 -3 66.5 16t21.5 64v386h-147v-376h-129v376h-148v-376h-129v376h-72v124h72v5q0 106 59 161t176 48v-124q-106 8 -106 -85v-5h148v15q0 209 235 209q54 0 118 -14v-118q-69 8 -118 8q-53 0 -79.5 -18.5
t-26.5 -66.5v-15h276z" />
    <glyph glyph-name="f_j" horiz-adv-x="557" 
d="M498 500v-510q0 -110 -53.5 -160.5t-164.5 -43.5v124q46 -3 67.5 16t21.5 64v386h-147v-376h-129v376h-72v124h72v5q0 209 235 209q53 0 117 -14v-118q-67 8 -117 8q-54 0 -80 -18.5t-26 -66.5v-5h276z" />
    <glyph glyph-name="uni0414.loclBGR" horiz-adv-x="730" 
d="M634 132h79v-266h-138v134h-420v-134h-137v266h79l183 568h171zM241 132h248l-124 412z" />
    <glyph glyph-name="uni041B.loclBGR" horiz-adv-x="647" 
d="M238 700h171l236 -700h-151l-170 538l-171 -538h-150z" />
    <glyph glyph-name="uni0424.loclBGR" horiz-adv-x="859" 
d="M827 350q0 -148 -90 -244.5t-242 -113.5v-92h-130v92q-152 17 -242 113.5t-90 244.5t90 244.5t242 113.5v92h130v-92q152 -17 242 -113.5t90 -244.5zM170 350q0 -98 49.5 -157.5t145.5 -73.5v463q-96 -15 -145.5 -74.5t-49.5 -157.5zM495 119q96 15 145 74t49 157
t-49 157.5t-145 74.5v-463z" />
    <glyph glyph-name="uni0414.ss01" horiz-adv-x="705" 
d="M603 132h75v-132h-663v132h68q58 81 58 237v331h462v-568zM231 132h234v439h-186v-204q0 -152 -48 -235z" />
    <glyph glyph-name="uni0426.ss01" horiz-adv-x="690" 
d="M588 132h75v-132h-598v700h138v-568h247v568h138v-568z" />
    <glyph glyph-name="uni0429.ss01" horiz-adv-x="980" 
d="M878 132h75v-132h-888v700h138v-568h200v568h137v-568h200v568h138v-568z" />
    <glyph glyph-name="uni0414.loclBGR.ss01" horiz-adv-x="730" 
d="M634 132h79v-132h-695v132h79l183 568h171zM241 132h248l-124 412z" />
    <glyph glyph-name="uni0432.loclBGR" horiz-adv-x="566" 
d="M419 409q115 -47 115 -195q0 -107 -63 -167.5t-175 -60.5q-108 0 -172.5 66.5t-64.5 176.5v238q0 111 62 179t165 68q87 0 141 -47.5t54 -126.5q0 -68 -62 -131zM286 593q-45 0 -71.5 -34.5t-26.5 -91.5v-58l47 10q35 7 61 8q59 47 59 98q0 31 -18.5 49.5t-50.5 18.5z
M296 111q52 0 80.5 27t28.5 76q0 58 -46 81t-124 7l-47 -10v-63q0 -55 29 -86.5t79 -31.5z" />
    <glyph glyph-name="uni0433.loclBGR" horiz-adv-x="465" 
d="M333 170l112 -64q-56 -120 -210 -120q-86 0 -143.5 41.5t-57.5 118.5q0 51 26 85t63 48.5t74 24t63 22t26 32.5t-16 30.5t-40 10.5q-56 0 -82 -52l-109 60q28 51 78.5 79t112.5 28q80 0 134 -42.5t54 -116.5q0 -42 -18.5 -72t-46.5 -44.5t-61 -25.5t-61 -17t-46.5 -18
t-18.5 -29q0 -46 69 -46q76 0 98 67z" />
    <glyph glyph-name="uni0434.loclBGR" 
d="M442 500h126v-476q0 -116 -76.5 -177t-184.5 -61q-81 0 -142.5 31t-94.5 91l110 63q38 -70 131 -70q61 0 96 32t35 91v54q-57 -76 -160 -76q-106 0 -177.5 74.5t-71.5 181.5q0 106 72 181t177 75q103 0 160 -76v62zM302 121q61 0 100.5 38.5t39.5 98.5q0 59 -39.5 97.5
t-100.5 38.5t-100.5 -38.5t-39.5 -97.5q0 -60 39.5 -98.5t100.5 -38.5z" />
    <glyph glyph-name="uni0436.loclBGR" horiz-adv-x="746" 
d="M734 0h-145l-153 223v-223h-126v223l-153 -223h-144l180 253l-170 247h144l143 -216v416h126v-416l143 216h145l-171 -247z" />
    <glyph glyph-name="uni0438.loclBGR" horiz-adv-x="577" 
d="M389 500h129v-500h-129v56q-47 -70 -149 -70q-82 0 -135.5 55t-53.5 152v307h129v-291q0 -50 27 -76.5t72 -26.5q50 0 80 31t30 93v270z" />
    <glyph glyph-name="uni0439.loclBGR" horiz-adv-x="577" 
d="M429 676v-112h-290v112h290zM389 500h129v-500h-129v56q-47 -70 -149 -70q-82 0 -135.5 55t-53.5 152v307h129v-291q0 -50 27 -76.5t72 -26.5q50 0 80 31t30 93v270z" />
    <glyph glyph-name="uni043A.loclBGR" horiz-adv-x="525" 
d="M520 0h-150l-182 227v-227h-129v700h129v-420l172 220h154l-201 -247z" />
    <glyph glyph-name="uni043B.loclBGR" horiz-adv-x="533" 
d="M530 0h-142l-122 350l-121 -350h-142l190 500h147z" />
    <glyph glyph-name="uni043F.loclBGR" horiz-adv-x="577" 
d="M337 514q82 0 135.5 -55t53.5 -152v-307h-129v291q0 50 -27 76.5t-72 26.5q-50 0 -80 -31t-30 -93v-270h-129v500h129v-56q47 70 149 70z" />
    <glyph glyph-name="uni0442.loclBGR" horiz-adv-x="852" 
d="M612 514q86 0 137.5 -56t51.5 -150v-308h-129v299q0 45 -22 70t-62 25q-44 0 -68.5 -29t-24.5 -84v-281h-129v299q0 45 -22 70t-62 25q-43 0 -68.5 -29t-25.5 -84v-281h-129v500h129v-53q45 67 139 67q92 0 136 -72q50 72 149 72z" />
    <glyph glyph-name="uni0446.loclBGR" horiz-adv-x="616" 
d="M550 121h43v-255h-126v144q-41 17 -62 55q-51 -79 -165 -79q-82 0 -135.5 55.5t-53.5 151.5v307h129v-290q0 -50 27 -77t72 -27q50 0 80 31t30 93v270h129v-347q0 -32 32 -32z" />
    <glyph glyph-name="uni0448.loclBGR" horiz-adv-x="852" 
d="M664 500h129v-500h-129v53q-45 -67 -139 -67q-92 0 -136 72q-50 -72 -149 -72q-86 0 -137.5 56t-51.5 150v308h129v-299q0 -45 22 -70t62 -25q44 0 68.5 29t24.5 84v281h129v-299q0 -45 22 -70t62 -25q43 0 68.5 29t25.5 84v281z" />
    <glyph glyph-name="uni0449.loclBGR" horiz-adv-x="891" 
d="M825 121h43v-255h-126v144q-39 15 -59 50q-50 -74 -150 -74q-98 0 -144 73q-49 -73 -149 -73q-86 0 -137.5 56t-51.5 150v308h129v-298q0 -45 22 -70.5t62 -25.5q44 0 68.5 29t24.5 84v281h129v-298q0 -45 22 -70.5t62 -25.5q43 0 68.5 29t25.5 84v281h129v-347
q0 -32 32 -32z" />
    <glyph glyph-name="uni044C.loclBGR" horiz-adv-x="493" 
d="M268 361q98 0 150.5 -48t52.5 -134q0 -82 -58.5 -137.5t-151.5 -55.5q-98 0 -154 54.5t-56 145.5v314h126v-139h91zM261 108q36 0 60 22t24 50q0 30 -20 48.5t-57 18.5h-91v-61q0 -34 22.5 -56t61.5 -22z" />
    <glyph glyph-name="uni044A.loclBGR" horiz-adv-x="579" 
d="M354 361q98 0 150 -48t52 -134q0 -82 -58.5 -137.5t-151.5 -55.5q-98 0 -154 54.5t-56 145.5v193h-136v121h262v-139h92zM346 108q36 0 60 22t24 50q0 30 -20 48.5t-56 18.5h-92v-61q0 -34 23 -56t61 -22z" />
    <glyph glyph-name="uni044E.loclBGR" horiz-adv-x="811" 
d="M514 514q111 0 188 -76.5t77 -187.5t-77 -187.5t-188 -76.5q-94 0 -164 57t-90 147h-72v-190h-129v700h129v-389h73q20 89 90 146t163 57zM514 112q58 0 97 39t39 99t-39 99t-97 39t-96.5 -39t-38.5 -99t38.5 -99t96.5 -39z" />
    <glyph glyph-name="zero.sinf" horiz-adv-x="409" 
d="M204 -174q-83 0 -132 58t-49 156t49 156t132 58t132.5 -58t49.5 -156t-49.5 -156t-132.5 -58zM204 -67q35 0 53.5 27.5t18.5 79.5t-18.5 79.5t-53.5 27.5q-34 0 -52.5 -27.5t-18.5 -79.5t18.5 -79.5t52.5 -27.5z" />
    <glyph glyph-name="one.sinf" horiz-adv-x="265" 
d="M123 240h94v-400h-107v292l-82 -23l-25 88z" />
    <glyph glyph-name="two.sinf" horiz-adv-x="349" 
d="M24 -160v70l150 149q35 33 35 61q0 16 -11 26t-30 10q-41 0 -62 -51l-87 50q42 99 150 99q64 0 106 -35.5t42 -90.5q0 -61 -68 -129l-65 -62h139v-97h-299z" />
    <glyph glyph-name="three.sinf" horiz-adv-x="345" 
d="M231 75q43 -12 66.5 -41.5t23.5 -72.5q0 -65 -41 -100t-114 -35q-116 0 -156 89l90 52q17 -47 66 -47q48 0 48 41q0 18 -14 29t-37 11h-19l-40 58l69 84h-145v97h275v-79z" />
    <glyph glyph-name="four.sinf" horiz-adv-x="357" 
d="M341 2v-98h-41v-64h-102v64h-187v98l129 238h114l-123 -238h67v69h102v-69h41z" />
    <glyph glyph-name="five.sinf" horiz-adv-x="336" 
d="M174 89q65 0 103.5 -33t38.5 -99q0 -63 -40.5 -97t-105.5 -34q-116 0 -156 89l88 50q18 -47 65 -47q51 0 51 41q0 19 -13 31t-38 12h-128l16 238h242v-97h-152l-4 -54h33z" />
    <glyph glyph-name="six.sinf" horiz-adv-x="340" 
d="M185 110q63 -4 101 -43t38 -98q0 -63 -42.5 -103t-111.5 -40t-111.5 40t-42.5 103q0 40 19 73l125 198h110zM170 -84q25 0 40 14t15 39q0 24 -15 37.5t-40 13.5t-39.5 -13.5t-14.5 -37.5q0 -25 15 -39t39 -14z" />
    <glyph glyph-name="seven.sinf" horiz-adv-x="295" 
d="M3 240h276v-82l-126 -318h-111l121 303h-160v97z" />
    <glyph glyph-name="eight.sinf" horiz-adv-x="349" 
d="M270 50q58 -34 58 -101q0 -56 -40.5 -89.5t-112.5 -33.5t-113 33.5t-41 89.5q0 67 59 101q-45 31 -45 84q0 55 39.5 87.5t100.5 32.5t100.5 -32.5t39.5 -87.5q0 -53 -45 -84zM175 163q-48 0 -48 -38q0 -39 48 -39q21 0 34.5 10.5t13.5 28.5t-13.5 28t-34.5 10zM175 -82
q25 0 38.5 12.5t13.5 33.5q0 20 -14 32.5t-38 12.5q-25 0 -39 -12t-14 -33t14 -33.5t39 -12.5z" />
    <glyph glyph-name="nine.sinf" horiz-adv-x="340" 
d="M324 111q0 -40 -19 -73l-124 -198h-111l85 130q-63 4 -101 43.5t-38 97.5q0 63 42.5 103t111.5 40t111.5 -40t42.5 -103zM116 111q0 -24 14.5 -37.5t39.5 -13.5t40 13.5t15 37.5q0 25 -15 39t-40 14q-24 0 -39 -14t-15 -39z" />
    <glyph glyph-name="zero.tf" horiz-adv-x="578" 
d="M289 -14q-132 0 -206 99.5t-74 264.5t74 264.5t206 99.5q131 0 205.5 -99.5t74.5 -264.5t-74.5 -264.5t-205.5 -99.5zM289 121q70 0 106 58.5t36 170.5t-36 171t-106 59t-106.5 -59t-36.5 -171q0 -111 36.5 -170t106.5 -59z" />
    <glyph glyph-name="one.tf" horiz-adv-x="578" 
d="M369 132h190v-132h-530v132h202v422l-132 -37l-34 118l184 65h120v-568z" />
    <glyph glyph-name="two.tf" horiz-adv-x="578" 
d="M34 0v103l255 231q49 44 74.5 78t25.5 70q0 41 -27.5 69.5t-79.5 28.5q-83 0 -130 -91l-116 68q37 77 102 117t145 40q107 0 175 -63.5t68 -160.5q0 -66 -36 -122t-107 -119l-132 -116h287v-133h-504z" />
    <glyph glyph-name="three.tf" horiz-adv-x="578" 
d="M380 424q77 -21 123 -73t46 -131q0 -110 -73 -172t-186 -62q-97 0 -166 41.5t-102 122.5l118 68q33 -97 143 -97q62 0 95 26.5t33 72.5t-33 72.5t-95 26.5h-28l-55 81l144 171h-300v129h473v-114z" />
    <glyph glyph-name="four.tf" horiz-adv-x="578" 
d="M561 247v-128h-75v-119h-139v119h-338v128l232 453h148l-232 -453h190v161h139v-161h75z" />
    <glyph glyph-name="five.tf" horiz-adv-x="578" 
d="M296 445q111 0 182 -60t71 -169q0 -108 -73.5 -169t-182.5 -61q-97 0 -166.5 41.5t-102.5 122.5l118 68q33 -97 147 -97q60 0 91 25.5t31 69.5q0 43 -31 69t-91 26h-225l28 389h424v-129h-298l-10 -126h88z" />
    <glyph glyph-name="six.tf" horiz-adv-x="578" 
d="M291 480q121 -1 193 -69t72 -178q0 -111 -73.5 -179t-196.5 -68t-196.5 68t-73.5 179q0 93 53 158l222 309h159zM286 116q61 0 97 31t36 86t-36 86.5t-97 31.5t-96.5 -31t-35.5 -87q0 -55 35.5 -86t96.5 -31z" />
    <glyph glyph-name="seven.tf" horiz-adv-x="578" 
d="M25 700h520v-117l-265 -583h-145l256 568h-366v132z" />
    <glyph glyph-name="eight.tf" horiz-adv-x="578" 
d="M456 364q103 -58 103 -169q0 -96 -72 -152.5t-198 -56.5t-198 56.5t-72 152.5q0 111 103 169q-79 52 -79 145q0 97 69.5 151t176.5 54q106 0 176 -54t70 -151q0 -92 -79 -145zM289 584q-51 0 -80 -22t-29 -60t29 -60.5t80 -22.5t80 22.5t29 60.5t-29 60t-80 22zM289 116
q64 0 98.5 25.5t34.5 71.5t-34.5 71t-98.5 25t-98.5 -25t-34.5 -71t34.5 -71.5t98.5 -25.5z" />
    <glyph glyph-name="nine.tf" horiz-adv-x="578" 
d="M561 467q0 -86 -45 -148l-229 -319h-159l159 220q-122 1 -194 69t-72 178q0 111 73.5 179t196.5 68q124 0 197 -68t73 -179zM159 467q0 -55 35.5 -86t96.5 -31q62 0 97.5 30.5t35.5 86.5t-35.5 86.5t-97.5 30.5q-61 0 -96.5 -31t-35.5 -86z" />
    <glyph glyph-name="zero.dnom" horiz-adv-x="409" 
d="M204 -14q-83 0 -132 58t-49 156t49 156t132 58t132.5 -58t49.5 -156t-49.5 -156t-132.5 -58zM204 93q35 0 53.5 27.5t18.5 79.5t-18.5 79.5t-53.5 27.5q-34 0 -52.5 -27.5t-18.5 -79.5t18.5 -79.5t52.5 -27.5z" />
    <glyph glyph-name="one.dnom" horiz-adv-x="267" 
d="M123 400h94v-400h-107v292l-82 -23l-25 88z" />
    <glyph glyph-name="two.dnom" horiz-adv-x="356" 
d="M24 0v70l150 149q35 33 35 61q0 16 -11 26t-30 10q-41 0 -62 -51l-87 50q42 99 150 99q64 0 106 -35.5t42 -90.5q0 -61 -68 -129l-65 -62h139v-97h-299z" />
    <glyph glyph-name="three.dnom" horiz-adv-x="348" 
d="M231 235q43 -12 66.5 -41.5t23.5 -72.5q0 -65 -41 -100t-114 -35q-116 0 -156 89l90 52q17 -47 66 -47q48 0 48 41q0 18 -14 29t-37 11h-19l-40 58l69 84h-145v97h275v-79z" />
    <glyph glyph-name="four.dnom" horiz-adv-x="357" 
d="M341 162v-98h-41v-64h-102v64h-187v98l129 238h114l-123 -238h67v69h102v-69h41z" />
    <glyph glyph-name="five.dnom" horiz-adv-x="334" 
d="M173 249q65 0 103.5 -33t38.5 -99q0 -63 -40.5 -97t-105.5 -34q-116 0 -156 89l88 50q18 -47 65 -47q51 0 51 41q0 19 -13 31t-38 12h-128l16 238h242v-97h-152l-4 -54h33z" />
    <glyph glyph-name="six.dnom" horiz-adv-x="340" 
d="M185 270q63 -4 101 -43t38 -98q0 -63 -42.5 -103t-111.5 -40t-111.5 40t-42.5 103q0 40 19 73l125 198h110zM170 76q25 0 40 14t15 39q0 24 -15 37.5t-40 13.5t-39.5 -13.5t-14.5 -37.5q0 -25 15 -39t39 -14z" />
    <glyph glyph-name="seven.dnom" horiz-adv-x="295" 
d="M3 400h276v-82l-126 -318h-111l121 303h-160v97z" />
    <glyph glyph-name="eight.dnom" horiz-adv-x="349" 
d="M270 210q58 -34 58 -101q0 -56 -40.5 -89.5t-112.5 -33.5t-113 33.5t-41 89.5q0 67 59 101q-45 31 -45 84q0 55 39.5 87.5t100.5 32.5t100.5 -32.5t39.5 -87.5q0 -53 -45 -84zM175 323q-48 0 -48 -38q0 -39 48 -39q21 0 34.5 10.5t13.5 28.5t-13.5 28t-34.5 10zM175 78
q25 0 38.5 12.5t13.5 33.5q0 20 -14 32.5t-38 12.5q-25 0 -39 -12t-14 -33t14 -33.5t39 -12.5z" />
    <glyph glyph-name="nine.dnom" horiz-adv-x="340" 
d="M324 271q0 -40 -19 -73l-124 -198h-111l85 130q-63 4 -101 43.5t-38 97.5q0 63 42.5 103t111.5 40t111.5 -40t42.5 -103zM116 271q0 -24 14.5 -37.5t39.5 -13.5t40 13.5t15 37.5q0 25 -15 39t-40 14q-24 0 -39 -14t-15 -39z" />
    <glyph glyph-name="zero.numr" horiz-adv-x="409" 
d="M204 286q-83 0 -132 58t-49 156t49 156t132 58t132.5 -58t49.5 -156t-49.5 -156t-132.5 -58zM204 393q35 0 53.5 27.5t18.5 79.5t-18.5 79.5t-53.5 27.5q-34 0 -52.5 -27.5t-18.5 -79.5t18.5 -79.5t52.5 -27.5z" />
    <glyph glyph-name="one.numr" horiz-adv-x="267" 
d="M123 700h94v-400h-107v292l-82 -23l-25 88z" />
    <glyph glyph-name="two.numr" horiz-adv-x="356" 
d="M24 300v70l150 149q35 33 35 61q0 16 -11 26t-30 10q-41 0 -62 -51l-87 50q42 99 150 99q64 0 106 -35.5t42 -90.5q0 -61 -68 -129l-65 -62h139v-97h-299z" />
    <glyph glyph-name="three.numr" horiz-adv-x="348" 
d="M231 535q43 -12 66.5 -41.5t23.5 -72.5q0 -65 -41 -100t-114 -35q-116 0 -156 89l90 52q17 -47 66 -47q48 0 48 41q0 18 -14 29t-37 11h-19l-40 58l69 84h-145v97h275v-79z" />
    <glyph glyph-name="four.numr" horiz-adv-x="357" 
d="M341 462v-98h-41v-64h-102v64h-187v98l129 238h114l-123 -238h67v69h102v-69h41z" />
    <glyph glyph-name="five.numr" horiz-adv-x="334" 
d="M173 549q65 0 103.5 -33t38.5 -99q0 -63 -40.5 -97t-105.5 -34q-116 0 -156 89l88 50q18 -47 65 -47q51 0 51 41q0 19 -13 31t-38 12h-128l16 238h242v-97h-152l-4 -54h33z" />
    <glyph glyph-name="six.numr" horiz-adv-x="340" 
d="M185 570q63 -4 101 -43t38 -98q0 -63 -42.5 -103t-111.5 -40t-111.5 40t-42.5 103q0 40 19 73l125 198h110zM170 376q25 0 40 14t15 39q0 24 -15 37.5t-40 13.5t-39.5 -13.5t-14.5 -37.5q0 -25 15 -39t39 -14z" />
    <glyph glyph-name="seven.numr" horiz-adv-x="295" 
d="M3 700h276v-82l-126 -318h-111l121 303h-160v97z" />
    <glyph glyph-name="eight.numr" horiz-adv-x="349" 
d="M270 510q58 -34 58 -101q0 -56 -40.5 -89.5t-112.5 -33.5t-113 33.5t-41 89.5q0 67 59 101q-45 31 -45 84q0 55 39.5 87.5t100.5 32.5t100.5 -32.5t39.5 -87.5q0 -53 -45 -84zM175 623q-48 0 -48 -38q0 -39 48 -39q21 0 34.5 10.5t13.5 28.5t-13.5 28t-34.5 10zM175 378
q25 0 38.5 12.5t13.5 33.5q0 20 -14 32.5t-38 12.5q-25 0 -39 -12t-14 -33t14 -33.5t39 -12.5z" />
    <glyph glyph-name="nine.numr" horiz-adv-x="340" 
d="M324 571q0 -40 -19 -73l-124 -198h-111l85 130q-63 4 -101 43.5t-38 97.5q0 63 42.5 103t111.5 40t111.5 -40t42.5 -103zM116 571q0 -24 14.5 -37.5t39.5 -13.5t40 13.5t15 37.5q0 25 -15 39t-40 14q-24 0 -39 -14t-15 -39z" />
    <glyph glyph-name="zero.sups" horiz-adv-x="409" 
d="M204 446q-83 0 -132 58t-49 156t49 156t132 58t132.5 -58t49.5 -156t-49.5 -156t-132.5 -58zM204 553q35 0 53.5 27.5t18.5 79.5t-18.5 79.5t-53.5 27.5q-34 0 -52.5 -27.5t-18.5 -79.5t18.5 -79.5t52.5 -27.5z" />
    <glyph glyph-name="one.sups" horiz-adv-x="267" 
d="M123 860h94v-400h-107v292l-82 -23l-25 88z" />
    <glyph glyph-name="two.sups" horiz-adv-x="356" 
d="M24 460v70l150 149q35 33 35 61q0 16 -11 26t-30 10q-41 0 -62 -51l-87 50q42 99 150 99q64 0 106 -35.5t42 -90.5q0 -61 -68 -129l-65 -62h139v-97h-299z" />
    <glyph glyph-name="three.sups" horiz-adv-x="348" 
d="M231 695q43 -12 66.5 -41.5t23.5 -72.5q0 -65 -41 -100t-114 -35q-116 0 -156 89l90 52q17 -47 66 -47q48 0 48 41q0 18 -14 29t-37 11h-19l-40 58l69 84h-145v97h275v-79z" />
    <glyph glyph-name="four.sups" horiz-adv-x="357" 
d="M341 622v-98h-41v-64h-102v64h-187v98l129 238h114l-123 -238h67v69h102v-69h41z" />
    <glyph glyph-name="five.sups" horiz-adv-x="334" 
d="M173 709q65 0 103.5 -33t38.5 -99q0 -63 -40.5 -97t-105.5 -34q-116 0 -156 89l88 50q18 -47 65 -47q51 0 51 41q0 19 -13 31t-38 12h-128l16 238h242v-97h-152l-4 -54h33z" />
    <glyph glyph-name="six.sups" horiz-adv-x="340" 
d="M185 730q63 -4 101 -43t38 -98q0 -63 -42.5 -103t-111.5 -40t-111.5 40t-42.5 103q0 40 19 73l125 198h110zM170 536q25 0 40 14t15 39q0 24 -15 37.5t-40 13.5t-39.5 -13.5t-14.5 -37.5q0 -25 15 -39t39 -14z" />
    <glyph glyph-name="seven.sups" horiz-adv-x="295" 
d="M3 860h276v-82l-126 -318h-111l121 303h-160v97z" />
    <glyph glyph-name="eight.sups" horiz-adv-x="349" 
d="M270 670q58 -34 58 -101q0 -56 -40.5 -89.5t-112.5 -33.5t-113 33.5t-41 89.5q0 67 59 101q-45 31 -45 84q0 55 39.5 87.5t100.5 32.5t100.5 -32.5t39.5 -87.5q0 -53 -45 -84zM175 783q-48 0 -48 -38q0 -39 48 -39q21 0 34.5 10.5t13.5 28.5t-13.5 28t-34.5 10zM175 538
q25 0 38.5 12.5t13.5 33.5q0 20 -14 32.5t-38 12.5q-25 0 -39 -12t-14 -33t14 -33.5t39 -12.5z" />
    <glyph glyph-name="nine.sups" horiz-adv-x="340" 
d="M324 731q0 -40 -19 -73l-124 -198h-111l85 130q-63 4 -101 43.5t-38 97.5q0 63 42.5 103t111.5 40t111.5 -40t42.5 -103zM116 731q0 -24 14.5 -37.5t39.5 -13.5t40 13.5t15 37.5q0 25 -15 39t-40 14q-24 0 -39 -14t-15 -39z" />
    <glyph glyph-name="cent.tf" horiz-adv-x="578" 
d="M431 280l112 -64q-33 -59 -93 -94.5t-133 -35.5q-34 0 -61 7l-30 -93h-58l35 110q-69 31 -109.5 95t-40.5 145q0 112 75.5 188t188.5 76q27 0 48 -4l29 90h58l-34 -106q83 -33 123 -109l-111 -65q-17 35 -52 52l-82 -257q6 -1 20 -1q39 0 69.5 17.5t45.5 48.5zM182 350
q0 -78 61 -116l82 253h-9q-58 0 -96 -38.5t-38 -98.5z" />
    <glyph glyph-name="dollar.tf" horiz-adv-x="578" 
d="M553 195q0 -88 -58 -142.5t-156 -64.5v-88h-67v87q-92 6 -155.5 50t-91.5 118l119 69q36 -93 128 -105v174q-2 0 -6 2q-48 17 -78 31.5t-64 39.5t-51 61.5t-17 85.5q0 90 61.5 142t154.5 58v87h67v-89q143 -19 199 -147l-116 -68q-25 66 -83 81v-169q32 -12 47 -17.5
t42.5 -18t41.5 -22.5t33 -26.5t27.5 -34t15.5 -42t7 -52.5zM193 514q0 -25 17.5 -43t61.5 -37v148q-79 -7 -79 -68zM339 119q76 11 76 70q0 26 -17 42.5t-59 35.5v-148z" />
    <glyph glyph-name="Euro.tf" horiz-adv-x="578" 
d="M446 207l113 -65q-28 -72 -84.5 -114t-130.5 -42q-105 0 -172 72.5t-85 198.5h-66v78h60v15v24h-60v77h68q19 122 85 192.5t170 70.5q72 0 127.5 -39.5t83.5 -107.5l-115 -66q-13 36 -38.5 57.5t-57.5 21.5q-92 0 -117 -129h174v-77h-182v-24v-15h182v-78h-175
q23 -136 118 -136q34 0 61 23.5t41 62.5z" />
    <glyph glyph-name="florin.tf" horiz-adv-x="578" 
d="M555 576q-46 17 -79.5 2.5t-45.5 -58.5l-29 -106h122v-124h-156l-90 -331q-29 -106 -96 -144.5t-158 -15.5v128q100 -33 124 56l84 307h-119v124h152l36 131q29 105 96.5 144t158.5 16v-129z" />
    <glyph glyph-name="uni20BD.tf" horiz-adv-x="578" 
d="M319 243h-96v-55h195v-88h-195v-100h-138v100h-75v88h75v55h-75v121h75v336h234q99 0 167.5 -68t68.5 -164t-68 -160.5t-168 -64.5zM223 571v-207h96q42 0 70.5 30t28.5 74t-28.5 73.5t-70.5 29.5h-96z" />
    <glyph glyph-name="sterling.tf" horiz-adv-x="578" 
d="M241 133h327v-133h-538v133h73v141h-60v121h60v100q0 106 65.5 162.5t154.5 56.5q76 0 133 -38.5t84 -107.5l-118 -68q-26 80 -95 80q-37 0 -61.5 -23t-24.5 -67v-95h210v-121h-210v-141z" />
    <glyph glyph-name="yen.tf" horiz-adv-x="578" 
d="M576 700l-191 -338h134v-80h-161v-45h161v-81h-161v-156h-138v156h-161v81h161v45h-161v80h134l-191 338h156l131 -252l131 252h156z" />
    <glyph glyph-name="brevecy" horiz-adv-x="360" 
d="M35 564v112h290v-112h-290z" />
    </font>
</defs>
</svg>
